<svg width="36" height="36" viewBox="0 0 36 36" fill="none" xmlns="http://www.w3.org/2000/svg">
<path d="M20.0756 7.24607C20.3342 6.98744 20.3359 6.56509 20.0606 6.32432C18.7183 5.15052 17.4852 4.80853 15.5383 4.68025C13.3606 4.53676 11.205 5.18945 9.47263 6.51681C7.7403 7.84418 6.54929 9.75579 6.12131 11.8958C5.69333 14.0358 6.05752 16.2585 7.14611 18.15C8.2347 20.0415 9.97351 21.4731 12.0389 22.1781C14.1043 22.8832 16.3555 22.8138 18.3735 21.9828C18.534 21.9167 18.6921 21.8462 18.8477 21.7713L20.1755 24.0178L19.6188 24.3393C19.0038 24.6943 18.7931 25.4806 19.1482 26.0956L20.2013 27.9196C20.3788 28.2271 20.772 28.3324 21.0794 28.1549C21.3869 27.9774 21.4923 27.5842 21.3147 27.2768L20.2616 25.4527L22.4885 24.167L26.0243 30.291L23.7973 31.5768L23.3321 30.771C23.1546 30.4635 22.7614 30.3582 22.454 30.5357C22.1465 30.7132 22.0411 31.1064 22.2187 31.4139L22.6839 32.2196C23.0389 32.8346 23.8252 33.0452 24.4402 32.6902L26.6671 31.4045C27.2821 31.0495 27.4928 30.2631 27.1377 29.6482L23.602 23.5241C23.247 22.9092 22.4606 22.6985 21.8457 23.0535L21.289 23.375L19.9637 21.1326C21.2549 20.2656 22.3084 19.0725 23.0088 17.6609C23.8803 15.9043 24.1517 13.9169 23.7923 12.0013C23.7248 11.6418 23.3597 11.4314 23.0061 11.5251C22.6526 11.6188 22.4449 11.9811 22.5078 12.3414C22.7877 13.9454 22.551 15.6034 21.8223 17.0722C20.995 18.7395 19.5902 20.0494 17.8691 20.7581C16.1481 21.4668 14.2282 21.526 12.4668 20.9247C10.7054 20.3233 9.22247 19.1025 8.29408 17.4893C7.3657 15.8762 7.0551 13.9806 7.4201 12.1556C7.7851 10.3305 8.80083 8.70019 10.2782 7.56817C11.7556 6.43615 13.594 5.87952 15.4512 6.00189C17.0738 6.10881 18.029 6.33146 19.1221 7.26372C19.4004 7.50106 19.8169 7.50469 20.0756 7.24607Z" fill="#000520"/>
<path d="M22.6437 7.54071C22.8865 7.28161 23.2933 7.26834 23.5524 7.51108C23.8115 7.75381 23.8247 8.16063 23.582 8.41973L15.506 17.0402C15.2999 17.2602 14.9754 17.3029 14.7236 17.1622C14.6751 17.1362 14.6291 17.1035 14.5871 17.064L10.1117 12.8633C9.85288 12.6203 9.84 12.2135 10.083 11.9546C10.326 11.6957 10.7328 11.6829 10.9917 11.9258L15.0057 15.6936L22.6437 7.54071Z" fill="#000520"/>
</svg>
