<svg width="24" height="24" viewBox="0 0 24 24" fill="none" xmlns="http://www.w3.org/2000/svg">
<path d="M13.3837 4.83071C13.5561 4.65829 13.5573 4.37673 13.3737 4.21621C12.4789 3.43368 11.6568 3.20569 10.3589 3.12017C8.90707 3.02451 7.46998 3.45963 6.31509 4.34454C5.1602 5.22945 4.3662 6.50386 4.08087 7.93054C3.79555 9.35723 4.03835 10.839 4.76408 12.1C5.4898 13.361 6.64901 14.3154 8.02592 14.7854C9.40283 15.2555 10.9036 15.2092 12.249 14.6552C12.356 14.6112 12.4614 14.5641 12.5652 14.5142L13.4503 16.0119L13.0792 16.2262C12.6692 16.4629 12.5287 16.9871 12.7654 17.397L13.4675 18.6131C13.5859 18.8181 13.848 18.8883 14.053 18.7699C14.2579 18.6516 14.3282 18.3895 14.2098 18.1845L13.5077 16.9685L14.9924 16.1113L17.3495 20.194L15.8649 21.0512L15.5548 20.514C15.4364 20.309 15.1743 20.2388 14.9693 20.3571C14.7643 20.4755 14.6941 20.7376 14.8124 20.9426L15.1226 21.4797C15.3593 21.8897 15.8835 22.0302 16.2935 21.7935L17.7781 20.9363C18.188 20.6996 18.3285 20.1754 18.0918 19.7655L15.7347 15.6828C15.498 15.2728 14.9738 15.1323 14.5638 15.369L14.1926 15.5833L13.3091 14.0884C14.1699 13.5104 14.8723 12.715 15.3392 11.7739C15.9202 10.6029 16.1011 9.27793 15.8615 8.00087C15.8165 7.76122 15.5731 7.62093 15.3374 7.68338C15.1017 7.74584 14.9633 7.98741 15.0052 8.22762C15.1918 9.29694 15.034 10.4023 14.5482 11.3815C13.9967 12.493 13.0601 13.3663 11.9128 13.8387C10.7654 14.3112 9.48547 14.3506 8.3112 13.9498C7.13692 13.5489 6.14831 12.735 5.52939 11.6596C4.91047 10.5841 4.7034 9.32043 4.94673 8.10371C5.19006 6.88699 5.86722 5.80013 6.85214 5.04545C7.83707 4.29077 9.06267 3.91968 10.3008 4.00126C11.3825 4.07254 12.0193 4.22098 12.748 4.84248C12.9336 5.00071 13.2113 5.00313 13.3837 4.83071Z" fill="white"/>
<path d="M15.0958 5.02714C15.2576 4.8544 15.5288 4.84556 15.7016 5.00739C15.8743 5.16921 15.8832 5.44042 15.7213 5.61316L10.3373 11.3601C10.1999 11.5068 9.98361 11.5353 9.81572 11.4415C9.78339 11.4241 9.75276 11.4023 9.72473 11.376L6.74117 8.57552C6.56859 8.41353 6.56 8.14231 6.72199 7.96973C6.88398 7.79715 7.1552 7.78857 7.32778 7.95056L10.0038 10.4624L15.0958 5.02714Z" fill="white"/>
</svg>
