<svg width="936" height="200" viewBox="0 0 936 200" fill="none" xmlns="http://www.w3.org/2000/svg">
<g filter="url(#filter0_f_533_2224)">
<ellipse cx="108" cy="67" rx="14" ry="22" fill="#20FFFF" fill-opacity="0.3"/>
</g>
<g filter="url(#filter1_d_533_2224)">
<path fill-rule="evenodd" clip-rule="evenodd" d="M96 48C94.8954 48 94 48.8954 94 50V74C94 74.5523 94.4477 75 95 75C95.5523 75 96 74.5523 96 74V50.8636C96 50.3114 96.4477 49.8636 97 49.8636H110V57.1818C110 58.2864 110.895 59.1818 112 59.1818H122V56.8214C122 56.5439 121.885 56.2789 121.682 56.0898L113.288 48.2684C113.103 48.0959 112.859 48 112.606 48H96ZM112 49.8635L120 57.3181H113C112.448 57.3181 112 56.8704 112 56.3181V49.8635Z" fill="#83F8FF"/>
<path d="M97 85.1364C96.4477 85.1364 96 84.6886 96 84.1364V80C96 79.4477 95.5523 79 95 79C94.4477 79 94 79.4477 94 80V85C94 86.1046 94.8954 87 96 87H120C121.105 87 122 86.1046 122 85V64.0001C122 63.4478 121.552 63.0001 121 63.0001C120.448 63.0001 120 63.4478 120 64.0001V84.1364C120 84.6886 119.552 85.1364 119 85.1364H97Z" fill="#83F8FF"/>
<path d="M100 60C100 59.4477 100.448 59 101 59H107C107.552 59 108 59.4477 108 60C108 60.5523 107.552 61 107 61H101C100.448 61 100 60.5523 100 60Z" fill="#83F8FF"/>
<path d="M101 65C100.448 65 100 65.4477 100 66C100 66.5523 100.448 67 101 67H115C115.552 67 116 66.5523 116 66C116 65.4477 115.552 65 115 65H101Z" fill="#83F8FF"/>
<path d="M100 72C100 71.4477 100.448 71 101 71H115C115.552 71 116 71.4477 116 72C116 72.5523 115.552 73 115 73H101C100.448 73 100 72.5523 100 72Z" fill="#83F8FF"/>
<path d="M101 77C100.448 77 100 77.4477 100 78C100 78.5523 100.448 79 101 79H115C115.552 79 116 78.5523 116 78C116 77.4477 115.552 77 115 77H101Z" fill="#83F8FF"/>
</g>
<path d="M82.5938 112H80.1797V107.07H75.6562V112H73.2344V100.578H75.6562V105.055H80.1797V100.578H82.5938V112ZM88.9141 104.797C88.4089 104.797 88.013 104.958 87.7266 105.281C87.4401 105.599 87.276 106.052 87.2344 106.641H90.5781C90.5677 106.052 90.4141 105.599 90.1172 105.281C89.8203 104.958 89.4193 104.797 88.9141 104.797ZM89.25 112.156C87.8438 112.156 86.7448 111.768 85.9531 110.992C85.1615 110.216 84.7656 109.117 84.7656 107.695C84.7656 106.232 85.1302 105.102 85.8594 104.305C86.5938 103.503 87.6068 103.102 88.8984 103.102C90.1328 103.102 91.0938 103.453 91.7812 104.156C92.4688 104.859 92.8125 105.831 92.8125 107.07V108.227H87.1797C87.2057 108.904 87.4062 109.432 87.7812 109.812C88.1562 110.193 88.6823 110.383 89.3594 110.383C89.8854 110.383 90.3828 110.328 90.8516 110.219C91.3203 110.109 91.8099 109.935 92.3203 109.695V111.539C91.9036 111.747 91.4583 111.901 90.9844 112C90.5104 112.104 89.9323 112.156 89.25 112.156ZM100.938 112L100.617 110.883H100.492C100.237 111.289 99.875 111.604 99.4062 111.828C98.9375 112.047 98.4036 112.156 97.8047 112.156C96.7786 112.156 96.0052 111.883 95.4844 111.336C94.9635 110.784 94.7031 109.992 94.7031 108.961V103.266H97.0859V108.367C97.0859 108.997 97.1979 109.471 97.4219 109.789C97.6458 110.102 98.0026 110.258 98.4922 110.258C99.1589 110.258 99.6406 110.036 99.9375 109.594C100.234 109.146 100.383 108.406 100.383 107.375V103.266H102.766V112H100.938ZM110.141 103.102C110.464 103.102 110.732 103.125 110.945 103.172L110.766 105.406C110.573 105.354 110.339 105.328 110.062 105.328C109.302 105.328 108.708 105.523 108.281 105.914C107.859 106.305 107.648 106.852 107.648 107.555V112H105.266V103.266H107.07L107.422 104.734H107.539C107.81 104.245 108.174 103.852 108.633 103.555C109.096 103.253 109.599 103.102 110.141 103.102ZM112.43 101.008C112.43 100.232 112.862 99.8438 113.727 99.8438C114.591 99.8438 115.023 100.232 115.023 101.008C115.023 101.378 114.914 101.667 114.695 101.875C114.482 102.078 114.159 102.18 113.727 102.18C112.862 102.18 112.43 101.789 112.43 101.008ZM114.914 112H112.531V103.266H114.914V112ZM123.516 109.406C123.516 110.302 123.203 110.984 122.578 111.453C121.958 111.922 121.029 112.156 119.789 112.156C119.154 112.156 118.612 112.112 118.164 112.023C117.716 111.94 117.297 111.815 116.906 111.648V109.68C117.349 109.888 117.846 110.062 118.398 110.203C118.956 110.344 119.445 110.414 119.867 110.414C120.732 110.414 121.164 110.164 121.164 109.664C121.164 109.477 121.107 109.326 120.992 109.211C120.878 109.091 120.68 108.958 120.398 108.812C120.117 108.661 119.742 108.487 119.273 108.289C118.602 108.008 118.107 107.747 117.789 107.508C117.477 107.268 117.247 106.995 117.102 106.688C116.961 106.375 116.891 105.992 116.891 105.539C116.891 104.763 117.19 104.164 117.789 103.742C118.393 103.315 119.247 103.102 120.352 103.102C121.404 103.102 122.427 103.331 123.422 103.789L122.703 105.508C122.266 105.32 121.857 105.167 121.477 105.047C121.096 104.927 120.708 104.867 120.312 104.867C119.609 104.867 119.258 105.057 119.258 105.438C119.258 105.651 119.37 105.836 119.594 105.992C119.823 106.148 120.32 106.38 121.086 106.688C121.768 106.964 122.268 107.221 122.586 107.461C122.904 107.701 123.138 107.977 123.289 108.289C123.44 108.602 123.516 108.974 123.516 109.406ZM129.055 110.258C129.471 110.258 129.971 110.167 130.555 109.984V111.758C129.961 112.023 129.232 112.156 128.367 112.156C127.414 112.156 126.719 111.917 126.281 111.438C125.849 110.953 125.633 110.229 125.633 109.266V105.055H124.492V104.047L125.805 103.25L126.492 101.406H128.016V103.266H130.461V105.055H128.016V109.266C128.016 109.604 128.109 109.854 128.297 110.016C128.49 110.177 128.742 110.258 129.055 110.258ZM132.227 101.008C132.227 100.232 132.659 99.8438 133.523 99.8438C134.388 99.8438 134.82 100.232 134.82 101.008C134.82 101.378 134.711 101.667 134.492 101.875C134.279 102.078 133.956 102.18 133.523 102.18C132.659 102.18 132.227 101.789 132.227 101.008ZM134.711 112H132.328V103.266H134.711V112ZM140.766 112.156C138.047 112.156 136.688 110.664 136.688 107.68C136.688 106.195 137.057 105.062 137.797 104.281C138.536 103.495 139.596 103.102 140.977 103.102C141.987 103.102 142.893 103.299 143.695 103.695L142.992 105.539C142.617 105.388 142.268 105.266 141.945 105.172C141.622 105.073 141.299 105.023 140.977 105.023C139.737 105.023 139.117 105.904 139.117 107.664C139.117 109.372 139.737 110.227 140.977 110.227C141.435 110.227 141.859 110.167 142.25 110.047C142.641 109.922 143.031 109.729 143.422 109.469V111.508C143.036 111.753 142.646 111.922 142.25 112.016C141.859 112.109 141.365 112.156 140.766 112.156ZM73.4688 134H66.8906V122.578H73.4688V124.562H69.3125V127.07H73.1797V129.055H69.3125V132H73.4688V134ZM77.75 134L74.4219 125.266H76.9141L78.6016 130.242C78.7734 130.784 78.8854 131.38 78.9375 132.031H79C79.0312 131.443 79.1484 130.846 79.3516 130.242L81.0312 125.266H83.5234L80.1953 134H77.75ZM90.3281 134L89.8672 132.812H89.8047C89.4036 133.318 88.9896 133.669 88.5625 133.867C88.1406 134.06 87.5885 134.156 86.9062 134.156C86.0677 134.156 85.4062 133.917 84.9219 133.438C84.4427 132.958 84.2031 132.276 84.2031 131.391C84.2031 130.464 84.526 129.781 85.1719 129.344C85.8229 128.901 86.8021 128.656 88.1094 128.609L89.625 128.562V128.18C89.625 127.294 89.1719 126.852 88.2656 126.852C87.5677 126.852 86.7474 127.062 85.8047 127.484L85.0156 125.875C86.0208 125.349 87.1354 125.086 88.3594 125.086C89.5312 125.086 90.4297 125.341 91.0547 125.852C91.6797 126.362 91.9922 127.138 91.9922 128.18V134H90.3281ZM89.625 129.953L88.7031 129.984C88.0104 130.005 87.4948 130.13 87.1562 130.359C86.8177 130.589 86.6484 130.938 86.6484 131.406C86.6484 132.078 87.0339 132.414 87.8047 132.414C88.3568 132.414 88.7969 132.255 89.125 131.938C89.4583 131.62 89.625 131.198 89.625 130.672V129.953ZM96.8359 134H94.4531V121.844H96.8359V134ZM105.531 134L105.211 132.883H105.086C104.831 133.289 104.469 133.604 104 133.828C103.531 134.047 102.997 134.156 102.398 134.156C101.372 134.156 100.599 133.883 100.078 133.336C99.5573 132.784 99.2969 131.992 99.2969 130.961V125.266H101.68V130.367C101.68 130.997 101.792 131.471 102.016 131.789C102.24 132.102 102.596 132.258 103.086 132.258C103.753 132.258 104.234 132.036 104.531 131.594C104.828 131.146 104.977 130.406 104.977 129.375V125.266H107.359V134H105.531ZM115.406 134L114.945 132.812H114.883C114.482 133.318 114.068 133.669 113.641 133.867C113.219 134.06 112.667 134.156 111.984 134.156C111.146 134.156 110.484 133.917 110 133.438C109.521 132.958 109.281 132.276 109.281 131.391C109.281 130.464 109.604 129.781 110.25 129.344C110.901 128.901 111.88 128.656 113.188 128.609L114.703 128.562V128.18C114.703 127.294 114.25 126.852 113.344 126.852C112.646 126.852 111.826 127.062 110.883 127.484L110.094 125.875C111.099 125.349 112.214 125.086 113.438 125.086C114.609 125.086 115.508 125.341 116.133 125.852C116.758 126.362 117.07 127.138 117.07 128.18V134H115.406ZM114.703 129.953L113.781 129.984C113.089 130.005 112.573 130.13 112.234 130.359C111.896 130.589 111.727 130.938 111.727 131.406C111.727 132.078 112.112 132.414 112.883 132.414C113.435 132.414 113.875 132.255 114.203 131.938C114.536 131.62 114.703 131.198 114.703 130.672V129.953ZM123.211 132.258C123.628 132.258 124.128 132.167 124.711 131.984V133.758C124.117 134.023 123.388 134.156 122.523 134.156C121.57 134.156 120.875 133.917 120.438 133.438C120.005 132.953 119.789 132.229 119.789 131.266V127.055H118.648V126.047L119.961 125.25L120.648 123.406H122.172V125.266H124.617V127.055H122.172V131.266C122.172 131.604 122.266 131.854 122.453 132.016C122.646 132.177 122.898 132.258 123.211 132.258ZM126.383 123.008C126.383 122.232 126.815 121.844 127.68 121.844C128.544 121.844 128.977 122.232 128.977 123.008C128.977 123.378 128.867 123.667 128.648 123.875C128.435 124.078 128.112 124.18 127.68 124.18C126.815 124.18 126.383 123.789 126.383 123.008ZM128.867 134H126.484V125.266H128.867V134ZM133.273 129.617C133.273 130.482 133.414 131.135 133.695 131.578C133.982 132.021 134.445 132.242 135.086 132.242C135.721 132.242 136.177 132.023 136.453 131.586C136.734 131.143 136.875 130.487 136.875 129.617C136.875 128.753 136.734 128.104 136.453 127.672C136.172 127.24 135.711 127.023 135.07 127.023C134.435 127.023 133.977 127.24 133.695 127.672C133.414 128.099 133.273 128.747 133.273 129.617ZM139.312 129.617C139.312 131.039 138.938 132.151 138.188 132.953C137.438 133.755 136.393 134.156 135.055 134.156C134.216 134.156 133.477 133.974 132.836 133.609C132.195 133.24 131.703 132.711 131.359 132.023C131.016 131.336 130.844 130.534 130.844 129.617C130.844 128.19 131.216 127.081 131.961 126.289C132.706 125.497 133.753 125.102 135.102 125.102C135.94 125.102 136.68 125.284 137.32 125.648C137.961 126.013 138.453 126.536 138.797 127.219C139.141 127.901 139.312 128.701 139.312 129.617ZM149.344 134H146.961V128.898C146.961 128.268 146.849 127.797 146.625 127.484C146.401 127.167 146.044 127.008 145.555 127.008C144.888 127.008 144.406 127.232 144.109 127.68C143.812 128.122 143.664 128.859 143.664 129.891V134H141.281V125.266H143.102L143.422 126.383H143.555C143.82 125.961 144.185 125.643 144.648 125.43C145.117 125.211 145.648 125.102 146.242 125.102C147.258 125.102 148.029 125.378 148.555 125.93C149.081 126.477 149.344 127.268 149.344 128.305V134Z" fill="#5EB7BC"/>
<g filter="url(#filter2_f_533_2224)">
<ellipse cx="287.5" cy="87.5" rx="21.5" ry="18.5" fill="#20FFFF" fill-opacity="0.3"/>
</g>
<g filter="url(#filter3_d_533_2224)">
<path d="M272.396 70C269.968 70 268 72.0314 268 74.5373V97.2239C268 99.7298 269.968 101 272.396 101H287.451L290.747 108L296.901 101H303.604C306.032 101 308 99.7298 308 97.2239V74.5373C308 72.0314 306.032 70 303.604 70H282.634C282.008 70 281.5 70.5079 281.5 71.1343C281.5 71.7608 282.008 72.2687 282.634 72.2687H303.604C304.818 72.2687 305.802 73.2844 305.802 74.5373V97.2239C305.802 98.4768 304.818 99 303.604 99H296.407L291.297 104.597L288.55 99H272.396C271.182 99 270.198 98.4768 270.198 97.2239V74.5373C270.198 73.2844 271.182 72.2687 272.396 72.2687H276.366C276.992 72.2687 277.5 71.7608 277.5 71.1343C277.5 70.5079 276.992 70 276.366 70H272.396Z" fill="#83F8FF"/>
</g>
<path d="M250.211 124.43C249.299 124.43 248.594 124.773 248.094 125.461C247.594 126.143 247.344 127.096 247.344 128.32C247.344 130.867 248.299 132.141 250.211 132.141C251.013 132.141 251.984 131.94 253.125 131.539V133.57C252.188 133.961 251.141 134.156 249.984 134.156C248.323 134.156 247.052 133.654 246.172 132.648C245.292 131.638 244.852 130.19 244.852 128.305C244.852 127.117 245.068 126.078 245.5 125.188C245.932 124.292 246.552 123.607 247.359 123.133C248.172 122.654 249.122 122.414 250.211 122.414C251.32 122.414 252.435 122.682 253.555 123.219L252.773 125.188C252.346 124.984 251.917 124.807 251.484 124.656C251.052 124.505 250.628 124.43 250.211 124.43ZM257.273 129.617C257.273 130.482 257.414 131.135 257.695 131.578C257.982 132.021 258.445 132.242 259.086 132.242C259.721 132.242 260.177 132.023 260.453 131.586C260.734 131.143 260.875 130.487 260.875 129.617C260.875 128.753 260.734 128.104 260.453 127.672C260.172 127.24 259.711 127.023 259.07 127.023C258.435 127.023 257.977 127.24 257.695 127.672C257.414 128.099 257.273 128.747 257.273 129.617ZM263.312 129.617C263.312 131.039 262.938 132.151 262.188 132.953C261.438 133.755 260.393 134.156 259.055 134.156C258.216 134.156 257.477 133.974 256.836 133.609C256.195 133.24 255.703 132.711 255.359 132.023C255.016 131.336 254.844 130.534 254.844 129.617C254.844 128.19 255.216 127.081 255.961 126.289C256.706 125.497 257.753 125.102 259.102 125.102C259.94 125.102 260.68 125.284 261.32 125.648C261.961 126.013 262.453 126.536 262.797 127.219C263.141 127.901 263.312 128.701 263.312 129.617ZM273.344 134H270.961V128.898C270.961 128.268 270.849 127.797 270.625 127.484C270.401 127.167 270.044 127.008 269.555 127.008C268.888 127.008 268.406 127.232 268.109 127.68C267.812 128.122 267.664 128.859 267.664 129.891V134H265.281V125.266H267.102L267.422 126.383H267.555C267.82 125.961 268.185 125.643 268.648 125.43C269.117 125.211 269.648 125.102 270.242 125.102C271.258 125.102 272.029 125.378 272.555 125.93C273.081 126.477 273.344 127.268 273.344 128.305V134ZM279.477 132.258C279.893 132.258 280.393 132.167 280.977 131.984V133.758C280.383 134.023 279.654 134.156 278.789 134.156C277.836 134.156 277.141 133.917 276.703 133.438C276.271 132.953 276.055 132.229 276.055 131.266V127.055H274.914V126.047L276.227 125.25L276.914 123.406H278.438V125.266H280.883V127.055H278.438V131.266C278.438 131.604 278.531 131.854 278.719 132.016C278.911 132.177 279.164 132.258 279.477 132.258ZM286.367 126.797C285.862 126.797 285.466 126.958 285.18 127.281C284.893 127.599 284.729 128.052 284.688 128.641H288.031C288.021 128.052 287.867 127.599 287.57 127.281C287.273 126.958 286.872 126.797 286.367 126.797ZM286.703 134.156C285.297 134.156 284.198 133.768 283.406 132.992C282.615 132.216 282.219 131.117 282.219 129.695C282.219 128.232 282.583 127.102 283.312 126.305C284.047 125.503 285.06 125.102 286.352 125.102C287.586 125.102 288.547 125.453 289.234 126.156C289.922 126.859 290.266 127.831 290.266 129.07V130.227H284.633C284.659 130.904 284.859 131.432 285.234 131.812C285.609 132.193 286.135 132.383 286.812 132.383C287.339 132.383 287.836 132.328 288.305 132.219C288.773 132.109 289.263 131.935 289.773 131.695V133.539C289.357 133.747 288.911 133.901 288.438 134C287.964 134.104 287.385 134.156 286.703 134.156ZM293.836 129.539L291.023 125.266H293.727L295.422 128.047L297.133 125.266H299.836L296.992 129.539L299.969 134H297.258L295.422 131.008L293.578 134H290.875L293.836 129.539ZM304.977 132.258C305.393 132.258 305.893 132.167 306.477 131.984V133.758C305.883 134.023 305.154 134.156 304.289 134.156C303.336 134.156 302.641 133.917 302.203 133.438C301.771 132.953 301.555 132.229 301.555 131.266V127.055H300.414V126.047L301.727 125.25L302.414 123.406H303.938V125.266H306.383V127.055H303.938V131.266C303.938 131.604 304.031 131.854 304.219 132.016C304.411 132.177 304.664 132.258 304.977 132.258ZM314.438 134L314.117 132.883H313.992C313.737 133.289 313.375 133.604 312.906 133.828C312.438 134.047 311.904 134.156 311.305 134.156C310.279 134.156 309.505 133.883 308.984 133.336C308.464 132.784 308.203 131.992 308.203 130.961V125.266H310.586V130.367C310.586 130.997 310.698 131.471 310.922 131.789C311.146 132.102 311.503 132.258 311.992 132.258C312.659 132.258 313.141 132.036 313.438 131.594C313.734 131.146 313.883 130.406 313.883 129.375V125.266H316.266V134H314.438ZM324.312 134L323.852 132.812H323.789C323.388 133.318 322.974 133.669 322.547 133.867C322.125 134.06 321.573 134.156 320.891 134.156C320.052 134.156 319.391 133.917 318.906 133.438C318.427 132.958 318.188 132.276 318.188 131.391C318.188 130.464 318.51 129.781 319.156 129.344C319.807 128.901 320.786 128.656 322.094 128.609L323.609 128.562V128.18C323.609 127.294 323.156 126.852 322.25 126.852C321.552 126.852 320.732 127.062 319.789 127.484L319 125.875C320.005 125.349 321.12 125.086 322.344 125.086C323.516 125.086 324.414 125.341 325.039 125.852C325.664 126.362 325.977 127.138 325.977 128.18V134H324.312ZM323.609 129.953L322.688 129.984C321.995 130.005 321.479 130.13 321.141 130.359C320.802 130.589 320.633 130.938 320.633 131.406C320.633 132.078 321.018 132.414 321.789 132.414C322.341 132.414 322.781 132.255 323.109 131.938C323.443 131.62 323.609 131.198 323.609 130.672V129.953ZM330.82 134H328.438V121.844H330.82V134ZM264.383 156H259.188V154.625L260.578 153.984V146.594L259.188 145.953V144.578H264.383V145.953L262.992 146.594V153.984L264.383 154.625V156ZM274.219 156H271.836V150.898C271.836 150.268 271.724 149.797 271.5 149.484C271.276 149.167 270.919 149.008 270.43 149.008C269.763 149.008 269.281 149.232 268.984 149.68C268.688 150.122 268.539 150.859 268.539 151.891V156H266.156V147.266H267.977L268.297 148.383H268.43C268.695 147.961 269.06 147.643 269.523 147.43C269.992 147.211 270.523 147.102 271.117 147.102C272.133 147.102 272.904 147.378 273.43 147.93C273.956 148.477 274.219 149.268 274.219 150.305V156ZM280.289 154.289C280.893 154.289 281.336 154.117 281.617 153.773C281.898 153.424 282.052 152.818 282.078 151.953V151.664C282.078 150.727 281.932 150.055 281.641 149.648C281.354 149.242 280.891 149.039 280.25 149.039C279.13 149.039 278.57 149.919 278.57 151.68C278.57 152.555 278.708 153.208 278.984 153.641C279.266 154.073 279.701 154.289 280.289 154.289ZM279.438 156.156C278.406 156.156 277.599 155.76 277.016 154.969C276.432 154.172 276.141 153.065 276.141 151.648C276.141 150.221 276.438 149.107 277.031 148.305C277.63 147.503 278.448 147.102 279.484 147.102C280.036 147.102 280.518 147.206 280.93 147.414C281.341 147.622 281.703 147.945 282.016 148.383H282.078L282.289 147.266H284.305V159.844H281.914V156.18C281.914 155.862 281.948 155.424 282.016 154.867H281.914C281.659 155.289 281.32 155.609 280.898 155.828C280.477 156.047 279.99 156.156 279.438 156.156ZM292.984 156L292.664 154.883H292.539C292.284 155.289 291.922 155.604 291.453 155.828C290.984 156.047 290.451 156.156 289.852 156.156C288.826 156.156 288.052 155.883 287.531 155.336C287.01 154.784 286.75 153.992 286.75 152.961V147.266H289.133V152.367C289.133 152.997 289.245 153.471 289.469 153.789C289.693 154.102 290.049 154.258 290.539 154.258C291.206 154.258 291.688 154.036 291.984 153.594C292.281 153.146 292.43 152.406 292.43 151.375V147.266H294.812V156H292.984ZM297.211 145.008C297.211 144.232 297.643 143.844 298.508 143.844C299.372 143.844 299.805 144.232 299.805 145.008C299.805 145.378 299.695 145.667 299.477 145.875C299.263 146.078 298.94 146.18 298.508 146.18C297.643 146.18 297.211 145.789 297.211 145.008ZM299.695 156H297.312V147.266H299.695V156ZM307.078 147.102C307.401 147.102 307.669 147.125 307.883 147.172L307.703 149.406C307.51 149.354 307.276 149.328 307 149.328C306.24 149.328 305.646 149.523 305.219 149.914C304.797 150.305 304.586 150.852 304.586 151.555V156H302.203V147.266H304.008L304.359 148.734H304.477C304.747 148.245 305.112 147.852 305.57 147.555C306.034 147.253 306.536 147.102 307.078 147.102ZM308.219 147.266H310.828L312.477 152.18C312.617 152.607 312.714 153.112 312.766 153.695H312.812C312.87 153.159 312.982 152.654 313.148 152.18L314.766 147.266H317.32L313.625 157.117C313.286 158.029 312.802 158.711 312.172 159.164C311.547 159.617 310.815 159.844 309.977 159.844C309.565 159.844 309.161 159.799 308.766 159.711V157.82C309.052 157.888 309.365 157.922 309.703 157.922C310.125 157.922 310.492 157.792 310.805 157.531C311.122 157.276 311.37 156.888 311.547 156.367L311.688 155.938L308.219 147.266Z" fill="#5EB7BC"/>
<g filter="url(#filter4_f_533_2224)">
<ellipse cx="648" cy="89" rx="14" ry="22" transform="rotate(-90 648 89)" fill="#20FFFF" fill-opacity="0.3"/>
</g>
<g filter="url(#filter5_d_533_2224)">
<path d="M626 77C626 75.8954 626.895 75 628 75H668C669.105 75 670 75.8954 670 77V101C670 102.105 669.105 103 668 103H637C636.448 103 636 102.552 636 102C636 101.448 636.448 101 637 101H667C667.552 101 668 100.552 668 100V78C668 77.4477 667.552 77 667 77H629C628.448 77 628 77.4477 628 78V100C628 100.552 628.448 101 629 101H631C631.552 101 632 101.448 632 102C632 102.552 631.552 103 631 103H628C626.895 103 626 102.105 626 101V77Z" fill="#83F8FF"/>
</g>
<g filter="url(#filter6_d_533_2224)">
<path fill-rule="evenodd" clip-rule="evenodd" d="M632 83C632 82.4477 632.448 82 633 82H645C645.552 82 646 82.4477 646 83V83.4104L646.004 83.4143L646 83.4182V94.5859L646.004 94.5898L646 94.5938V95C646 95.5523 645.552 96 645 96H644.594L644.59 96.004L644.586 96H633.418L633.414 96.004L633.41 96H633C632.448 96 632 95.5523 632 95V83ZM635.414 84H642.59L639.002 87.5878L635.414 84ZM634 85.4143L637.588 89.002L634 92.5898V85.4143ZM639.002 90.4163L635.418 94H642.586L639.002 90.4163ZM644 85.4182L640.416 89.002L644 92.5859V85.4182Z" fill="#83F8FF"/>
<path d="M652 82H664V84H652V82Z" fill="#83F8FF"/>
<path d="M664 88H652V90H664V88Z" fill="#83F8FF"/>
<path d="M652 94H664V96H652V94Z" fill="#83F8FF"/>
<path d="M650 84C650.552 84 651 83.5523 651 83C651 82.4477 650.552 82 650 82C649.448 82 649 82.4477 649 83C649 83.5523 649.448 84 650 84Z" fill="#83F8FF"/>
<path d="M651 89C651 89.5523 650.552 90 650 90C649.448 90 649 89.5523 649 89C649 88.4477 649.448 88 650 88C650.552 88 651 88.4477 651 89Z" fill="#83F8FF"/>
<path d="M650 96C650.552 96 651 95.5523 651 95C651 94.4477 650.552 94 650 94C649.448 94 649 94.4477 649 95C649 95.5523 649.448 96 650 96Z" fill="#83F8FF"/>
</g>
<path d="M618.023 134H615.266L613.719 128C613.661 127.786 613.562 127.346 613.422 126.68C613.286 126.008 613.208 125.557 613.188 125.328C613.156 125.609 613.078 126.062 612.953 126.688C612.828 127.307 612.732 127.75 612.664 128.016L611.125 134H608.375L605.461 122.578H607.844L609.305 128.812C609.56 129.964 609.745 130.961 609.859 131.805C609.891 131.508 609.961 131.049 610.07 130.43C610.185 129.805 610.292 129.32 610.391 128.977L612.055 122.578H614.344L616.008 128.977C616.081 129.263 616.172 129.701 616.281 130.289C616.391 130.878 616.474 131.383 616.531 131.805C616.583 131.398 616.667 130.893 616.781 130.289C616.896 129.68 617 129.188 617.094 128.812L618.547 122.578H620.93L618.023 134ZM622.078 123.008C622.078 122.232 622.51 121.844 623.375 121.844C624.24 121.844 624.672 122.232 624.672 123.008C624.672 123.378 624.562 123.667 624.344 123.875C624.13 124.078 623.807 124.18 623.375 124.18C622.51 124.18 622.078 123.789 622.078 123.008ZM624.562 134H622.18V125.266H624.562V134ZM631.945 125.102C632.268 125.102 632.536 125.125 632.75 125.172L632.57 127.406C632.378 127.354 632.143 127.328 631.867 127.328C631.107 127.328 630.513 127.523 630.086 127.914C629.664 128.305 629.453 128.852 629.453 129.555V134H627.07V125.266H628.875L629.227 126.734H629.344C629.615 126.245 629.979 125.852 630.438 125.555C630.901 125.253 631.404 125.102 631.945 125.102ZM637.797 126.797C637.292 126.797 636.896 126.958 636.609 127.281C636.323 127.599 636.159 128.052 636.117 128.641H639.461C639.451 128.052 639.297 127.599 639 127.281C638.703 126.958 638.302 126.797 637.797 126.797ZM638.133 134.156C636.727 134.156 635.628 133.768 634.836 132.992C634.044 132.216 633.648 131.117 633.648 129.695C633.648 128.232 634.013 127.102 634.742 126.305C635.477 125.503 636.49 125.102 637.781 125.102C639.016 125.102 639.977 125.453 640.664 126.156C641.352 126.859 641.695 127.831 641.695 129.07V130.227H636.062C636.089 130.904 636.289 131.432 636.664 131.812C637.039 132.193 637.565 132.383 638.242 132.383C638.768 132.383 639.266 132.328 639.734 132.219C640.203 132.109 640.693 131.935 641.203 131.695V133.539C640.786 133.747 640.341 133.901 639.867 134C639.393 134.104 638.815 134.156 638.133 134.156ZM648.461 127.055H646.398V134H644.016V127.055H642.703V125.906L644.016 125.266V124.625C644.016 123.63 644.26 122.904 644.75 122.445C645.24 121.987 646.023 121.758 647.102 121.758C647.924 121.758 648.656 121.88 649.297 122.125L648.688 123.875C648.208 123.724 647.766 123.648 647.359 123.648C647.021 123.648 646.776 123.75 646.625 123.953C646.474 124.151 646.398 124.406 646.398 124.719V125.266H648.461V127.055ZM654.711 125.102C655.034 125.102 655.302 125.125 655.516 125.172L655.336 127.406C655.143 127.354 654.909 127.328 654.633 127.328C653.872 127.328 653.279 127.523 652.852 127.914C652.43 128.305 652.219 128.852 652.219 129.555V134H649.836V125.266H651.641L651.992 126.734H652.109C652.38 126.245 652.745 125.852 653.203 125.555C653.667 125.253 654.169 125.102 654.711 125.102ZM662.492 134L662.031 132.812H661.969C661.568 133.318 661.154 133.669 660.727 133.867C660.305 134.06 659.753 134.156 659.07 134.156C658.232 134.156 657.57 133.917 657.086 133.438C656.607 132.958 656.367 132.276 656.367 131.391C656.367 130.464 656.69 129.781 657.336 129.344C657.987 128.901 658.966 128.656 660.273 128.609L661.789 128.562V128.18C661.789 127.294 661.336 126.852 660.43 126.852C659.732 126.852 658.911 127.062 657.969 127.484L657.18 125.875C658.185 125.349 659.299 125.086 660.523 125.086C661.695 125.086 662.594 125.341 663.219 125.852C663.844 126.362 664.156 127.138 664.156 128.18V134H662.492ZM661.789 129.953L660.867 129.984C660.174 130.005 659.659 130.13 659.32 130.359C658.982 130.589 658.812 130.938 658.812 131.406C658.812 132.078 659.198 132.414 659.969 132.414C660.521 132.414 660.961 132.255 661.289 131.938C661.622 131.62 661.789 131.198 661.789 130.672V129.953ZM674.438 134H672.055V128.898C672.055 128.268 671.948 127.797 671.734 127.484C671.526 127.167 671.195 127.008 670.742 127.008C670.133 127.008 669.69 127.232 669.414 127.68C669.138 128.128 669 128.865 669 129.891V134H666.617V125.266H668.438L668.758 126.383H668.891C669.125 125.982 669.464 125.669 669.906 125.445C670.349 125.216 670.857 125.102 671.43 125.102C672.737 125.102 673.622 125.529 674.086 126.383H674.297C674.531 125.977 674.875 125.661 675.328 125.438C675.786 125.214 676.302 125.102 676.875 125.102C677.865 125.102 678.612 125.357 679.117 125.867C679.628 126.372 679.883 127.185 679.883 128.305V134H677.492V128.898C677.492 128.268 677.385 127.797 677.172 127.484C676.964 127.167 676.633 127.008 676.18 127.008C675.596 127.008 675.159 127.216 674.867 127.633C674.581 128.049 674.438 128.711 674.438 129.617V134ZM685.953 126.797C685.448 126.797 685.052 126.958 684.766 127.281C684.479 127.599 684.315 128.052 684.273 128.641H687.617C687.607 128.052 687.453 127.599 687.156 127.281C686.859 126.958 686.458 126.797 685.953 126.797ZM686.289 134.156C684.883 134.156 683.784 133.768 682.992 132.992C682.201 132.216 681.805 131.117 681.805 129.695C681.805 128.232 682.169 127.102 682.898 126.305C683.633 125.503 684.646 125.102 685.938 125.102C687.172 125.102 688.133 125.453 688.82 126.156C689.508 126.859 689.852 127.831 689.852 129.07V130.227H684.219C684.245 130.904 684.445 131.432 684.82 131.812C685.195 132.193 685.721 132.383 686.398 132.383C686.924 132.383 687.422 132.328 687.891 132.219C688.359 132.109 688.849 131.935 689.359 131.695V133.539C688.943 133.747 688.497 133.901 688.023 134C687.549 134.104 686.971 134.156 686.289 134.156Z" fill="#5EB7BC"/>
<g filter="url(#filter7_f_533_2224)">
<ellipse cx="468" cy="84" rx="14" ry="17" fill="#20FFFF" fill-opacity="0.3"/>
</g>
<g filter="url(#filter8_d_533_2224)">
<path fill-rule="evenodd" clip-rule="evenodd" d="M472.105 100.018C472.057 100.485 472.017 100.876 472 101H464C463.983 100.876 463.943 100.485 463.895 100.018C463.857 99.6432 463.813 99.2187 463.772 98.8431C463.714 98.3026 463.223 97.9456 462.687 98.0372C462.134 98.1317 461.771 98.6622 461.848 99.2174C462 100.305 462 101 462 101C460.895 101 460 101.895 460 103V105C460 106.105 460.895 107 462 107V109C462 110.105 462.895 111 464 111H472C473.105 111 474 110.105 474 109V107C475.105 107 476 106.105 476 105V103C476 101.895 475.105 101 474 101C474 101 474 96.5 476.5 92.5C477.166 91.4343 477.868 90.598 478.538 89.7983C480.386 87.5965 482 85.672 482 80C482 72.268 475.732 67 468 67C460.268 67 454 72.268 454 80C454 85.672 455.614 87.5965 457.462 89.7983C458.132 90.598 458.834 91.4343 459.5 92.5C459.727 92.8635 459.934 93.2311 460.121 93.5991C460.372 94.0896 460.955 94.3252 461.461 94.1088C461.97 93.8912 462.209 93.2994 461.961 92.8041C461.733 92.3489 461.479 91.8924 461.196 91.44C460.456 90.2555 459.679 89.3296 459.018 88.5414L458.994 88.5129C458.058 87.3979 457.377 86.5698 456.873 85.4058C456.376 84.2569 456 82.6445 456 80C456 73.563 461.172 69 468 69C474.828 69 480 73.563 480 80C480 82.6445 479.624 84.2569 479.127 85.4058C478.623 86.5698 477.942 87.3979 477.006 88.5129L476.982 88.5414C476.321 89.3296 475.544 90.2555 474.804 91.44C473.382 93.7149 472.69 96.0956 472.348 97.8723C472.299 98.1314 472.19 99.1936 472.105 100.018ZM464 108C464 107.448 464.448 107 465 107H471C471.552 107 472 107.448 472 108C472 108.552 471.552 109 471 109H465C464.448 109 464 108.552 464 108ZM474 104C474 104.552 473.552 105 473 105H463C462.448 105 462 104.552 462 104C462 103.448 462.448 103 463 103H473C473.552 103 474 103.448 474 104Z" fill="#83F8FF"/>
</g>
<g filter="url(#filter9_d_533_2224)">
<path d="M472.931 80.5445C472.534 77.9652 470.477 76 468 76C465.239 76 463 78.4421 463 81.4545C463 84.467 467 88 468 88C468.56 88 470.06 86.8926 471.272 85.3892C471.585 85.0015 471.455 84.437 471.025 84.1863C470.62 83.9503 470.103 84.0853 469.816 84.456C469.119 85.3568 468.314 86 468 86C467.4 86 465 83.6447 465 81.6364C465 79.6281 466.343 78 468 78C469.345 78 470.484 79.0736 470.864 80.5526C471.011 81.1221 471.505 81.5905 472.091 81.5372C472.606 81.4904 473.009 81.0557 472.931 80.5445Z" fill="#83F8FF"/>
</g>
<path d="M440.109 134H437.352L435.805 128C435.747 127.786 435.648 127.346 435.508 126.68C435.372 126.008 435.294 125.557 435.273 125.328C435.242 125.609 435.164 126.062 435.039 126.688C434.914 127.307 434.818 127.75 434.75 128.016L433.211 134H430.461L427.547 122.578H429.93L431.391 128.812C431.646 129.964 431.831 130.961 431.945 131.805C431.977 131.508 432.047 131.049 432.156 130.43C432.271 129.805 432.378 129.32 432.477 128.977L434.141 122.578H436.43L438.094 128.977C438.167 129.263 438.258 129.701 438.367 130.289C438.477 130.878 438.56 131.383 438.617 131.805C438.669 131.398 438.753 130.893 438.867 130.289C438.982 129.68 439.086 129.188 439.18 128.812L440.633 122.578H443.016L440.109 134ZM446.008 129.617C446.008 130.482 446.148 131.135 446.43 131.578C446.716 132.021 447.18 132.242 447.82 132.242C448.456 132.242 448.911 132.023 449.188 131.586C449.469 131.143 449.609 130.487 449.609 129.617C449.609 128.753 449.469 128.104 449.188 127.672C448.906 127.24 448.445 127.023 447.805 127.023C447.169 127.023 446.711 127.24 446.43 127.672C446.148 128.099 446.008 128.747 446.008 129.617ZM452.047 129.617C452.047 131.039 451.672 132.151 450.922 132.953C450.172 133.755 449.128 134.156 447.789 134.156C446.951 134.156 446.211 133.974 445.57 133.609C444.93 133.24 444.438 132.711 444.094 132.023C443.75 131.336 443.578 130.534 443.578 129.617C443.578 128.19 443.951 127.081 444.695 126.289C445.44 125.497 446.487 125.102 447.836 125.102C448.674 125.102 449.414 125.284 450.055 125.648C450.695 126.013 451.188 126.536 451.531 127.219C451.875 127.901 452.047 128.701 452.047 129.617ZM458.891 125.102C459.214 125.102 459.482 125.125 459.695 125.172L459.516 127.406C459.323 127.354 459.089 127.328 458.812 127.328C458.052 127.328 457.458 127.523 457.031 127.914C456.609 128.305 456.398 128.852 456.398 129.555V134H454.016V125.266H455.82L456.172 126.734H456.289C456.56 126.245 456.924 125.852 457.383 125.555C457.846 125.253 458.349 125.102 458.891 125.102ZM463.57 129.25L464.609 127.922L467.055 125.266H469.742L466.273 129.055L469.953 134H467.203L464.688 130.461L463.664 131.281V134H461.281V121.844H463.664V127.266L463.539 129.25H463.57ZM477.297 131.406C477.297 132.302 476.984 132.984 476.359 133.453C475.74 133.922 474.81 134.156 473.57 134.156C472.935 134.156 472.393 134.112 471.945 134.023C471.497 133.94 471.078 133.815 470.688 133.648V131.68C471.13 131.888 471.628 132.062 472.18 132.203C472.737 132.344 473.227 132.414 473.648 132.414C474.513 132.414 474.945 132.164 474.945 131.664C474.945 131.477 474.888 131.326 474.773 131.211C474.659 131.091 474.461 130.958 474.18 130.812C473.898 130.661 473.523 130.487 473.055 130.289C472.383 130.008 471.888 129.747 471.57 129.508C471.258 129.268 471.029 128.995 470.883 128.688C470.742 128.375 470.672 127.992 470.672 127.539C470.672 126.763 470.971 126.164 471.57 125.742C472.174 125.315 473.029 125.102 474.133 125.102C475.185 125.102 476.208 125.331 477.203 125.789L476.484 127.508C476.047 127.32 475.638 127.167 475.258 127.047C474.878 126.927 474.49 126.867 474.094 126.867C473.391 126.867 473.039 127.057 473.039 127.438C473.039 127.651 473.151 127.836 473.375 127.992C473.604 128.148 474.102 128.38 474.867 128.688C475.549 128.964 476.049 129.221 476.367 129.461C476.685 129.701 476.919 129.977 477.07 130.289C477.221 130.602 477.297 130.974 477.297 131.406ZM487.219 134H484.836V128.898C484.836 127.638 484.367 127.008 483.43 127.008C482.763 127.008 482.281 127.234 481.984 127.688C481.688 128.141 481.539 128.875 481.539 129.891V134H479.156V121.844H481.539V124.32C481.539 124.513 481.521 124.966 481.484 125.68L481.43 126.383H481.555C482.086 125.529 482.93 125.102 484.086 125.102C485.112 125.102 485.891 125.378 486.422 125.93C486.953 126.482 487.219 127.273 487.219 128.305V134ZM491.57 129.617C491.57 130.482 491.711 131.135 491.992 131.578C492.279 132.021 492.742 132.242 493.383 132.242C494.018 132.242 494.474 132.023 494.75 131.586C495.031 131.143 495.172 130.487 495.172 129.617C495.172 128.753 495.031 128.104 494.75 127.672C494.469 127.24 494.008 127.023 493.367 127.023C492.732 127.023 492.273 127.24 491.992 127.672C491.711 128.099 491.57 128.747 491.57 129.617ZM497.609 129.617C497.609 131.039 497.234 132.151 496.484 132.953C495.734 133.755 494.69 134.156 493.352 134.156C492.513 134.156 491.773 133.974 491.133 133.609C490.492 133.24 490 132.711 489.656 132.023C489.312 131.336 489.141 130.534 489.141 129.617C489.141 128.19 489.513 127.081 490.258 126.289C491.003 125.497 492.049 125.102 493.398 125.102C494.237 125.102 494.977 125.284 495.617 125.648C496.258 126.013 496.75 126.536 497.094 127.219C497.438 127.901 497.609 128.701 497.609 129.617ZM504.375 134.156C503.349 134.156 502.544 133.784 501.961 133.039H501.836C501.919 133.768 501.961 134.19 501.961 134.305V137.844H499.578V125.266H501.516L501.852 126.398H501.961C502.518 125.534 503.344 125.102 504.438 125.102C505.469 125.102 506.276 125.5 506.859 126.297C507.443 127.094 507.734 128.201 507.734 129.617C507.734 130.549 507.596 131.359 507.32 132.047C507.049 132.734 506.661 133.258 506.156 133.617C505.651 133.977 505.057 134.156 504.375 134.156ZM503.672 127.008C503.083 127.008 502.654 127.19 502.383 127.555C502.112 127.914 501.971 128.51 501.961 129.344V129.602C501.961 130.539 502.099 131.211 502.375 131.617C502.656 132.023 503.099 132.227 503.703 132.227C504.771 132.227 505.305 131.346 505.305 129.586C505.305 128.727 505.172 128.083 504.906 127.656C504.646 127.224 504.234 127.008 503.672 127.008Z" fill="#5EB7BC"/>
<g filter="url(#filter10_f_533_2224)">
<ellipse cx="828" cy="89" rx="14" ry="22" fill="#20FFFF" fill-opacity="0.3"/>
</g>
<g filter="url(#filter11_d_533_2224)">
<path fill-rule="evenodd" clip-rule="evenodd" d="M816.418 80.4722L827 70.6556V82.1707C825.835 82.5825 825 83.6938 825 85C825 86.6569 826.343 88 828 88C829.657 88 831 86.6569 831 85C831 83.6938 830.165 82.5825 829 82.1707V70.6556L839.582 80.4722L831.159 99H824.841L822.525 93.9063C822.297 93.4051 821.707 93.1824 821.205 93.408C820.7 93.635 820.475 94.2297 820.705 94.734L822.644 99H822C820.895 99 820 99.8954 820 101V109C820 110.105 820.895 111 822 111H834C835.105 111 836 110.105 836 109V101C836 99.8954 835.105 99 834 99H833.356L842 79.9868L828 67L814 79.9868L818.07 88.9389C818.305 89.4553 818.922 89.6732 819.429 89.4188C819.909 89.1778 820.113 88.6003 819.891 88.1111L816.418 80.4722ZM822 101V109H834V101H822ZM829 85C829 85.5523 828.552 86 828 86C827.448 86 827 85.5523 827 85C827 84.4477 827.448 84 828 84C828.552 84 829 84.4477 829 85Z" fill="#83F8FF"/>
</g>
<path d="M802.375 134L799.625 125.039H799.555C799.654 126.862 799.703 128.078 799.703 128.688V134H797.539V122.578H800.836L803.539 131.312H803.586L806.453 122.578H809.75V134H807.492V128.594C807.492 128.339 807.495 128.044 807.5 127.711C807.51 127.378 807.547 126.492 807.609 125.055H807.539L804.594 134H802.375ZM814.344 129.617C814.344 130.482 814.484 131.135 814.766 131.578C815.052 132.021 815.516 132.242 816.156 132.242C816.792 132.242 817.247 132.023 817.523 131.586C817.805 131.143 817.945 130.487 817.945 129.617C817.945 128.753 817.805 128.104 817.523 127.672C817.242 127.24 816.781 127.023 816.141 127.023C815.505 127.023 815.047 127.24 814.766 127.672C814.484 128.099 814.344 128.747 814.344 129.617ZM820.383 129.617C820.383 131.039 820.008 132.151 819.258 132.953C818.508 133.755 817.464 134.156 816.125 134.156C815.286 134.156 814.547 133.974 813.906 133.609C813.266 133.24 812.773 132.711 812.43 132.023C812.086 131.336 811.914 130.534 811.914 129.617C811.914 128.19 812.286 127.081 813.031 126.289C813.776 125.497 814.823 125.102 816.172 125.102C817.01 125.102 817.75 125.284 818.391 125.648C819.031 126.013 819.523 126.536 819.867 127.219C820.211 127.901 820.383 128.701 820.383 129.617ZM825.898 134.156C823.18 134.156 821.82 132.664 821.82 129.68C821.82 128.195 822.19 127.062 822.93 126.281C823.669 125.495 824.729 125.102 826.109 125.102C827.12 125.102 828.026 125.299 828.828 125.695L828.125 127.539C827.75 127.388 827.401 127.266 827.078 127.172C826.755 127.073 826.432 127.023 826.109 127.023C824.87 127.023 824.25 127.904 824.25 129.664C824.25 131.372 824.87 132.227 826.109 132.227C826.568 132.227 826.992 132.167 827.383 132.047C827.773 131.922 828.164 131.729 828.555 131.469V133.508C828.169 133.753 827.779 133.922 827.383 134.016C826.992 134.109 826.497 134.156 825.898 134.156ZM832.875 129.25L833.914 127.922L836.359 125.266H839.047L835.578 129.055L839.258 134H836.508L833.992 130.461L832.969 131.281V134H830.586V121.844H832.969V127.266L832.844 129.25H832.875ZM846.695 134L846.375 132.883H846.25C845.995 133.289 845.633 133.604 845.164 133.828C844.695 134.047 844.161 134.156 843.562 134.156C842.536 134.156 841.763 133.883 841.242 133.336C840.721 132.784 840.461 131.992 840.461 130.961V125.266H842.844V130.367C842.844 130.997 842.956 131.471 843.18 131.789C843.404 132.102 843.76 132.258 844.25 132.258C844.917 132.258 845.398 132.036 845.695 131.594C845.992 131.146 846.141 130.406 846.141 129.375V125.266H848.523V134H846.695ZM855.82 134.156C854.794 134.156 853.99 133.784 853.406 133.039H853.281C853.365 133.768 853.406 134.19 853.406 134.305V137.844H851.023V125.266H852.961L853.297 126.398H853.406C853.964 125.534 854.789 125.102 855.883 125.102C856.914 125.102 857.721 125.5 858.305 126.297C858.888 127.094 859.18 128.201 859.18 129.617C859.18 130.549 859.042 131.359 858.766 132.047C858.495 132.734 858.107 133.258 857.602 133.617C857.096 133.977 856.503 134.156 855.82 134.156ZM855.117 127.008C854.529 127.008 854.099 127.19 853.828 127.555C853.557 127.914 853.417 128.51 853.406 129.344V129.602C853.406 130.539 853.544 131.211 853.82 131.617C854.102 132.023 854.544 132.227 855.148 132.227C856.216 132.227 856.75 131.346 856.75 129.586C856.75 128.727 856.617 128.083 856.352 127.656C856.091 127.224 855.68 127.008 855.117 127.008Z" fill="#5EB7BC"/>
<path fill-rule="evenodd" clip-rule="evenodd" d="M380.388 61.7317C385.413 73.8642 388 86.8678 388 100L387.995 100C387.995 110.506 390.065 120.91 394.085 130.616C398.106 140.323 403.999 149.143 411.428 156.572C418.857 164.001 427.677 169.894 437.384 173.915C447.09 177.935 457.494 180.005 468 180.005C478.506 180.005 488.91 177.935 498.616 173.915C508.323 169.894 517.143 164.001 524.572 156.572C532.001 149.143 537.894 140.323 541.915 130.616C545.935 120.91 548.005 110.506 548.005 100L548 100C548 86.8678 550.587 73.8642 555.612 61.7317C560.638 49.5991 568.003 38.5752 577.289 29.2893C586.575 20.0035 597.599 12.6375 609.732 7.61205C621.864 2.58658 634.868 0 648 0C661.132 0 674.136 2.58658 686.268 7.61205C698.401 12.6375 709.425 20.0035 718.711 29.2893C727.997 38.5752 735.362 49.5991 740.388 61.7317C745.413 73.8642 748 86.8678 748 100L747.995 100C747.995 110.506 750.065 120.91 754.085 130.616C758.106 140.323 763.999 149.143 771.428 156.572C778.857 164.001 787.677 169.894 797.384 173.915C807.09 177.935 817.494 180.005 828 180.005C838.506 180.005 848.91 177.935 858.616 173.915C868.323 169.894 877.143 164.001 884.572 156.572C892.001 149.143 897.894 140.323 901.915 130.616C904.127 125.275 905.748 119.724 906.759 114.06C902.639 110.761 900 105.689 900 100C900 90.0589 908.059 82 918 82C927.941 82 936 90.0589 936 100C936 106.763 932.27 112.655 926.755 115.731C925.526 123.449 923.393 131.014 920.388 138.268C915.362 150.401 907.997 161.425 898.711 170.711C889.425 179.997 878.401 187.362 866.268 192.388C854.136 197.413 841.132 200 828 200C814.868 200 801.864 197.413 789.732 192.388C777.599 187.362 766.575 179.997 757.289 170.711C748.003 161.425 740.638 150.401 735.612 138.268C730.587 126.136 728 113.132 728 100L728.005 100C728.005 89.4937 725.935 79.0902 721.915 69.3836C717.894 59.677 712.001 50.8574 704.572 43.4283C697.143 35.9991 688.323 30.1061 678.616 26.0854C668.91 22.0648 658.506 19.9955 648 19.9955C637.494 19.9955 627.09 22.0648 617.384 26.0855C607.677 30.1061 598.857 35.9991 591.428 43.4283C583.999 50.8574 578.106 59.677 574.085 69.3836C570.065 79.0902 567.995 89.4937 567.995 100L568 100C568 113.132 565.413 126.136 560.388 138.268C555.362 150.401 547.997 161.425 538.711 170.711C529.425 179.997 518.401 187.362 506.268 192.388C494.136 197.413 481.132 200 468 200C454.868 200 441.864 197.413 429.732 192.388C417.599 187.362 406.575 179.997 397.289 170.711C388.003 161.425 380.638 150.401 375.612 138.268C370.587 126.136 368 113.132 368 100L368.005 100C368.005 89.4937 365.935 79.0902 361.915 69.3836C357.894 59.677 352.001 50.8574 344.572 43.4283C337.143 35.9991 328.323 30.1061 318.616 26.0854C308.91 22.0648 298.506 19.9955 288 19.9955C277.494 19.9955 267.09 22.0648 257.384 26.0855C247.677 30.1061 238.857 35.9991 231.428 43.4283C223.999 50.8574 218.106 59.677 214.085 69.3836C210.065 79.0902 207.995 89.4937 207.995 100L208 100C208 113.132 205.413 126.136 200.388 138.268C195.362 150.401 187.997 161.425 178.711 170.711C169.425 179.997 158.401 187.362 146.268 192.388C134.136 197.413 121.132 200 108 200C94.8678 200 81.8642 197.413 69.7317 192.388C57.5991 187.362 46.5752 179.997 37.2893 170.711C28.0035 161.425 20.6375 150.401 15.612 138.268C12.6074 131.014 10.4745 123.449 9.24509 115.731C3.73001 112.655 0 106.763 0 100C0 90.0589 8.05887 82 18 82C27.9411 82 36 90.0589 36 100C36 105.689 33.361 110.761 29.2405 114.06C30.2516 119.724 31.8732 125.275 34.0854 130.616C38.1061 140.323 43.9991 149.143 51.4282 156.572C58.8574 164.001 67.677 169.894 77.3836 173.915C87.0902 177.935 97.4937 180.005 108 180.005C118.506 180.005 128.91 177.935 138.616 173.915C148.323 169.894 157.143 164.001 164.572 156.572C172.001 149.143 177.894 140.323 181.915 130.616C185.935 120.91 188.005 110.506 188.005 100L188 100C188 86.8678 190.587 73.8642 195.612 61.7317C200.638 49.5991 208.003 38.5752 217.289 29.2893C226.575 20.0035 237.599 12.6375 249.732 7.61205C261.864 2.58658 274.868 0 288 0C301.132 0 314.136 2.58658 326.268 7.61205C338.401 12.6375 349.425 20.0035 358.711 29.2893C367.997 38.5752 375.362 49.5991 380.388 61.7317Z" fill="#032D52"/>
<circle cx="18" cy="100" r="6" fill="#5EB7BC"/>
<circle cx="918" cy="100" r="6" fill="#5EB7BC"/>
<defs>
<filter id="filter0_f_533_2224" x="86" y="37" width="44" height="60" filterUnits="userSpaceOnUse" color-interpolation-filters="sRGB">
<feFlood flood-opacity="0" result="BackgroundImageFix"/>
<feBlend mode="normal" in="SourceGraphic" in2="BackgroundImageFix" result="shape"/>
<feGaussianBlur stdDeviation="4" result="effect1_foregroundBlur_533_2224"/>
</filter>
<filter id="filter1_d_533_2224" x="87" y="42" width="44" height="55" filterUnits="userSpaceOnUse" color-interpolation-filters="sRGB">
<feFlood flood-opacity="0" result="BackgroundImageFix"/>
<feColorMatrix in="SourceAlpha" type="matrix" values="0 0 0 0 0 0 0 0 0 0 0 0 0 0 0 0 0 0 127 0" result="hardAlpha"/>
<feOffset dx="1" dy="2"/>
<feGaussianBlur stdDeviation="4"/>
<feComposite in2="hardAlpha" operator="out"/>
<feColorMatrix type="matrix" values="0 0 0 0 0.513726 0 0 0 0 0.972549 0 0 0 0 1 0 0 0 1 0"/>
<feBlend mode="normal" in2="BackgroundImageFix" result="effect1_dropShadow_533_2224"/>
<feBlend mode="normal" in="SourceGraphic" in2="effect1_dropShadow_533_2224" result="shape"/>
</filter>
<filter id="filter2_f_533_2224" x="258" y="61" width="59" height="53" filterUnits="userSpaceOnUse" color-interpolation-filters="sRGB">
<feFlood flood-opacity="0" result="BackgroundImageFix"/>
<feBlend mode="normal" in="SourceGraphic" in2="BackgroundImageFix" result="shape"/>
<feGaussianBlur stdDeviation="4" result="effect1_foregroundBlur_533_2224"/>
</filter>
<filter id="filter3_d_533_2224" x="261" y="64" width="56" height="54" filterUnits="userSpaceOnUse" color-interpolation-filters="sRGB">
<feFlood flood-opacity="0" result="BackgroundImageFix"/>
<feColorMatrix in="SourceAlpha" type="matrix" values="0 0 0 0 0 0 0 0 0 0 0 0 0 0 0 0 0 0 127 0" result="hardAlpha"/>
<feOffset dx="1" dy="2"/>
<feGaussianBlur stdDeviation="4"/>
<feComposite in2="hardAlpha" operator="out"/>
<feColorMatrix type="matrix" values="0 0 0 0 0.513726 0 0 0 0 0.972549 0 0 0 0 1 0 0 0 1 0"/>
<feBlend mode="normal" in2="BackgroundImageFix" result="effect1_dropShadow_533_2224"/>
<feBlend mode="normal" in="SourceGraphic" in2="effect1_dropShadow_533_2224" result="shape"/>
</filter>
<filter id="filter4_f_533_2224" x="618" y="67" width="60" height="44" filterUnits="userSpaceOnUse" color-interpolation-filters="sRGB">
<feFlood flood-opacity="0" result="BackgroundImageFix"/>
<feBlend mode="normal" in="SourceGraphic" in2="BackgroundImageFix" result="shape"/>
<feGaussianBlur stdDeviation="4" result="effect1_foregroundBlur_533_2224"/>
</filter>
<filter id="filter5_d_533_2224" x="619" y="69" width="60" height="44" filterUnits="userSpaceOnUse" color-interpolation-filters="sRGB">
<feFlood flood-opacity="0" result="BackgroundImageFix"/>
<feColorMatrix in="SourceAlpha" type="matrix" values="0 0 0 0 0 0 0 0 0 0 0 0 0 0 0 0 0 0 127 0" result="hardAlpha"/>
<feOffset dx="1" dy="2"/>
<feGaussianBlur stdDeviation="4"/>
<feComposite in2="hardAlpha" operator="out"/>
<feColorMatrix type="matrix" values="0 0 0 0 0.513726 0 0 0 0 0.972549 0 0 0 0 1 0 0 0 1 0"/>
<feBlend mode="normal" in2="BackgroundImageFix" result="effect1_dropShadow_533_2224"/>
<feBlend mode="normal" in="SourceGraphic" in2="effect1_dropShadow_533_2224" result="shape"/>
</filter>
<filter id="filter6_d_533_2224" x="625" y="76" width="48" height="30.0039" filterUnits="userSpaceOnUse" color-interpolation-filters="sRGB">
<feFlood flood-opacity="0" result="BackgroundImageFix"/>
<feColorMatrix in="SourceAlpha" type="matrix" values="0 0 0 0 0 0 0 0 0 0 0 0 0 0 0 0 0 0 127 0" result="hardAlpha"/>
<feOffset dx="1" dy="2"/>
<feGaussianBlur stdDeviation="4"/>
<feComposite in2="hardAlpha" operator="out"/>
<feColorMatrix type="matrix" values="0 0 0 0 0.513726 0 0 0 0 0.972549 0 0 0 0 1 0 0 0 1 0"/>
<feBlend mode="normal" in2="BackgroundImageFix" result="effect1_dropShadow_533_2224"/>
<feBlend mode="normal" in="SourceGraphic" in2="effect1_dropShadow_533_2224" result="shape"/>
</filter>
<filter id="filter7_f_533_2224" x="446" y="59" width="44" height="50" filterUnits="userSpaceOnUse" color-interpolation-filters="sRGB">
<feFlood flood-opacity="0" result="BackgroundImageFix"/>
<feBlend mode="normal" in="SourceGraphic" in2="BackgroundImageFix" result="shape"/>
<feGaussianBlur stdDeviation="4" result="effect1_foregroundBlur_533_2224"/>
</filter>
<filter id="filter8_d_533_2224" x="447" y="61" width="44" height="60" filterUnits="userSpaceOnUse" color-interpolation-filters="sRGB">
<feFlood flood-opacity="0" result="BackgroundImageFix"/>
<feColorMatrix in="SourceAlpha" type="matrix" values="0 0 0 0 0 0 0 0 0 0 0 0 0 0 0 0 0 0 127 0" result="hardAlpha"/>
<feOffset dx="1" dy="2"/>
<feGaussianBlur stdDeviation="4"/>
<feComposite in2="hardAlpha" operator="out"/>
<feColorMatrix type="matrix" values="0 0 0 0 0.513726 0 0 0 0 0.972549 0 0 0 0 1 0 0 0 1 0"/>
<feBlend mode="normal" in2="BackgroundImageFix" result="effect1_dropShadow_533_2224"/>
<feBlend mode="normal" in="SourceGraphic" in2="effect1_dropShadow_533_2224" result="shape"/>
</filter>
<filter id="filter9_d_533_2224" x="456" y="70" width="25.9404" height="28" filterUnits="userSpaceOnUse" color-interpolation-filters="sRGB">
<feFlood flood-opacity="0" result="BackgroundImageFix"/>
<feColorMatrix in="SourceAlpha" type="matrix" values="0 0 0 0 0 0 0 0 0 0 0 0 0 0 0 0 0 0 127 0" result="hardAlpha"/>
<feOffset dx="1" dy="2"/>
<feGaussianBlur stdDeviation="4"/>
<feComposite in2="hardAlpha" operator="out"/>
<feColorMatrix type="matrix" values="0 0 0 0 0.513726 0 0 0 0 0.972549 0 0 0 0 1 0 0 0 1 0"/>
<feBlend mode="normal" in2="BackgroundImageFix" result="effect1_dropShadow_533_2224"/>
<feBlend mode="normal" in="SourceGraphic" in2="effect1_dropShadow_533_2224" result="shape"/>
</filter>
<filter id="filter10_f_533_2224" x="806" y="59" width="44" height="60" filterUnits="userSpaceOnUse" color-interpolation-filters="sRGB">
<feFlood flood-opacity="0" result="BackgroundImageFix"/>
<feBlend mode="normal" in="SourceGraphic" in2="BackgroundImageFix" result="shape"/>
<feGaussianBlur stdDeviation="4" result="effect1_foregroundBlur_533_2224"/>
</filter>
<filter id="filter11_d_533_2224" x="807" y="61" width="44" height="60" filterUnits="userSpaceOnUse" color-interpolation-filters="sRGB">
<feFlood flood-opacity="0" result="BackgroundImageFix"/>
<feColorMatrix in="SourceAlpha" type="matrix" values="0 0 0 0 0 0 0 0 0 0 0 0 0 0 0 0 0 0 127 0" result="hardAlpha"/>
<feOffset dx="1" dy="2"/>
<feGaussianBlur stdDeviation="4"/>
<feComposite in2="hardAlpha" operator="out"/>
<feColorMatrix type="matrix" values="0 0 0 0 0.513726 0 0 0 0 0.972549 0 0 0 0 1 0 0 0 1 0"/>
<feBlend mode="normal" in2="BackgroundImageFix" result="effect1_dropShadow_533_2224"/>
<feBlend mode="normal" in="SourceGraphic" in2="effect1_dropShadow_533_2224" result="shape"/>
</filter>
</defs>
</svg>
