<svg width="24" height="24" viewBox="0 0 24 24" fill="none" xmlns="http://www.w3.org/2000/svg">
<path fill-rule="evenodd" clip-rule="evenodd" d="M13.7593 16.722C13.7388 16.9223 13.7216 17.0897 13.7143 17.143H10.2857C10.2784 17.0898 10.2613 16.9224 10.2407 16.7222C10.2242 16.5615 10.2055 16.3796 10.1881 16.2186C10.163 15.9869 9.95266 15.8339 9.72299 15.8732C9.48617 15.9137 9.33023 16.141 9.36348 16.379C9.42857 16.8449 9.42857 17.143 9.42857 17.143C8.95518 17.143 8.57143 17.5267 8.57143 18.0001V18.8572C8.57143 19.3306 8.95518 19.7144 9.42857 19.7144V20.5715C9.42857 21.0449 9.81233 21.4287 10.2857 21.4287H13.7143C14.1877 21.4287 14.5714 21.0449 14.5714 20.5715V19.7144C15.0448 19.7144 15.4286 19.3306 15.4286 18.8572V18.0001C15.4286 17.5267 15.0448 17.143 14.5714 17.143C14.5714 17.143 14.5714 15.2144 15.6429 13.5001C15.9283 13.0434 16.229 12.685 16.5165 12.3422C17.3081 11.3986 18 10.5738 18 8.14296C18 4.82925 15.3137 2.57153 12 2.57153C8.68629 2.57153 6 4.82925 6 8.14296C6 10.5738 6.69189 11.3986 7.48352 12.3423C7.77103 12.685 8.07169 13.0434 8.35714 13.5001C8.45451 13.6559 8.54303 13.8134 8.6235 13.9712C8.73076 14.1814 8.98052 14.2823 9.19755 14.1896C9.41588 14.0963 9.51802 13.8427 9.41168 13.6304C9.31397 13.4354 9.20517 13.2397 9.084 13.0458C8.76673 12.5382 8.43382 12.1414 8.15044 11.8036L8.14019 11.7914C7.73932 11.3135 7.44749 10.9586 7.23147 10.4597C7.01827 9.96733 6.85714 9.27633 6.85714 8.14296C6.85714 5.38424 9.07374 3.42868 12 3.42868C14.9263 3.42868 17.1429 5.38424 17.1429 8.14296C17.1429 9.27633 16.9817 9.96733 16.7685 10.4597C16.5525 10.9586 16.2607 11.3135 15.8598 11.7914L15.8496 11.8036C15.5662 12.1414 15.2333 12.5382 14.916 13.0458C14.3067 14.0208 14.0101 15.0411 13.8636 15.8025C13.8423 15.9136 13.7956 16.3688 13.7593 16.722ZM10.2857 20.143C10.2857 19.9063 10.4776 19.7144 10.7143 19.7144H13.2857C13.5224 19.7144 13.7143 19.9063 13.7143 20.143C13.7143 20.3797 13.5224 20.5715 13.2857 20.5715H10.7143C10.4776 20.5715 10.2857 20.3797 10.2857 20.143ZM14.5714 18.4287C14.5714 18.6654 14.3796 18.8572 14.1429 18.8572H9.85714C9.62045 18.8572 9.42857 18.6654 9.42857 18.4287C9.42857 18.192 9.62045 18.0001 9.85714 18.0001H14.1429C14.3796 18.0001 14.5714 18.192 14.5714 18.4287Z" fill="white"/>
<path d="M14.1132 8.37632C13.943 7.27092 13.0617 6.42868 12 6.42868C10.8165 6.42868 9.85714 7.47528 9.85714 8.76634C9.85714 10.0574 11.5714 11.5715 12 11.5715C12.2399 11.5715 12.8829 11.0969 13.4024 10.4526C13.5363 10.2864 13.4808 10.0446 13.2964 9.93711C13.1227 9.83596 12.9013 9.89379 12.7783 10.0527C12.4794 10.4387 12.1344 10.7144 12 10.7144C11.7429 10.7144 10.7143 9.70496 10.7143 8.84426C10.7143 7.98356 11.2899 7.28582 12 7.28582C12.5766 7.28582 13.0646 7.74593 13.2276 8.37978C13.2904 8.62384 13.5021 8.82459 13.7531 8.80177C13.9738 8.7817 14.1469 8.5954 14.1132 8.37632Z" fill="white"/>
</svg>
