<svg width="36" height="36" viewBox="0 0 36 36" fill="none" xmlns="http://www.w3.org/2000/svg">
<path fill-rule="evenodd" clip-rule="evenodd" d="M20.639 25.0828C20.6081 25.3833 20.5824 25.6345 20.5714 25.7143H15.4286C15.4177 25.6345 15.3919 25.3835 15.3611 25.0832C15.3363 24.8421 15.3083 24.5692 15.2821 24.3277C15.2444 23.9803 14.929 23.7508 14.5845 23.8097C14.2293 23.8704 13.9953 24.2115 14.0452 24.5684C14.1429 25.2672 14.1429 25.7143 14.1429 25.7143C13.4328 25.7143 12.8571 26.29 12.8571 27V28.2857C12.8571 28.9958 13.4328 29.5715 14.1429 29.5715V30.8572C14.1429 31.5673 14.7185 32.1429 15.4286 32.1429H20.5714C21.2815 32.1429 21.8571 31.5673 21.8571 30.8572V29.5715C22.5672 29.5715 23.1429 28.9958 23.1429 28.2857V27C23.1429 26.29 22.5672 25.7143 21.8571 25.7143C21.8571 25.7143 21.8571 22.8215 23.4643 20.25C23.8925 19.565 24.3435 19.0273 24.7747 18.5132C25.9622 17.0978 27 15.8606 27 12.2143C27 7.24376 22.9706 3.85718 18 3.85718C13.0294 3.85718 9 7.24376 9 12.2143C9 15.8606 10.0378 17.0978 11.2253 18.5133C11.6565 19.0273 12.1075 19.5649 12.5357 20.25C12.6818 20.4837 12.8145 20.72 12.9352 20.9566C13.0961 21.2719 13.4708 21.4233 13.7963 21.2843C14.1238 21.1444 14.277 20.7639 14.1175 20.4455C13.971 20.1529 13.8078 19.8594 13.626 19.5686C13.1501 18.8072 12.6507 18.2119 12.2257 17.7052L12.2103 17.6869C11.609 16.9701 11.1712 16.4378 10.8472 15.6895C10.5274 14.9509 10.2857 13.9144 10.2857 12.2143C10.2857 8.07623 13.6106 5.14289 18 5.14289C22.3894 5.14289 25.7143 8.07623 25.7143 12.2143C25.7143 13.9144 25.4726 14.9509 25.1528 15.6895C24.8288 16.4378 24.391 16.9701 23.7897 17.6869L23.7744 17.7052C23.3493 18.2119 22.8499 18.8072 22.374 19.5686C21.46 21.031 21.0151 22.5615 20.7955 23.7037C20.7634 23.8702 20.6933 24.5531 20.639 25.0828ZM15.4286 30.2143C15.4286 29.8593 15.7164 29.5715 16.0714 29.5715H19.9286C20.2836 29.5715 20.5714 29.8593 20.5714 30.2143C20.5714 30.5694 20.2836 30.8572 19.9286 30.8572H16.0714C15.7164 30.8572 15.4286 30.5694 15.4286 30.2143ZM21.8571 27.6429C21.8571 27.9979 21.5693 28.2857 21.2143 28.2857H14.7857C14.4307 28.2857 14.1429 27.9979 14.1429 27.6429C14.1429 27.2879 14.4307 27 14.7857 27H21.2143C21.5693 27 21.8571 27.2879 21.8571 27.6429Z" fill="#000520"/>
<path d="M21.1697 12.5644C20.9145 10.9063 19.5925 9.64289 18 9.64289C16.2248 9.64289 14.7857 11.2128 14.7857 13.1494C14.7857 15.086 17.3571 17.3572 18 17.3572C18.3599 17.3572 19.3243 16.6453 20.1035 15.6788C20.3045 15.4295 20.2212 15.0667 19.9445 14.9055C19.6841 14.7538 19.3519 14.8406 19.1674 15.0789C18.7191 15.658 18.2016 16.0715 18 16.0715C17.6143 16.0715 16.0714 14.5573 16.0714 13.2663C16.0714 11.9752 16.9349 10.9286 18 10.9286C18.8649 10.9286 19.5969 11.6188 19.8415 12.5695C19.9356 12.9356 20.2532 13.2368 20.6296 13.2025C20.9608 13.1724 21.2203 12.893 21.1697 12.5644Z" fill="#000520"/>
</svg>
