<svg width="56" height="60" viewBox="0 0 56 60" fill="none" xmlns="http://www.w3.org/2000/svg">
<g filter="url(#filter0_d_375_3041)">
<path fill-rule="evenodd" clip-rule="evenodd" d="M16.4176 19.4722L27 9.65563V21.1707C25.8348 21.5825 25 22.6938 25 24C25 25.6569 26.3431 27 28 27C29.6569 27 31 25.6569 31 24C31 22.6938 30.1652 21.5825 29 21.1707V9.65564L39.5824 19.4722L31.1589 38H24.8411L22.5253 32.9063C22.2974 32.4051 21.7073 32.1824 21.2052 32.408C20.6998 32.635 20.4753 33.2297 20.7046 33.734L22.6441 38H22C20.8954 38 20 38.8954 20 40V48C20 49.1046 20.8954 50 22 50H34C35.1046 50 36 49.1046 36 48V40C36 38.8954 35.1046 38 34 38H33.3559L42 18.9868L28 6L14 18.9868L18.0699 27.9389C18.3047 28.4553 18.9217 28.6732 19.4288 28.4188C19.909 28.1778 20.113 27.6003 19.8906 27.1111L16.4176 19.4722ZM22 40V48H34V40H22ZM29 24C29 24.5523 28.5523 25 28 25C27.4477 25 27 24.5523 27 24C27 23.4477 27.4477 23 28 23C28.5523 23 29 23.4477 29 24Z" fill="#83F8FF"/>
</g>
<defs>
<filter id="filter0_d_375_3041" x="7" y="0" width="44" height="60" filterUnits="userSpaceOnUse" color-interpolation-filters="sRGB">
<feFlood flood-opacity="0" result="BackgroundImageFix"/>
<feColorMatrix in="SourceAlpha" type="matrix" values="0 0 0 0 0 0 0 0 0 0 0 0 0 0 0 0 0 0 127 0" result="hardAlpha"/>
<feOffset dx="1" dy="2"/>
<feGaussianBlur stdDeviation="4"/>
<feComposite in2="hardAlpha" operator="out"/>
<feColorMatrix type="matrix" values="0 0 0 0 0.513726 0 0 0 0 0.972549 0 0 0 0 1 0 0 0 1 0"/>
<feBlend mode="normal" in2="BackgroundImageFix" result="effect1_dropShadow_375_3041"/>
<feBlend mode="normal" in="SourceGraphic" in2="effect1_dropShadow_375_3041" result="shape"/>
</filter>
</defs>
</svg>
