<svg width="56" height="58" viewBox="0 0 56 58" fill="none" xmlns="http://www.w3.org/2000/svg">
<g filter="url(#filter0_d_370_1753)">
<path fill-rule="evenodd" clip-rule="evenodd" d="M16 9C14.8954 9 14 9.89543 14 11V35C14 35.5523 14.4477 36 15 36C15.5523 36 16 35.5523 16 35V11.8636C16 11.3114 16.4477 10.8636 17 10.8636H30V18.1818C30 19.2864 30.8954 20.1818 32 20.1818H42V17.8214C42 17.5439 41.8847 17.2789 41.6817 17.0898L33.288 9.26839C33.1029 9.09591 32.8593 9 32.6063 9H16ZM32 10.8635L40 18.3181H33C32.4477 18.3181 32 17.8704 32 17.3181V10.8635Z" fill="#83F8FF"/>
<path d="M17 46.1364C16.4477 46.1364 16 45.6886 16 45.1364V41C16 40.4477 15.5523 40 15 40C14.4477 40 14 40.4477 14 41V46C14 47.1046 14.8954 48 16 48H40C41.1046 48 42 47.1046 42 46V25.0001C42 24.4478 41.5523 24.0001 41 24.0001C40.4477 24.0001 40 24.4478 40 25.0001V45.1364C40 45.6886 39.5523 46.1364 39 46.1364H17Z" fill="#83F8FF"/>
<path d="M20 21C20 20.4477 20.4477 20 21 20H27C27.5523 20 28 20.4477 28 21C28 21.5523 27.5523 22 27 22H21C20.4477 22 20 21.5523 20 21Z" fill="#83F8FF"/>
<path d="M21 26C20.4477 26 20 26.4477 20 27C20 27.5523 20.4477 28 21 28H35C35.5523 28 36 27.5523 36 27C36 26.4477 35.5523 26 35 26H21Z" fill="#83F8FF"/>
<path d="M20 33C20 32.4477 20.4477 32 21 32H35C35.5523 32 36 32.4477 36 33C36 33.5523 35.5523 34 35 34H21C20.4477 34 20 33.5523 20 33Z" fill="#83F8FF"/>
<path d="M21 38C20.4477 38 20 38.4477 20 39C20 39.5523 20.4477 40 21 40H35C35.5523 40 36 39.5523 36 39C36 38.4477 35.5523 38 35 38H21Z" fill="#83F8FF"/>
</g>
<defs>
<filter id="filter0_d_370_1753" x="7" y="3" width="44" height="55" filterUnits="userSpaceOnUse" color-interpolation-filters="sRGB">
<feFlood flood-opacity="0" result="BackgroundImageFix"/>
<feColorMatrix in="SourceAlpha" type="matrix" values="0 0 0 0 0 0 0 0 0 0 0 0 0 0 0 0 0 0 127 0" result="hardAlpha"/>
<feOffset dx="1" dy="2"/>
<feGaussianBlur stdDeviation="4"/>
<feComposite in2="hardAlpha" operator="out"/>
<feColorMatrix type="matrix" values="0 0 0 0 0.513726 0 0 0 0 0.972549 0 0 0 0 1 0 0 0 1 0"/>
<feBlend mode="normal" in2="BackgroundImageFix" result="effect1_dropShadow_370_1753"/>
<feBlend mode="normal" in="SourceGraphic" in2="effect1_dropShadow_370_1753" result="shape"/>
</filter>
</defs>
</svg>
