<svg width="321" height="321" viewBox="0 0 321 321" fill="none" xmlns="http://www.w3.org/2000/svg">
<path fill-rule="evenodd" clip-rule="evenodd" d="M321 160.5C321 249.142 249.142 321 160.5 321C71.8583 321 0 249.142 0 160.5C0 71.8583 71.8583 0 160.5 0C249.142 0 321 71.8583 321 160.5ZM201.974 284.272C188.944 288.636 174.998 291 160.5 291C132.51 291 106.577 282.188 85.3265 267.186C85.7397 267.425 86.1559 267.659 86.5747 267.888C102.73 244.873 137.069 212.828 183.809 195.326C192.612 222.85 198.835 252.86 200.5 284.5C200.931 284.454 201.424 284.378 201.974 284.272ZM211.502 187.142C220.499 216.475 225.573 244.934 228 272C227.432 272.421 226.861 272.83 226.287 273.229C257.972 254.698 281.143 223.191 288.51 185.999C260.835 180.875 234.979 182.013 211.502 187.142ZM201.417 158.217C237.52 150.294 267.752 153.504 285.281 155.366C287.34 155.585 289.224 155.785 290.922 155.946C289.796 123.108 276.537 93.3497 255.488 71.0147C254.285 72.4189 252.958 74.0114 251.5 75.7629C240.235 89.2889 221.077 112.293 189.703 131.203C194.02 140.262 197.913 149.271 201.417 158.217ZM64.1297 248.496C100.586 203.606 138.636 179.274 173.327 166.449C170.247 158.873 167.003 151.541 163.648 144.476C130.387 158.551 86.82 166.81 30.0009 160C30.0003 160.167 30 160.333 30 160.5C30 194.406 42.9307 225.292 64.1297 248.496ZM149.707 117.61C105.569 135.819 60.708 135.686 33.4451 130.584C41.9778 94.2047 65.7314 63.6883 97.6206 46.1201C111.306 59.7645 131.099 84.6456 149.707 117.61ZM127 34.5C146.574 57.9039 162.648 81.3077 175.78 104.483C196.311 92.0945 215.854 74.9467 232.432 51.5971C211.809 37.9479 187.082 30 160.5 30C148.367 30 136.62 31.6559 125.474 34.754C126.032 34.6517 126.542 34.5673 127 34.5Z" fill="white"/>
</svg>
