<svg width="36" height="36" viewBox="0 0 36 36" fill="none" xmlns="http://www.w3.org/2000/svg">
<circle cx="18" cy="18" r="18" fill="#C3C8CB"/>
<path fill-rule="evenodd" clip-rule="evenodd" d="M27.75 18.375C27.75 23.5527 23.5527 27.75 18.375 27.75C13.1973 27.75 9 23.5527 9 18.375C9 13.1973 13.1973 9 18.375 9C23.5527 9 27.75 13.1973 27.75 18.375ZM20.7975 25.6047C20.0365 25.8596 19.2219 25.9977 18.375 25.9977C16.74 25.9977 15.2252 25.4829 13.9839 24.6066C14.0081 24.6206 14.0324 24.6343 14.057 24.6476C15.0006 23.3033 17.0064 21.4316 19.7365 20.4093C20.2507 22.017 20.6142 23.7699 20.7114 25.618C20.7366 25.6153 20.7654 25.6109 20.7975 25.6047ZM21.3541 19.9312C21.8796 21.6446 22.176 23.3069 22.3178 24.8879C22.2846 24.9124 22.2512 24.9363 22.2177 24.9596C24.0684 23.8772 25.4219 22.0369 25.8522 19.8644C24.2357 19.5651 22.7254 19.6316 21.3541 19.9312ZM20.765 18.2417C22.8739 17.7788 24.6397 17.9664 25.6636 18.0751C25.7839 18.0879 25.894 18.0996 25.9931 18.109C25.9273 16.1909 25.1529 14.4527 23.9234 13.148C23.8531 13.2301 23.7756 13.3231 23.6904 13.4254C23.0324 14.2155 21.9134 15.5592 20.0808 16.6637C20.3329 17.1929 20.5603 17.7191 20.765 18.2417ZM12.7459 23.5149C14.8754 20.8929 17.0979 19.4716 19.1242 18.7225C18.9443 18.28 18.7549 17.8517 18.5589 17.439C16.616 18.2612 14.0713 18.7436 10.7524 18.3458L10.7523 18.375C10.7523 20.3555 11.5076 22.1596 12.7459 23.5149ZM17.7446 15.8697C15.1664 16.9334 12.546 16.9256 10.9536 16.6276C11.452 14.5026 12.8394 12.7201 14.7021 11.6939C15.5015 12.4909 16.6577 13.9443 17.7446 15.8697ZM16.4182 11.0152C17.5616 12.3822 18.5004 13.7493 19.2675 15.103C20.4668 14.3793 21.6083 13.3777 22.5766 12.0138C21.372 11.2166 19.9277 10.7523 18.375 10.7523C17.6663 10.7523 16.9801 10.8491 16.3291 11.03C16.3617 11.024 16.3915 11.0191 16.4182 11.0152Z" fill="white"/>
</svg>
