<svg width="108" height="56" viewBox="0 0 108 56" fill="none" xmlns="http://www.w3.org/2000/svg">
<path d="M31.1828 53.6987C33.1593 56.691 37.5504 56.691 39.5269 53.6987L52.5328 34.0084H46.5774L36.1893 49.7355C35.794 50.334 34.9157 50.334 34.5204 49.7355L5.99684 6.55241C5.5577 5.88758 6.03448 5.00126 6.83125 5.00126H34.9989V1.98334e-05L5.00834 1.52588e-05C1.02452 1.52588e-05 -1.35937 4.43163 0.836313 7.75576L31.1828 53.6987Z" fill="#E3E3E3"/>
<path d="M75.8163 2.30057C73.8397 -0.691521 69.449 -0.691521 67.4725 2.30058L54.4556 22.0055H60.4115L70.81 6.26435C71.2053 5.66593 72.0834 5.66593 72.4788 6.26435L101.005 49.4476C101.444 50.1124 100.968 50.9988 100.171 50.9988H67.9966V56H101.994C105.978 56 108.362 51.5682 106.166 48.2441L75.8163 2.30057Z" fill="#E3E3E3"/>
<path d="M31.1828 53.6987C33.1593 56.691 37.5504 56.691 39.5269 53.6987L52.5328 34.0084H46.5774L36.1893 49.7355C35.794 50.334 34.9157 50.334 34.5204 49.7355L5.99684 6.55241C5.5577 5.88758 6.03448 5.00126 6.83125 5.00126H34.9989V1.98334e-05L5.00834 1.52588e-05C1.02452 1.52588e-05 -1.35937 4.43163 0.836313 7.75576L31.1828 53.6987Z" fill="#2790DD"/>
</svg>
