<svg width="311" height="12" viewBox="0 0 311 12" fill="none" xmlns="http://www.w3.org/2000/svg">
<path d="M6.89062 7.75977H8.59961C8.54492 8.41146 8.36263 8.99251 8.05273 9.50293C7.74284 10.0088 7.30762 10.4076 6.74707 10.6992C6.18652 10.9909 5.50521 11.1367 4.70312 11.1367C4.08789 11.1367 3.53418 11.0273 3.04199 10.8086C2.5498 10.5853 2.12826 10.2708 1.77734 9.86523C1.42643 9.45508 1.15755 8.96061 0.970703 8.38184C0.788411 7.80306 0.697266 7.15592 0.697266 6.44043V5.61328C0.697266 4.89779 0.79069 4.25065 0.977539 3.67188C1.16895 3.0931 1.44238 2.59863 1.79785 2.18848C2.15332 1.77376 2.57943 1.45703 3.07617 1.23828C3.57747 1.01953 4.1403 0.910156 4.76465 0.910156C5.55762 0.910156 6.22754 1.05599 6.77441 1.34766C7.32129 1.63932 7.74512 2.04264 8.0459 2.55762C8.35124 3.07259 8.53809 3.66276 8.60645 4.32812H6.89746C6.85189 3.89974 6.75163 3.53288 6.59668 3.22754C6.44629 2.9222 6.22298 2.68978 5.92676 2.53027C5.63053 2.36621 5.24316 2.28418 4.76465 2.28418C4.37272 2.28418 4.03092 2.3571 3.73926 2.50293C3.44759 2.64876 3.20378 2.86296 3.00781 3.14551C2.81185 3.42806 2.66374 3.77669 2.56348 4.19141C2.46777 4.60156 2.41992 5.07096 2.41992 5.59961V6.44043C2.41992 6.94173 2.46322 7.39746 2.5498 7.80762C2.64095 8.21322 2.77767 8.56185 2.95996 8.85352C3.14681 9.14518 3.38379 9.37077 3.6709 9.53027C3.95801 9.68978 4.30208 9.76953 4.70312 9.76953C5.19076 9.76953 5.58496 9.69206 5.88574 9.53711C6.19108 9.38216 6.42122 9.15658 6.57617 8.86035C6.73568 8.55957 6.84049 8.19271 6.89062 7.75977ZM19.3447 5.75V6.29688C19.3447 7.04883 19.2467 7.72331 19.0508 8.32031C18.8548 8.91732 18.5745 9.42546 18.21 9.84473C17.8499 10.264 17.417 10.5853 16.9111 10.8086C16.4053 11.0273 15.8447 11.1367 15.2295 11.1367C14.6188 11.1367 14.0605 11.0273 13.5547 10.8086C13.0534 10.5853 12.6182 10.264 12.249 9.84473C11.8799 9.42546 11.5928 8.91732 11.3877 8.32031C11.1872 7.72331 11.0869 7.04883 11.0869 6.29688V5.75C11.0869 4.99805 11.1872 4.32585 11.3877 3.7334C11.5882 3.13639 11.8708 2.62826 12.2354 2.20898C12.6045 1.78516 13.0397 1.46387 13.541 1.24512C14.0469 1.02181 14.6051 0.910156 15.2158 0.910156C15.8311 0.910156 16.3916 1.02181 16.8975 1.24512C17.4033 1.46387 17.8385 1.78516 18.2031 2.20898C18.5677 2.62826 18.848 3.13639 19.0439 3.7334C19.2445 4.32585 19.3447 4.99805 19.3447 5.75ZM17.6289 6.29688V5.73633C17.6289 5.18034 17.5742 4.69043 17.4648 4.2666C17.36 3.83822 17.2028 3.48047 16.9932 3.19336C16.7881 2.90169 16.5352 2.68294 16.2344 2.53711C15.9336 2.38672 15.5941 2.31152 15.2158 2.31152C14.8376 2.31152 14.5003 2.38672 14.2041 2.53711C13.9079 2.68294 13.6549 2.90169 13.4453 3.19336C13.2402 3.48047 13.083 3.83822 12.9736 4.2666C12.8643 4.69043 12.8096 5.18034 12.8096 5.73633V6.29688C12.8096 6.85286 12.8643 7.34505 12.9736 7.77344C13.083 8.20182 13.2425 8.56413 13.4521 8.86035C13.6663 9.15202 13.9215 9.37305 14.2178 9.52344C14.514 9.66927 14.8512 9.74219 15.2295 9.74219C15.6123 9.74219 15.9518 9.66927 16.248 9.52344C16.5443 9.37305 16.7949 9.15202 17 8.86035C17.2051 8.56413 17.36 8.20182 17.4648 7.77344C17.5742 7.34505 17.6289 6.85286 17.6289 6.29688ZM28.5449 9.63965V11H23.5479V9.63965H28.5449ZM24.0264 1.04688V11H22.3105V1.04688H24.0264ZM37.3555 9.63965V11H32.3584V9.63965H37.3555ZM32.8369 1.04688V11H31.1211V1.04688H32.8369ZM43.9443 2.37305L40.9707 11H39.1729L42.9189 1.04688H44.0674L43.9443 2.37305ZM46.4326 11L43.4521 2.37305L43.3223 1.04688H44.4775L48.2373 11H46.4326ZM46.2891 7.30859V8.66895H40.875V7.30859H46.2891ZM54.334 6.50195H51.7979L51.7842 5.25098H53.999C54.3727 5.25098 54.6895 5.19629 54.9492 5.08691C55.2135 4.97298 55.4141 4.8112 55.5508 4.60156C55.6875 4.38737 55.7559 4.12988 55.7559 3.8291C55.7559 3.49642 55.6921 3.22526 55.5645 3.01562C55.4368 2.80599 55.2409 2.65332 54.9766 2.55762C54.7168 2.46191 54.3841 2.41406 53.9785 2.41406H52.3174V11H50.6016V1.04688H53.9785C54.5254 1.04688 55.013 1.09928 55.4414 1.2041C55.8743 1.30892 56.2412 1.47298 56.542 1.69629C56.8473 1.91504 57.0775 2.19303 57.2324 2.53027C57.3919 2.86751 57.4717 3.26855 57.4717 3.7334C57.4717 4.14355 57.3737 4.51953 57.1777 4.86133C56.9818 5.19857 56.6924 5.47428 56.3096 5.68848C55.9268 5.90267 55.4505 6.03027 54.8809 6.07129L54.334 6.50195ZM54.2588 11H51.2578L52.0303 9.63965H54.2588C54.6462 9.63965 54.9697 9.57585 55.2295 9.44824C55.4893 9.31608 55.6829 9.13607 55.8105 8.9082C55.9427 8.67578 56.0088 8.40462 56.0088 8.09473C56.0088 7.77116 55.9518 7.49089 55.8379 7.25391C55.724 7.01237 55.5439 6.8278 55.2979 6.7002C55.0518 6.56803 54.7305 6.50195 54.334 6.50195H52.4062L52.4199 5.25098H54.9287L55.3184 5.72266C55.8652 5.74089 56.3141 5.86165 56.665 6.08496C57.0205 6.30827 57.2848 6.59766 57.458 6.95312C57.6312 7.30859 57.7178 7.69141 57.7178 8.10156C57.7178 8.73503 57.5788 9.26595 57.3008 9.69434C57.0273 10.1227 56.6331 10.4486 56.1182 10.6719C55.6032 10.8906 54.9834 11 54.2588 11ZM68.6338 5.75V6.29688C68.6338 7.04883 68.5358 7.72331 68.3398 8.32031C68.1439 8.91732 67.8636 9.42546 67.499 9.84473C67.139 10.264 66.7061 10.5853 66.2002 10.8086C65.6943 11.0273 65.1338 11.1367 64.5186 11.1367C63.9079 11.1367 63.3496 11.0273 62.8438 10.8086C62.3424 10.5853 61.9072 10.264 61.5381 9.84473C61.1689 9.42546 60.8818 8.91732 60.6768 8.32031C60.4762 7.72331 60.376 7.04883 60.376 6.29688V5.75C60.376 4.99805 60.4762 4.32585 60.6768 3.7334C60.8773 3.13639 61.1598 2.62826 61.5244 2.20898C61.8936 1.78516 62.3288 1.46387 62.8301 1.24512C63.3359 1.02181 63.8942 0.910156 64.5049 0.910156C65.1201 0.910156 65.6807 1.02181 66.1865 1.24512C66.6924 1.46387 67.1276 1.78516 67.4922 2.20898C67.8568 2.62826 68.137 3.13639 68.333 3.7334C68.5335 4.32585 68.6338 4.99805 68.6338 5.75ZM66.918 6.29688V5.73633C66.918 5.18034 66.8633 4.69043 66.7539 4.2666C66.6491 3.83822 66.4919 3.48047 66.2822 3.19336C66.0771 2.90169 65.8242 2.68294 65.5234 2.53711C65.2227 2.38672 64.8831 2.31152 64.5049 2.31152C64.1266 2.31152 63.7894 2.38672 63.4932 2.53711C63.1969 2.68294 62.944 2.90169 62.7344 3.19336C62.5293 3.48047 62.3721 3.83822 62.2627 4.2666C62.1533 4.69043 62.0986 5.18034 62.0986 5.73633V6.29688C62.0986 6.85286 62.1533 7.34505 62.2627 7.77344C62.3721 8.20182 62.5316 8.56413 62.7412 8.86035C62.9554 9.15202 63.2106 9.37305 63.5068 9.52344C63.8031 9.66927 64.1403 9.74219 64.5186 9.74219C64.9014 9.74219 65.2409 9.66927 65.5371 9.52344C65.8333 9.37305 66.084 9.15202 66.2891 8.86035C66.4941 8.56413 66.6491 8.20182 66.7539 7.77344C66.8633 7.34505 66.918 6.85286 66.918 6.29688ZM71.5996 1.04688H75.1201C75.8766 1.04688 76.5215 1.16081 77.0547 1.38867C77.5879 1.61654 77.9958 1.95378 78.2783 2.40039C78.5654 2.84245 78.709 3.38932 78.709 4.04102C78.709 4.53776 78.6178 4.97526 78.4355 5.35352C78.2533 5.73177 77.9958 6.05078 77.6631 6.31055C77.3304 6.56576 76.9339 6.764 76.4736 6.90527L75.9541 7.1582H72.7891L72.7754 5.79785H75.1475C75.5576 5.79785 75.8994 5.72493 76.1729 5.5791C76.4463 5.43327 76.6514 5.23503 76.7881 4.98438C76.9294 4.72917 77 4.44206 77 4.12305C77 3.77669 76.9316 3.47591 76.7949 3.2207C76.6628 2.96094 76.4577 2.7627 76.1797 2.62598C75.9017 2.4847 75.5485 2.41406 75.1201 2.41406H73.3154V11H71.5996V1.04688ZM77.2803 11L74.9424 6.5293L76.7402 6.52246L79.1123 10.9111V11H77.2803ZM85.5439 2.37305L82.5703 11H80.7725L84.5186 1.04688H85.667L85.5439 2.37305ZM88.0322 11L85.0518 2.37305L84.9219 1.04688H86.0771L89.8369 11H88.0322ZM87.8887 7.30859V8.66895H82.4746V7.30859H87.8887ZM95.4346 1.04688V11H93.7324V1.04688H95.4346ZM98.5586 1.04688V2.41406H90.6357V1.04688H98.5586ZM102.953 1.04688V11H101.237V1.04688H102.953ZM114.231 1.04688V11H112.516L108.052 3.87012V11H106.336V1.04688H108.052L112.529 8.19043V1.04688H114.231ZM125.168 5.91406V9.71484C125.027 9.90169 124.806 10.1068 124.505 10.3301C124.209 10.5488 123.814 10.738 123.322 10.8975C122.83 11.057 122.217 11.1367 121.483 11.1367C120.859 11.1367 120.287 11.0319 119.768 10.8223C119.248 10.6081 118.799 10.2959 118.421 9.88574C118.047 9.47559 117.758 8.97656 117.553 8.38867C117.348 7.79622 117.245 7.12174 117.245 6.36523V5.6748C117.245 4.92285 117.339 4.25293 117.525 3.66504C117.717 3.07259 117.99 2.57129 118.346 2.16113C118.701 1.75098 119.13 1.44108 119.631 1.23145C120.137 1.01725 120.709 0.910156 121.347 0.910156C122.162 0.910156 122.837 1.04688 123.37 1.32031C123.908 1.58919 124.323 1.96289 124.614 2.44141C124.906 2.91992 125.09 3.4668 125.168 4.08203H123.486C123.432 3.73568 123.325 3.42578 123.165 3.15234C123.01 2.87891 122.787 2.66471 122.495 2.50977C122.208 2.35026 121.834 2.27051 121.374 2.27051C120.978 2.27051 120.629 2.3457 120.328 2.49609C120.027 2.64648 119.777 2.86751 119.576 3.15918C119.38 3.45085 119.232 3.80632 119.132 4.22559C119.032 4.64486 118.981 5.12337 118.981 5.66113V6.36523C118.981 6.91211 119.038 7.39746 119.152 7.82129C119.271 8.24512 119.439 8.60286 119.658 8.89453C119.882 9.1862 120.153 9.40723 120.472 9.55762C120.791 9.70345 121.151 9.77637 121.552 9.77637C121.944 9.77637 122.265 9.74447 122.516 9.68066C122.766 9.6123 122.965 9.53255 123.11 9.44141C123.261 9.3457 123.377 9.25456 123.459 9.16797V7.19238H121.388V5.91406H125.168ZM134.771 1.04688V11H133.055V1.04688H134.771ZM138.831 5.40137V6.76172H134.333V5.40137H138.831ZM139.398 1.04688V2.41406H134.333V1.04688H139.398ZM149.952 5.75V6.29688C149.952 7.04883 149.854 7.72331 149.658 8.32031C149.462 8.91732 149.182 9.42546 148.817 9.84473C148.457 10.264 148.024 10.5853 147.519 10.8086C147.013 11.0273 146.452 11.1367 145.837 11.1367C145.226 11.1367 144.668 11.0273 144.162 10.8086C143.661 10.5853 143.226 10.264 142.856 9.84473C142.487 9.42546 142.2 8.91732 141.995 8.32031C141.795 7.72331 141.694 7.04883 141.694 6.29688V5.75C141.694 4.99805 141.795 4.32585 141.995 3.7334C142.196 3.13639 142.478 2.62826 142.843 2.20898C143.212 1.78516 143.647 1.46387 144.148 1.24512C144.654 1.02181 145.213 0.910156 145.823 0.910156C146.438 0.910156 146.999 1.02181 147.505 1.24512C148.011 1.46387 148.446 1.78516 148.811 2.20898C149.175 2.62826 149.455 3.13639 149.651 3.7334C149.852 4.32585 149.952 4.99805 149.952 5.75ZM148.236 6.29688V5.73633C148.236 5.18034 148.182 4.69043 148.072 4.2666C147.967 3.83822 147.81 3.48047 147.601 3.19336C147.396 2.90169 147.143 2.68294 146.842 2.53711C146.541 2.38672 146.201 2.31152 145.823 2.31152C145.445 2.31152 145.108 2.38672 144.812 2.53711C144.515 2.68294 144.262 2.90169 144.053 3.19336C143.848 3.48047 143.69 3.83822 143.581 4.2666C143.472 4.69043 143.417 5.18034 143.417 5.73633V6.29688C143.417 6.85286 143.472 7.34505 143.581 7.77344C143.69 8.20182 143.85 8.56413 144.06 8.86035C144.274 9.15202 144.529 9.37305 144.825 9.52344C145.121 9.66927 145.459 9.74219 145.837 9.74219C146.22 9.74219 146.559 9.66927 146.855 9.52344C147.152 9.37305 147.402 9.15202 147.607 8.86035C147.812 8.56413 147.967 8.20182 148.072 7.77344C148.182 7.34505 148.236 6.85286 148.236 6.29688ZM152.918 1.04688H156.438C157.195 1.04688 157.84 1.16081 158.373 1.38867C158.906 1.61654 159.314 1.95378 159.597 2.40039C159.884 2.84245 160.027 3.38932 160.027 4.04102C160.027 4.53776 159.936 4.97526 159.754 5.35352C159.572 5.73177 159.314 6.05078 158.981 6.31055C158.649 6.56576 158.252 6.764 157.792 6.90527L157.272 7.1582H154.107L154.094 5.79785H156.466C156.876 5.79785 157.218 5.72493 157.491 5.5791C157.765 5.43327 157.97 5.23503 158.106 4.98438C158.248 4.72917 158.318 4.44206 158.318 4.12305C158.318 3.77669 158.25 3.47591 158.113 3.2207C157.981 2.96094 157.776 2.7627 157.498 2.62598C157.22 2.4847 156.867 2.41406 156.438 2.41406H154.634V11H152.918V1.04688ZM158.599 11L156.261 6.5293L158.059 6.52246L160.431 10.9111V11H158.599ZM172.959 8.43652C172.959 8.23145 172.927 8.04915 172.863 7.88965C172.804 7.73014 172.697 7.58431 172.542 7.45215C172.387 7.31999 172.168 7.19238 171.886 7.06934C171.608 6.94173 171.252 6.81185 170.819 6.67969C170.345 6.53385 169.908 6.37207 169.507 6.19434C169.11 6.01204 168.764 5.80241 168.468 5.56543C168.172 5.32389 167.941 5.04818 167.777 4.73828C167.613 4.42383 167.531 4.06152 167.531 3.65137C167.531 3.24577 167.616 2.87663 167.784 2.54395C167.957 2.21126 168.201 1.92415 168.516 1.68262C168.835 1.43652 169.211 1.2474 169.644 1.11523C170.076 0.978516 170.555 0.910156 171.079 0.910156C171.817 0.910156 172.453 1.04688 172.986 1.32031C173.524 1.59375 173.937 1.96061 174.224 2.4209C174.515 2.88118 174.661 3.38932 174.661 3.94531H172.959C172.959 3.61719 172.888 3.3278 172.747 3.07715C172.61 2.82194 172.401 2.62142 172.118 2.47559C171.84 2.32975 171.487 2.25684 171.059 2.25684C170.653 2.25684 170.316 2.31836 170.047 2.44141C169.778 2.56445 169.577 2.73079 169.445 2.94043C169.313 3.15007 169.247 3.38704 169.247 3.65137C169.247 3.83822 169.29 4.00911 169.377 4.16406C169.464 4.31445 169.596 4.45573 169.773 4.58789C169.951 4.71549 170.174 4.83626 170.443 4.9502C170.712 5.06413 171.029 5.1735 171.394 5.27832C171.945 5.44238 172.426 5.62467 172.836 5.8252C173.246 6.02116 173.588 6.24447 173.861 6.49512C174.135 6.74577 174.34 7.0306 174.477 7.34961C174.613 7.66406 174.682 8.02181 174.682 8.42285C174.682 8.84212 174.597 9.22038 174.429 9.55762C174.26 9.8903 174.019 10.1751 173.704 10.4121C173.394 10.6445 173.021 10.8245 172.583 10.9521C172.15 11.0752 171.667 11.1367 171.134 11.1367C170.655 11.1367 170.184 11.0729 169.719 10.9453C169.258 10.8177 168.839 10.624 168.461 10.3643C168.083 10.0999 167.782 9.77181 167.559 9.37988C167.335 8.9834 167.224 8.52083 167.224 7.99219H168.939C168.939 8.31576 168.994 8.59147 169.104 8.81934C169.217 9.0472 169.375 9.23405 169.575 9.37988C169.776 9.52116 170.008 9.62598 170.272 9.69434C170.541 9.7627 170.828 9.79688 171.134 9.79688C171.535 9.79688 171.87 9.73991 172.139 9.62598C172.412 9.51204 172.617 9.35254 172.754 9.14746C172.891 8.94238 172.959 8.7054 172.959 8.43652ZM185.386 5.75V6.29688C185.386 7.04883 185.288 7.72331 185.092 8.32031C184.896 8.91732 184.616 9.42546 184.251 9.84473C183.891 10.264 183.458 10.5853 182.952 10.8086C182.446 11.0273 181.886 11.1367 181.271 11.1367C180.66 11.1367 180.102 11.0273 179.596 10.8086C179.094 10.5853 178.659 10.264 178.29 9.84473C177.921 9.42546 177.634 8.91732 177.429 8.32031C177.228 7.72331 177.128 7.04883 177.128 6.29688V5.75C177.128 4.99805 177.228 4.32585 177.429 3.7334C177.629 3.13639 177.912 2.62826 178.276 2.20898C178.646 1.78516 179.081 1.46387 179.582 1.24512C180.088 1.02181 180.646 0.910156 181.257 0.910156C181.872 0.910156 182.433 1.02181 182.938 1.24512C183.444 1.46387 183.88 1.78516 184.244 2.20898C184.609 2.62826 184.889 3.13639 185.085 3.7334C185.285 4.32585 185.386 4.99805 185.386 5.75ZM183.67 6.29688V5.73633C183.67 5.18034 183.615 4.69043 183.506 4.2666C183.401 3.83822 183.244 3.48047 183.034 3.19336C182.829 2.90169 182.576 2.68294 182.275 2.53711C181.975 2.38672 181.635 2.31152 181.257 2.31152C180.879 2.31152 180.541 2.38672 180.245 2.53711C179.949 2.68294 179.696 2.90169 179.486 3.19336C179.281 3.48047 179.124 3.83822 179.015 4.2666C178.905 4.69043 178.851 5.18034 178.851 5.73633V6.29688C178.851 6.85286 178.905 7.34505 179.015 7.77344C179.124 8.20182 179.284 8.56413 179.493 8.86035C179.707 9.15202 179.963 9.37305 180.259 9.52344C180.555 9.66927 180.892 9.74219 181.271 9.74219C181.653 9.74219 181.993 9.66927 182.289 9.52344C182.585 9.37305 182.836 9.15202 183.041 8.86035C183.246 8.56413 183.401 8.20182 183.506 7.77344C183.615 7.34505 183.67 6.85286 183.67 6.29688ZM189.049 1.04688H190.58L193.458 8.72363L196.329 1.04688H197.86L194.06 11H192.843L189.049 1.04688ZM188.352 1.04688H189.808L190.061 7.69141V11H188.352V1.04688ZM197.102 1.04688H198.564V11H196.849V7.69141L197.102 1.04688ZM208.366 9.63965V11H203.082V9.63965H208.366ZM203.567 1.04688V11H201.852V1.04688H203.567ZM207.676 5.20312V6.54297H203.082V5.20312H207.676ZM208.332 1.04688V2.41406H203.082V1.04688H208.332ZM215.249 1.04688V11H213.547V1.04688H215.249ZM218.373 1.04688V2.41406H210.45V1.04688H218.373ZM227.512 5.20312V6.56348H222.228V5.20312H227.512ZM222.651 1.04688V11H220.936V1.04688H222.651ZM228.831 1.04688V11H227.122V1.04688H228.831ZM233.957 1.04688V11H232.241V1.04688H233.957ZM245.235 1.04688V11H243.52L239.056 3.87012V11H237.34V1.04688H239.056L243.533 8.19043V1.04688H245.235ZM256.172 5.91406V9.71484C256.031 9.90169 255.81 10.1068 255.509 10.3301C255.213 10.5488 254.818 10.738 254.326 10.8975C253.834 11.057 253.221 11.1367 252.487 11.1367C251.863 11.1367 251.291 11.0319 250.771 10.8223C250.252 10.6081 249.803 10.2959 249.425 9.88574C249.051 9.47559 248.762 8.97656 248.557 8.38867C248.352 7.79622 248.249 7.12174 248.249 6.36523V5.6748C248.249 4.92285 248.342 4.25293 248.529 3.66504C248.721 3.07259 248.994 2.57129 249.35 2.16113C249.705 1.75098 250.133 1.44108 250.635 1.23145C251.141 1.01725 251.713 0.910156 252.351 0.910156C253.166 0.910156 253.841 1.04688 254.374 1.32031C254.912 1.58919 255.326 1.96289 255.618 2.44141C255.91 2.91992 256.094 3.4668 256.172 4.08203H254.49C254.436 3.73568 254.328 3.42578 254.169 3.15234C254.014 2.87891 253.791 2.66471 253.499 2.50977C253.212 2.35026 252.838 2.27051 252.378 2.27051C251.981 2.27051 251.633 2.3457 251.332 2.49609C251.031 2.64648 250.781 2.86751 250.58 3.15918C250.384 3.45085 250.236 3.80632 250.136 4.22559C250.035 4.64486 249.985 5.12337 249.985 5.66113V6.36523C249.985 6.91211 250.042 7.39746 250.156 7.82129C250.275 8.24512 250.443 8.60286 250.662 8.89453C250.885 9.1862 251.157 9.40723 251.476 9.55762C251.795 9.70345 252.155 9.77637 252.556 9.77637C252.948 9.77637 253.269 9.74447 253.52 9.68066C253.77 9.6123 253.968 9.53255 254.114 9.44141C254.265 9.3457 254.381 9.25456 254.463 9.16797V7.19238H252.392V5.91406H256.172ZM271.701 5.91406V9.71484C271.56 9.90169 271.339 10.1068 271.038 10.3301C270.742 10.5488 270.348 10.738 269.855 10.8975C269.363 11.057 268.75 11.1367 268.017 11.1367C267.392 11.1367 266.82 11.0319 266.301 10.8223C265.781 10.6081 265.332 10.2959 264.954 9.88574C264.58 9.47559 264.291 8.97656 264.086 8.38867C263.881 7.79622 263.778 7.12174 263.778 6.36523V5.6748C263.778 4.92285 263.872 4.25293 264.059 3.66504C264.25 3.07259 264.523 2.57129 264.879 2.16113C265.234 1.75098 265.663 1.44108 266.164 1.23145C266.67 1.01725 267.242 0.910156 267.88 0.910156C268.696 0.910156 269.37 1.04688 269.903 1.32031C270.441 1.58919 270.856 1.96289 271.147 2.44141C271.439 2.91992 271.624 3.4668 271.701 4.08203H270.02C269.965 3.73568 269.858 3.42578 269.698 3.15234C269.543 2.87891 269.32 2.66471 269.028 2.50977C268.741 2.35026 268.368 2.27051 267.907 2.27051C267.511 2.27051 267.162 2.3457 266.861 2.49609C266.561 2.64648 266.31 2.86751 266.109 3.15918C265.913 3.45085 265.765 3.80632 265.665 4.22559C265.565 4.64486 265.515 5.12337 265.515 5.66113V6.36523C265.515 6.91211 265.572 7.39746 265.686 7.82129C265.804 8.24512 265.973 8.60286 266.191 8.89453C266.415 9.1862 266.686 9.40723 267.005 9.55762C267.324 9.70345 267.684 9.77637 268.085 9.77637C268.477 9.77637 268.798 9.74447 269.049 9.68066C269.299 9.6123 269.498 9.53255 269.644 9.44141C269.794 9.3457 269.91 9.25456 269.992 9.16797V7.19238H267.921V5.91406H271.701ZM274.852 1.04688H278.372C279.129 1.04688 279.773 1.16081 280.307 1.38867C280.84 1.61654 281.248 1.95378 281.53 2.40039C281.817 2.84245 281.961 3.38932 281.961 4.04102C281.961 4.53776 281.87 4.97526 281.688 5.35352C281.505 5.73177 281.248 6.05078 280.915 6.31055C280.582 6.56576 280.186 6.764 279.726 6.90527L279.206 7.1582H276.041L276.027 5.79785H278.399C278.81 5.79785 279.151 5.72493 279.425 5.5791C279.698 5.43327 279.903 5.23503 280.04 4.98438C280.181 4.72917 280.252 4.44206 280.252 4.12305C280.252 3.77669 280.184 3.47591 280.047 3.2207C279.915 2.96094 279.71 2.7627 279.432 2.62598C279.154 2.4847 278.8 2.41406 278.372 2.41406H276.567V11H274.852V1.04688ZM280.532 11L278.194 6.5293L279.992 6.52246L282.364 10.9111V11H280.532ZM291.435 9.63965V11H286.15V9.63965H291.435ZM286.636 1.04688V11H284.92V1.04688H286.636ZM290.744 5.20312V6.54297H286.15V5.20312H290.744ZM291.4 1.04688V2.41406H286.15V1.04688H291.4ZM297.962 2.37305L294.988 11H293.19L296.937 1.04688H298.085L297.962 2.37305ZM300.45 11L297.47 2.37305L297.34 1.04688H298.495L302.255 11H300.45ZM300.307 7.30859V8.66895H294.893V7.30859H300.307ZM307.853 1.04688V11H306.15V1.04688H307.853ZM310.977 1.04688V2.41406H303.054V1.04688H310.977Z" fill="white"/>
</svg>
