<svg width="130" height="12" viewBox="0 0 130 12" fill="none" xmlns="http://www.w3.org/2000/svg">
<path d="M7.23926 5.18945V6.81641C7.23926 7.5957 7.16178 8.26107 7.00684 8.8125C6.85645 9.35938 6.6377 9.80371 6.35059 10.1455C6.06348 10.4873 5.7194 10.738 5.31836 10.8975C4.92188 11.057 4.47754 11.1367 3.98535 11.1367C3.59342 11.1367 3.22884 11.0866 2.8916 10.9863C2.55892 10.8861 2.25814 10.7288 1.98926 10.5146C1.72038 10.3005 1.49023 10.0247 1.29883 9.6875C1.11198 9.3457 0.966146 8.93783 0.861328 8.46387C0.761068 7.98991 0.710938 7.44076 0.710938 6.81641V5.18945C0.710938 4.4056 0.788411 3.74479 0.943359 3.20703C1.09831 2.66471 1.31934 2.22493 1.60645 1.8877C1.89355 1.5459 2.23535 1.29753 2.63184 1.14258C3.03288 0.98763 3.47949 0.910156 3.97168 0.910156C4.36816 0.910156 4.73275 0.960286 5.06543 1.06055C5.40267 1.15625 5.70345 1.30892 5.96777 1.51855C6.23665 1.72819 6.46452 2.00163 6.65137 2.33887C6.84277 2.67155 6.98861 3.07487 7.08887 3.54883C7.18913 4.01823 7.23926 4.5651 7.23926 5.18945ZM5.5918 7.04883V4.94336C5.5918 4.54688 5.56901 4.19824 5.52344 3.89746C5.47786 3.59212 5.40951 3.33464 5.31836 3.125C5.23177 2.91081 5.1224 2.73763 4.99023 2.60547C4.85807 2.46875 4.70768 2.37077 4.53906 2.31152C4.37044 2.24772 4.18132 2.21582 3.97168 2.21582C3.71647 2.21582 3.48861 2.26595 3.28809 2.36621C3.08757 2.46191 2.91895 2.61686 2.78223 2.83105C2.64551 3.04525 2.54069 3.3278 2.46777 3.67871C2.39941 4.02507 2.36523 4.44661 2.36523 4.94336V7.04883C2.36523 7.44987 2.38802 7.80306 2.43359 8.1084C2.47917 8.41374 2.54753 8.67578 2.63867 8.89453C2.72982 9.10872 2.83919 9.28646 2.9668 9.42773C3.09896 9.56445 3.24935 9.66471 3.41797 9.72852C3.59115 9.79232 3.78027 9.82422 3.98535 9.82422C4.24512 9.82422 4.47526 9.77409 4.67578 9.67383C4.8763 9.57357 5.04492 9.41406 5.18164 9.19531C5.31836 8.97201 5.4209 8.68262 5.48926 8.32715C5.55762 7.97168 5.5918 7.54557 5.5918 7.04883ZM22.8506 1.04688V11H21.1348L16.6709 3.87012V11H14.9551V1.04688H16.6709L21.1484 8.19043V1.04688H22.8506ZM34.0811 5.75V6.29688C34.0811 7.04883 33.9831 7.72331 33.7871 8.32031C33.5911 8.91732 33.3109 9.42546 32.9463 9.84473C32.5863 10.264 32.1533 10.5853 31.6475 10.8086C31.1416 11.0273 30.5811 11.1367 29.9658 11.1367C29.3551 11.1367 28.7969 11.0273 28.291 10.8086C27.7897 10.5853 27.3545 10.264 26.9854 9.84473C26.6162 9.42546 26.3291 8.91732 26.124 8.32031C25.9235 7.72331 25.8232 7.04883 25.8232 6.29688V5.75C25.8232 4.99805 25.9235 4.32585 26.124 3.7334C26.3245 3.13639 26.6071 2.62826 26.9717 2.20898C27.3408 1.78516 27.776 1.46387 28.2773 1.24512C28.7832 1.02181 29.3415 0.910156 29.9521 0.910156C30.5674 0.910156 31.1279 1.02181 31.6338 1.24512C32.1396 1.46387 32.5749 1.78516 32.9395 2.20898C33.304 2.62826 33.5843 3.13639 33.7803 3.7334C33.9808 4.32585 34.0811 4.99805 34.0811 5.75ZM32.3652 6.29688V5.73633C32.3652 5.18034 32.3105 4.69043 32.2012 4.2666C32.0964 3.83822 31.9391 3.48047 31.7295 3.19336C31.5244 2.90169 31.2715 2.68294 30.9707 2.53711C30.6699 2.38672 30.3304 2.31152 29.9521 2.31152C29.5739 2.31152 29.2367 2.38672 28.9404 2.53711C28.6442 2.68294 28.3913 2.90169 28.1816 3.19336C27.9766 3.48047 27.8193 3.83822 27.71 4.2666C27.6006 4.69043 27.5459 5.18034 27.5459 5.73633V6.29688C27.5459 6.85286 27.6006 7.34505 27.71 7.77344C27.8193 8.20182 27.9788 8.56413 28.1885 8.86035C28.4027 9.15202 28.6579 9.37305 28.9541 9.52344C29.2503 9.66927 29.5876 9.74219 29.9658 9.74219C30.3486 9.74219 30.6882 9.66927 30.9844 9.52344C31.2806 9.37305 31.5312 9.15202 31.7363 8.86035C31.9414 8.56413 32.0964 8.20182 32.2012 7.77344C32.3105 7.34505 32.3652 6.85286 32.3652 6.29688ZM40.7998 1.04688V11H39.0977V1.04688H40.7998ZM43.9238 1.04688V2.41406H36.001V1.04688H43.9238ZM48.3184 1.04688V11H46.6025V1.04688H48.3184ZM53.417 1.04688V11H51.7012V1.04688H53.417ZM57.4775 5.40137V6.76172H52.9795V5.40137H57.4775ZM58.0449 1.04688V2.41406H52.9795V1.04688H58.0449ZM62.4941 1.04688V11H60.7783V1.04688H62.4941ZM71.7559 7.75977H73.4648C73.4102 8.41146 73.2279 8.99251 72.918 9.50293C72.6081 10.0088 72.1729 10.4076 71.6123 10.6992C71.0518 10.9909 70.3704 11.1367 69.5684 11.1367C68.9531 11.1367 68.3994 11.0273 67.9072 10.8086C67.415 10.5853 66.9935 10.2708 66.6426 9.86523C66.2917 9.45508 66.0228 8.96061 65.8359 8.38184C65.6536 7.80306 65.5625 7.15592 65.5625 6.44043V5.61328C65.5625 4.89779 65.6559 4.25065 65.8428 3.67188C66.0342 3.0931 66.3076 2.59863 66.6631 2.18848C67.0186 1.77376 67.4447 1.45703 67.9414 1.23828C68.4427 1.01953 69.0055 0.910156 69.6299 0.910156C70.4229 0.910156 71.0928 1.05599 71.6396 1.34766C72.1865 1.63932 72.6104 2.04264 72.9111 2.55762C73.2165 3.07259 73.4033 3.66276 73.4717 4.32812H71.7627C71.7171 3.89974 71.6169 3.53288 71.4619 3.22754C71.3115 2.9222 71.0882 2.68978 70.792 2.53027C70.4958 2.36621 70.1084 2.28418 69.6299 2.28418C69.238 2.28418 68.8962 2.3571 68.6045 2.50293C68.3128 2.64876 68.069 2.86296 67.873 3.14551C67.6771 3.42806 67.529 3.77669 67.4287 4.19141C67.333 4.60156 67.2852 5.07096 67.2852 5.59961V6.44043C67.2852 6.94173 67.3285 7.39746 67.415 7.80762C67.5062 8.21322 67.6429 8.56185 67.8252 8.85352C68.012 9.14518 68.249 9.37077 68.5361 9.53027C68.8232 9.68978 69.1673 9.76953 69.5684 9.76953C70.056 9.76953 70.4502 9.69206 70.751 9.53711C71.0563 9.38216 71.2865 9.15658 71.4414 8.86035C71.6009 8.55957 71.7057 8.19271 71.7559 7.75977ZM80.1494 2.37305L77.1758 11H75.3779L79.124 1.04688H80.2725L80.1494 2.37305ZM82.6377 11L79.6572 2.37305L79.5273 1.04688H80.6826L84.4424 11H82.6377ZM82.4941 7.30859V8.66895H77.0801V7.30859H82.4941ZM90.04 1.04688V11H88.3379V1.04688H90.04ZM93.1641 1.04688V2.41406H85.2412V1.04688H93.1641ZM97.5586 1.04688V11H95.8428V1.04688H97.5586ZM108.878 5.75V6.29688C108.878 7.04883 108.78 7.72331 108.584 8.32031C108.388 8.91732 108.108 9.42546 107.743 9.84473C107.383 10.264 106.95 10.5853 106.444 10.8086C105.938 11.0273 105.378 11.1367 104.763 11.1367C104.152 11.1367 103.594 11.0273 103.088 10.8086C102.587 10.5853 102.151 10.264 101.782 9.84473C101.413 9.42546 101.126 8.91732 100.921 8.32031C100.72 7.72331 100.62 7.04883 100.62 6.29688V5.75C100.62 4.99805 100.72 4.32585 100.921 3.7334C101.121 3.13639 101.404 2.62826 101.769 2.20898C102.138 1.78516 102.573 1.46387 103.074 1.24512C103.58 1.02181 104.138 0.910156 104.749 0.910156C105.364 0.910156 105.925 1.02181 106.431 1.24512C106.937 1.46387 107.372 1.78516 107.736 2.20898C108.101 2.62826 108.381 3.13639 108.577 3.7334C108.778 4.32585 108.878 4.99805 108.878 5.75ZM107.162 6.29688V5.73633C107.162 5.18034 107.107 4.69043 106.998 4.2666C106.893 3.83822 106.736 3.48047 106.526 3.19336C106.321 2.90169 106.068 2.68294 105.768 2.53711C105.467 2.38672 105.127 2.31152 104.749 2.31152C104.371 2.31152 104.034 2.38672 103.737 2.53711C103.441 2.68294 103.188 2.90169 102.979 3.19336C102.773 3.48047 102.616 3.83822 102.507 4.2666C102.397 4.69043 102.343 5.18034 102.343 5.73633V6.29688C102.343 6.85286 102.397 7.34505 102.507 7.77344C102.616 8.20182 102.776 8.56413 102.985 8.86035C103.2 9.15202 103.455 9.37305 103.751 9.52344C104.047 9.66927 104.384 9.74219 104.763 9.74219C105.146 9.74219 105.485 9.66927 105.781 9.52344C106.077 9.37305 106.328 9.15202 106.533 8.86035C106.738 8.56413 106.893 8.20182 106.998 7.77344C107.107 7.34505 107.162 6.85286 107.162 6.29688ZM119.739 1.04688V11H118.023L113.56 3.87012V11H111.844V1.04688H113.56L118.037 8.19043V1.04688H119.739ZM128.27 8.43652C128.27 8.23145 128.238 8.04915 128.174 7.88965C128.115 7.73014 128.007 7.58431 127.853 7.45215C127.698 7.31999 127.479 7.19238 127.196 7.06934C126.918 6.94173 126.563 6.81185 126.13 6.67969C125.656 6.53385 125.218 6.37207 124.817 6.19434C124.421 6.01204 124.075 5.80241 123.778 5.56543C123.482 5.32389 123.252 5.04818 123.088 4.73828C122.924 4.42383 122.842 4.06152 122.842 3.65137C122.842 3.24577 122.926 2.87663 123.095 2.54395C123.268 2.21126 123.512 1.92415 123.826 1.68262C124.145 1.43652 124.521 1.2474 124.954 1.11523C125.387 0.978516 125.866 0.910156 126.39 0.910156C127.128 0.910156 127.764 1.04688 128.297 1.32031C128.835 1.59375 129.247 1.96061 129.534 2.4209C129.826 2.88118 129.972 3.38932 129.972 3.94531H128.27C128.27 3.61719 128.199 3.3278 128.058 3.07715C127.921 2.82194 127.711 2.62142 127.429 2.47559C127.151 2.32975 126.798 2.25684 126.369 2.25684C125.964 2.25684 125.626 2.31836 125.357 2.44141C125.089 2.56445 124.888 2.73079 124.756 2.94043C124.624 3.15007 124.558 3.38704 124.558 3.65137C124.558 3.83822 124.601 4.00911 124.688 4.16406C124.774 4.31445 124.906 4.45573 125.084 4.58789C125.262 4.71549 125.485 4.83626 125.754 4.9502C126.023 5.06413 126.34 5.1735 126.704 5.27832C127.256 5.44238 127.736 5.62467 128.146 5.8252C128.557 6.02116 128.898 6.24447 129.172 6.49512C129.445 6.74577 129.65 7.0306 129.787 7.34961C129.924 7.66406 129.992 8.02181 129.992 8.42285C129.992 8.84212 129.908 9.22038 129.739 9.55762C129.571 9.8903 129.329 10.1751 129.015 10.4121C128.705 10.6445 128.331 10.8245 127.894 10.9521C127.461 11.0752 126.978 11.1367 126.444 11.1367C125.966 11.1367 125.494 11.0729 125.029 10.9453C124.569 10.8177 124.15 10.624 123.771 10.3643C123.393 10.0999 123.092 9.77181 122.869 9.37988C122.646 8.9834 122.534 8.52083 122.534 7.99219H124.25C124.25 8.31576 124.305 8.59147 124.414 8.81934C124.528 9.0472 124.685 9.23405 124.886 9.37988C125.086 9.52116 125.319 9.62598 125.583 9.69434C125.852 9.7627 126.139 9.79688 126.444 9.79688C126.845 9.79688 127.18 9.73991 127.449 9.62598C127.723 9.51204 127.928 9.35254 128.064 9.14746C128.201 8.94238 128.27 8.7054 128.27 8.43652Z" fill="white"/>
</svg>
