<svg width="148" height="13" viewBox="0 0 148 13" fill="none" xmlns="http://www.w3.org/2000/svg">
<path d="M4.8877 2.37305L1.91406 11H0.116211L3.8623 1.04688H5.01074L4.8877 2.37305ZM7.37598 11L4.39551 2.37305L4.26562 1.04688H5.4209L9.18066 11H7.37598ZM7.23242 7.30859V8.66895H1.81836V7.30859H7.23242ZM16.7812 8.43652C16.7812 8.23145 16.7493 8.04915 16.6855 7.88965C16.6263 7.73014 16.5192 7.58431 16.3643 7.45215C16.2093 7.31999 15.9906 7.19238 15.708 7.06934C15.43 6.94173 15.0745 6.81185 14.6416 6.67969C14.1676 6.53385 13.7301 6.37207 13.3291 6.19434C12.9326 6.01204 12.5863 5.80241 12.29 5.56543C11.9938 5.32389 11.7637 5.04818 11.5996 4.73828C11.4355 4.42383 11.3535 4.06152 11.3535 3.65137C11.3535 3.24577 11.4378 2.87663 11.6064 2.54395C11.7796 2.21126 12.0234 1.92415 12.3379 1.68262C12.6569 1.43652 13.0329 1.2474 13.4658 1.11523C13.8988 0.978516 14.3773 0.910156 14.9014 0.910156C15.6396 0.910156 16.2754 1.04688 16.8086 1.32031C17.3464 1.59375 17.7588 1.96061 18.0459 2.4209C18.3376 2.88118 18.4834 3.38932 18.4834 3.94531H16.7812C16.7812 3.61719 16.7106 3.3278 16.5693 3.07715C16.4326 2.82194 16.223 2.62142 15.9404 2.47559C15.6624 2.32975 15.3092 2.25684 14.8809 2.25684C14.4753 2.25684 14.138 2.31836 13.8691 2.44141C13.6003 2.56445 13.3997 2.73079 13.2676 2.94043C13.1354 3.15007 13.0693 3.38704 13.0693 3.65137C13.0693 3.83822 13.1126 4.00911 13.1992 4.16406C13.2858 4.31445 13.418 4.45573 13.5957 4.58789C13.7734 4.71549 13.9967 4.83626 14.2656 4.9502C14.5345 5.06413 14.8512 5.1735 15.2158 5.27832C15.7673 5.44238 16.248 5.62467 16.6582 5.8252C17.0684 6.02116 17.4102 6.24447 17.6836 6.49512C17.957 6.74577 18.1621 7.0306 18.2988 7.34961C18.4355 7.66406 18.5039 8.02181 18.5039 8.42285C18.5039 8.84212 18.4196 9.22038 18.251 9.55762C18.0824 9.8903 17.8408 10.1751 17.5264 10.4121C17.2165 10.6445 16.8428 10.8245 16.4053 10.9521C15.9723 11.0752 15.4893 11.1367 14.9561 11.1367C14.4775 11.1367 14.0059 11.0729 13.541 10.9453C13.0807 10.8177 12.6615 10.624 12.2832 10.3643C11.9049 10.0999 11.6042 9.77181 11.3809 9.37988C11.1576 8.9834 11.0459 8.52083 11.0459 7.99219H12.7617C12.7617 8.31576 12.8164 8.59147 12.9258 8.81934C13.0397 9.0472 13.1969 9.23405 13.3975 9.37988C13.598 9.52116 13.8304 9.62598 14.0947 9.69434C14.3636 9.7627 14.6507 9.79688 14.9561 9.79688C15.3571 9.79688 15.6921 9.73991 15.9609 9.62598C16.2344 9.51204 16.4395 9.35254 16.5762 9.14746C16.7129 8.94238 16.7812 8.7054 16.7812 8.43652ZM22.9873 1.04688V11H21.2715V1.04688H22.9873ZM28.9688 1.04688L24.9355 5.83887L22.6387 8.27246L22.3379 6.57031L23.9785 4.54688L26.877 1.04688H28.9688ZM27.123 11L23.8486 6.2832L25.0312 5.11426L29.1602 11H27.123ZM33.1992 1.04688V11H31.4834V1.04688H33.1992ZM44.4775 1.04688V11H42.7617L38.2979 3.87012V11H36.582V1.04688H38.2979L42.7754 8.19043V1.04688H44.4775ZM55.4141 5.91406V9.71484C55.2728 9.90169 55.0518 10.1068 54.751 10.3301C54.4548 10.5488 54.0605 10.738 53.5684 10.8975C53.0762 11.057 52.4632 11.1367 51.7295 11.1367C51.1051 11.1367 50.5332 11.0319 50.0137 10.8223C49.4941 10.6081 49.0452 10.2959 48.667 9.88574C48.2933 9.47559 48.0039 8.97656 47.7988 8.38867C47.5938 7.79622 47.4912 7.12174 47.4912 6.36523V5.6748C47.4912 4.92285 47.5846 4.25293 47.7715 3.66504C47.9629 3.07259 48.2363 2.57129 48.5918 2.16113C48.9473 1.75098 49.3757 1.44108 49.877 1.23145C50.3828 1.01725 50.9548 0.910156 51.5928 0.910156C52.4085 0.910156 53.083 1.04688 53.6162 1.32031C54.154 1.58919 54.5687 1.96289 54.8604 2.44141C55.152 2.91992 55.3366 3.4668 55.4141 4.08203H53.7324C53.6777 3.73568 53.5706 3.42578 53.4111 3.15234C53.2562 2.87891 53.0329 2.66471 52.7412 2.50977C52.4541 2.35026 52.0804 2.27051 51.6201 2.27051C51.2236 2.27051 50.875 2.3457 50.5742 2.49609C50.2734 2.64648 50.0228 2.86751 49.8223 3.15918C49.6263 3.45085 49.4782 3.80632 49.3779 4.22559C49.2777 4.64486 49.2275 5.12337 49.2275 5.66113V6.36523C49.2275 6.91211 49.2845 7.39746 49.3984 7.82129C49.5169 8.24512 49.6855 8.60286 49.9043 8.89453C50.1276 9.1862 50.3988 9.40723 50.7178 9.55762C51.0368 9.70345 51.3968 9.77637 51.7979 9.77637C52.1898 9.77637 52.5111 9.74447 52.7617 9.68066C53.0124 9.6123 53.2106 9.53255 53.3564 9.44141C53.5068 9.3457 53.623 9.25456 53.7051 9.16797V7.19238H51.6338V5.91406H55.4141ZM68.5713 9.67383L71.1895 11.752L70.0752 12.7295L67.5049 10.6719L68.5713 9.67383ZM71.21 5.75V6.29688C71.21 7.04883 71.112 7.72331 70.916 8.32031C70.7201 8.91732 70.4398 9.42546 70.0752 9.84473C69.7106 10.264 69.2754 10.5853 68.7695 10.8086C68.2637 11.0273 67.7031 11.1367 67.0879 11.1367C66.4772 11.1367 65.9189 11.0273 65.4131 10.8086C64.9118 10.5853 64.4766 10.264 64.1074 9.84473C63.7383 9.42546 63.4512 8.91732 63.2461 8.32031C63.0456 7.72331 62.9453 7.04883 62.9453 6.29688V5.75C62.9453 4.99805 63.0456 4.32585 63.2461 3.7334C63.4466 3.13639 63.7292 2.62826 64.0938 2.20898C64.4629 1.78516 64.8981 1.46387 65.3994 1.24512C65.9053 1.02181 66.4635 0.910156 67.0742 0.910156C67.6895 0.910156 68.25 1.02181 68.7559 1.24512C69.2663 1.46387 69.7038 1.78516 70.0684 2.20898C70.4329 2.62826 70.7132 3.13639 70.9092 3.7334C71.1097 4.32585 71.21 4.99805 71.21 5.75ZM69.4873 6.29688V5.73633C69.4873 5.18034 69.4326 4.69043 69.3232 4.2666C69.2184 3.83822 69.0612 3.48047 68.8516 3.19336C68.6465 2.90169 68.3936 2.68294 68.0928 2.53711C67.7965 2.38672 67.457 2.31152 67.0742 2.31152C66.7005 2.31152 66.3656 2.38672 66.0693 2.53711C65.7731 2.68294 65.5202 2.90169 65.3105 3.19336C65.1009 3.48047 64.9414 3.83822 64.832 4.2666C64.7227 4.69043 64.668 5.18034 64.668 5.73633V6.29688C64.668 6.85286 64.7227 7.34505 64.832 7.77344C64.9414 8.20182 65.1009 8.56413 65.3105 8.86035C65.5247 9.15202 65.7799 9.37305 66.0762 9.52344C66.377 9.66927 66.7142 9.74219 67.0879 9.74219C67.4707 9.74219 67.8102 9.66927 68.1064 9.52344C68.4027 9.37305 68.6533 9.15202 68.8584 8.86035C69.0635 8.56413 69.2184 8.20182 69.3232 7.77344C69.4326 7.34505 69.4873 6.85286 69.4873 6.29688ZM79.7881 1.04688H81.4971V7.69824C81.4971 8.45475 81.333 9.08822 81.0049 9.59863C80.6768 10.109 80.2301 10.4941 79.665 10.7539C79.1045 11.0091 78.4779 11.1367 77.7852 11.1367C77.0697 11.1367 76.4316 11.0091 75.8711 10.7539C75.3105 10.4941 74.8685 10.109 74.5449 9.59863C74.2259 9.08822 74.0664 8.45475 74.0664 7.69824V1.04688H75.7754V7.69824C75.7754 8.17676 75.8574 8.57096 76.0215 8.88086C76.1855 9.1862 76.418 9.41178 76.7188 9.55762C77.0195 9.70345 77.375 9.77637 77.7852 9.77637C78.1953 9.77637 78.5485 9.70345 78.8447 9.55762C79.1455 9.41178 79.3779 9.1862 79.542 8.88086C79.7061 8.57096 79.7881 8.17676 79.7881 7.69824V1.04688ZM91.1279 9.63965V11H85.8438V9.63965H91.1279ZM86.3291 1.04688V11H84.6133V1.04688H86.3291ZM90.4375 5.20312V6.54297H85.8438V5.20312H90.4375ZM91.0938 1.04688V2.41406H85.8438V1.04688H91.0938ZM99.0156 8.43652C99.0156 8.23145 98.9837 8.04915 98.9199 7.88965C98.8607 7.73014 98.7536 7.58431 98.5986 7.45215C98.4437 7.31999 98.2249 7.19238 97.9424 7.06934C97.6644 6.94173 97.3089 6.81185 96.876 6.67969C96.402 6.53385 95.9645 6.37207 95.5635 6.19434C95.167 6.01204 94.8206 5.80241 94.5244 5.56543C94.2282 5.32389 93.998 5.04818 93.834 4.73828C93.6699 4.42383 93.5879 4.06152 93.5879 3.65137C93.5879 3.24577 93.6722 2.87663 93.8408 2.54395C94.014 2.21126 94.2578 1.92415 94.5723 1.68262C94.8913 1.43652 95.2673 1.2474 95.7002 1.11523C96.1331 0.978516 96.6117 0.910156 97.1357 0.910156C97.874 0.910156 98.5098 1.04688 99.043 1.32031C99.5807 1.59375 99.9932 1.96061 100.28 2.4209C100.572 2.88118 100.718 3.38932 100.718 3.94531H99.0156C99.0156 3.61719 98.945 3.3278 98.8037 3.07715C98.667 2.82194 98.4574 2.62142 98.1748 2.47559C97.8968 2.32975 97.5436 2.25684 97.1152 2.25684C96.7096 2.25684 96.3724 2.31836 96.1035 2.44141C95.8346 2.56445 95.6341 2.73079 95.502 2.94043C95.3698 3.15007 95.3037 3.38704 95.3037 3.65137C95.3037 3.83822 95.347 4.00911 95.4336 4.16406C95.5202 4.31445 95.6523 4.45573 95.8301 4.58789C96.0078 4.71549 96.2311 4.83626 96.5 4.9502C96.7689 5.06413 97.0856 5.1735 97.4502 5.27832C98.0016 5.44238 98.4824 5.62467 98.8926 5.8252C99.3027 6.02116 99.6445 6.24447 99.918 6.49512C100.191 6.74577 100.396 7.0306 100.533 7.34961C100.67 7.66406 100.738 8.02181 100.738 8.42285C100.738 8.84212 100.654 9.22038 100.485 9.55762C100.317 9.8903 100.075 10.1751 99.7607 10.4121C99.4508 10.6445 99.0771 10.8245 98.6396 10.9521C98.2067 11.0752 97.7236 11.1367 97.1904 11.1367C96.7119 11.1367 96.2402 11.0729 95.7754 10.9453C95.3151 10.8177 94.8958 10.624 94.5176 10.3643C94.1393 10.0999 93.8385 9.77181 93.6152 9.37988C93.3919 8.9834 93.2803 8.52083 93.2803 7.99219H94.9961C94.9961 8.31576 95.0508 8.59147 95.1602 8.81934C95.2741 9.0472 95.4313 9.23405 95.6318 9.37988C95.8324 9.52116 96.0648 9.62598 96.3291 9.69434C96.598 9.7627 96.8851 9.79688 97.1904 9.79688C97.5915 9.79688 97.9264 9.73991 98.1953 9.62598C98.4688 9.51204 98.6738 9.35254 98.8105 9.14746C98.9473 8.94238 99.0156 8.7054 99.0156 8.43652ZM107.601 1.04688V11H105.898V1.04688H107.601ZM110.725 1.04688V2.41406H102.802V1.04688H110.725ZM115.119 1.04688V11H113.403V1.04688H115.119ZM126.438 5.75V6.29688C126.438 7.04883 126.34 7.72331 126.145 8.32031C125.949 8.91732 125.668 9.42546 125.304 9.84473C124.944 10.264 124.511 10.5853 124.005 10.8086C123.499 11.0273 122.938 11.1367 122.323 11.1367C121.713 11.1367 121.154 11.0273 120.648 10.8086C120.147 10.5853 119.712 10.264 119.343 9.84473C118.974 9.42546 118.687 8.91732 118.481 8.32031C118.281 7.72331 118.181 7.04883 118.181 6.29688V5.75C118.181 4.99805 118.281 4.32585 118.481 3.7334C118.682 3.13639 118.965 2.62826 119.329 2.20898C119.698 1.78516 120.133 1.46387 120.635 1.24512C121.141 1.02181 121.699 0.910156 122.31 0.910156C122.925 0.910156 123.485 1.02181 123.991 1.24512C124.497 1.46387 124.932 1.78516 125.297 2.20898C125.661 2.62826 125.942 3.13639 126.138 3.7334C126.338 4.32585 126.438 4.99805 126.438 5.75ZM124.723 6.29688V5.73633C124.723 5.18034 124.668 4.69043 124.559 4.2666C124.454 3.83822 124.297 3.48047 124.087 3.19336C123.882 2.90169 123.629 2.68294 123.328 2.53711C123.027 2.38672 122.688 2.31152 122.31 2.31152C121.931 2.31152 121.594 2.38672 121.298 2.53711C121.002 2.68294 120.749 2.90169 120.539 3.19336C120.334 3.48047 120.177 3.83822 120.067 4.2666C119.958 4.69043 119.903 5.18034 119.903 5.73633V6.29688C119.903 6.85286 119.958 7.34505 120.067 7.77344C120.177 8.20182 120.336 8.56413 120.546 8.86035C120.76 9.15202 121.015 9.37305 121.312 9.52344C121.608 9.66927 121.945 9.74219 122.323 9.74219C122.706 9.74219 123.046 9.66927 123.342 9.52344C123.638 9.37305 123.889 9.15202 124.094 8.86035C124.299 8.56413 124.454 8.20182 124.559 7.77344C124.668 7.34505 124.723 6.85286 124.723 6.29688ZM137.3 1.04688V11H135.584L131.12 3.87012V11H129.404V1.04688H131.12L135.598 8.19043V1.04688H137.3ZM145.83 8.43652C145.83 8.23145 145.798 8.04915 145.734 7.88965C145.675 7.73014 145.568 7.58431 145.413 7.45215C145.258 7.31999 145.039 7.19238 144.757 7.06934C144.479 6.94173 144.123 6.81185 143.69 6.67969C143.216 6.53385 142.779 6.37207 142.378 6.19434C141.981 6.01204 141.635 5.80241 141.339 5.56543C141.043 5.32389 140.812 5.04818 140.648 4.73828C140.484 4.42383 140.402 4.06152 140.402 3.65137C140.402 3.24577 140.487 2.87663 140.655 2.54395C140.828 2.21126 141.072 1.92415 141.387 1.68262C141.706 1.43652 142.082 1.2474 142.515 1.11523C142.948 0.978516 143.426 0.910156 143.95 0.910156C144.688 0.910156 145.324 1.04688 145.857 1.32031C146.395 1.59375 146.808 1.96061 147.095 2.4209C147.386 2.88118 147.532 3.38932 147.532 3.94531H145.83C145.83 3.61719 145.759 3.3278 145.618 3.07715C145.481 2.82194 145.272 2.62142 144.989 2.47559C144.711 2.32975 144.358 2.25684 143.93 2.25684C143.524 2.25684 143.187 2.31836 142.918 2.44141C142.649 2.56445 142.449 2.73079 142.316 2.94043C142.184 3.15007 142.118 3.38704 142.118 3.65137C142.118 3.83822 142.161 4.00911 142.248 4.16406C142.335 4.31445 142.467 4.45573 142.645 4.58789C142.822 4.71549 143.046 4.83626 143.314 4.9502C143.583 5.06413 143.9 5.1735 144.265 5.27832C144.816 5.44238 145.297 5.62467 145.707 5.8252C146.117 6.02116 146.459 6.24447 146.732 6.49512C147.006 6.74577 147.211 7.0306 147.348 7.34961C147.484 7.66406 147.553 8.02181 147.553 8.42285C147.553 8.84212 147.468 9.22038 147.3 9.55762C147.131 9.8903 146.89 10.1751 146.575 10.4121C146.265 10.6445 145.892 10.8245 145.454 10.9521C145.021 11.0752 144.538 11.1367 144.005 11.1367C143.526 11.1367 143.055 11.0729 142.59 10.9453C142.13 10.8177 141.71 10.624 141.332 10.3643C140.954 10.0999 140.653 9.77181 140.43 9.37988C140.206 8.9834 140.095 8.52083 140.095 7.99219H141.811C141.811 8.31576 141.865 8.59147 141.975 8.81934C142.089 9.0472 142.246 9.23405 142.446 9.37988C142.647 9.52116 142.879 9.62598 143.144 9.69434C143.412 9.7627 143.7 9.79688 144.005 9.79688C144.406 9.79688 144.741 9.73991 145.01 9.62598C145.283 9.51204 145.488 9.35254 145.625 9.14746C145.762 8.94238 145.83 8.7054 145.83 8.43652Z" fill="white"/>
</svg>
