<svg width="293" height="12" viewBox="0 0 293 12" fill="none" xmlns="http://www.w3.org/2000/svg">
<path d="M1.72754 1.04688V11H0.0117188V1.04688H1.72754ZM7.70898 1.04688L3.67578 5.83887L1.37891 8.27246L1.07812 6.57031L2.71875 4.54688L5.61719 1.04688H7.70898ZM5.86328 11L2.58887 6.2832L3.77148 5.11426L7.90039 11H5.86328ZM18.0029 1.04688V11H16.2871L11.8232 3.87012V11H10.1074V1.04688H11.8232L16.3008 8.19043V1.04688H18.0029ZM29.2334 5.75V6.29688C29.2334 7.04883 29.1354 7.72331 28.9395 8.32031C28.7435 8.91732 28.4632 9.42546 28.0986 9.84473C27.7386 10.264 27.3057 10.5853 26.7998 10.8086C26.2939 11.0273 25.7334 11.1367 25.1182 11.1367C24.5075 11.1367 23.9492 11.0273 23.4434 10.8086C22.9421 10.5853 22.5068 10.264 22.1377 9.84473C21.7686 9.42546 21.4814 8.91732 21.2764 8.32031C21.0758 7.72331 20.9756 7.04883 20.9756 6.29688V5.75C20.9756 4.99805 21.0758 4.32585 21.2764 3.7334C21.4769 3.13639 21.7594 2.62826 22.124 2.20898C22.4932 1.78516 22.9284 1.46387 23.4297 1.24512C23.9355 1.02181 24.4938 0.910156 25.1045 0.910156C25.7197 0.910156 26.2803 1.02181 26.7861 1.24512C27.292 1.46387 27.7272 1.78516 28.0918 2.20898C28.4564 2.62826 28.7367 3.13639 28.9326 3.7334C29.1331 4.32585 29.2334 4.99805 29.2334 5.75ZM27.5176 6.29688V5.73633C27.5176 5.18034 27.4629 4.69043 27.3535 4.2666C27.2487 3.83822 27.0915 3.48047 26.8818 3.19336C26.6768 2.90169 26.4238 2.68294 26.123 2.53711C25.8223 2.38672 25.4827 2.31152 25.1045 2.31152C24.7262 2.31152 24.389 2.38672 24.0928 2.53711C23.7965 2.68294 23.5436 2.90169 23.334 3.19336C23.1289 3.48047 22.9717 3.83822 22.8623 4.2666C22.7529 4.69043 22.6982 5.18034 22.6982 5.73633V6.29688C22.6982 6.85286 22.7529 7.34505 22.8623 7.77344C22.9717 8.20182 23.1312 8.56413 23.3408 8.86035C23.555 9.15202 23.8102 9.37305 24.1064 9.52344C24.4027 9.66927 24.7399 9.74219 25.1182 9.74219C25.501 9.74219 25.8405 9.66927 26.1367 9.52344C26.4329 9.37305 26.6836 9.15202 26.8887 8.86035C27.0938 8.56413 27.2487 8.20182 27.3535 7.77344C27.4629 7.34505 27.5176 6.85286 27.5176 6.29688ZM34.6943 8.76465L36.6768 1.04688H37.7158L37.5996 3.03613L35.4805 11H34.4004L34.6943 8.76465ZM33.2109 1.04688L34.8174 8.70312L34.9609 11H33.8125L31.5088 1.04688H33.2109ZM39.9648 8.68262L41.5508 1.04688H43.2598L40.9561 11H39.8076L39.9648 8.68262ZM38.1191 1.04688L40.0811 8.78516L40.3682 11H39.2881L37.2031 3.03613L37.0938 1.04688H38.1191ZM47.6133 1.04688V11H45.8975V1.04688H47.6133ZM58.8916 1.04688V11H57.1758L52.7119 3.87012V11H50.9961V1.04688H52.7119L57.1895 8.19043V1.04688H58.8916ZM69.8281 5.91406V9.71484C69.6868 9.90169 69.4658 10.1068 69.165 10.3301C68.8688 10.5488 68.4746 10.738 67.9824 10.8975C67.4902 11.057 66.8773 11.1367 66.1436 11.1367C65.5192 11.1367 64.9473 11.0319 64.4277 10.8223C63.9082 10.6081 63.4593 10.2959 63.0811 9.88574C62.7074 9.47559 62.418 8.97656 62.2129 8.38867C62.0078 7.79622 61.9053 7.12174 61.9053 6.36523V5.6748C61.9053 4.92285 61.9987 4.25293 62.1855 3.66504C62.377 3.07259 62.6504 2.57129 63.0059 2.16113C63.3613 1.75098 63.7897 1.44108 64.291 1.23145C64.7969 1.01725 65.3688 0.910156 66.0068 0.910156C66.8226 0.910156 67.4971 1.04688 68.0303 1.32031C68.568 1.58919 68.9827 1.96289 69.2744 2.44141C69.5661 2.91992 69.7507 3.4668 69.8281 4.08203H68.1465C68.0918 3.73568 67.9847 3.42578 67.8252 3.15234C67.6702 2.87891 67.4469 2.66471 67.1553 2.50977C66.8682 2.35026 66.4945 2.27051 66.0342 2.27051C65.6377 2.27051 65.2891 2.3457 64.9883 2.49609C64.6875 2.64648 64.4368 2.86751 64.2363 3.15918C64.0404 3.45085 63.8923 3.80632 63.792 4.22559C63.6917 4.64486 63.6416 5.12337 63.6416 5.66113V6.36523C63.6416 6.91211 63.6986 7.39746 63.8125 7.82129C63.931 8.24512 64.0996 8.60286 64.3184 8.89453C64.5417 9.1862 64.8128 9.40723 65.1318 9.55762C65.4508 9.70345 65.8109 9.77637 66.2119 9.77637C66.6038 9.77637 66.9251 9.74447 67.1758 9.68066C67.4264 9.6123 67.6247 9.53255 67.7705 9.44141C67.9209 9.3457 68.0371 9.25456 68.1191 9.16797V7.19238H66.0479V5.91406H69.8281ZM81.126 9.18164L83.7441 1.04688H85.6377L82.0693 11H80.791L81.126 9.18164ZM78.7061 1.04688L81.3037 9.18164L81.6592 11H80.374L76.8193 1.04688H78.7061ZM91.3584 2.37305L88.3848 11H86.5869L90.333 1.04688H91.4814L91.3584 2.37305ZM93.8467 11L90.8662 2.37305L90.7363 1.04688H91.8916L95.6514 11H93.8467ZM93.7031 7.30859V8.66895H88.2891V7.30859H93.7031ZM98.0156 1.04688H101.536C102.293 1.04688 102.938 1.16081 103.471 1.38867C104.004 1.61654 104.412 1.95378 104.694 2.40039C104.981 2.84245 105.125 3.38932 105.125 4.04102C105.125 4.53776 105.034 4.97526 104.852 5.35352C104.669 5.73177 104.412 6.05078 104.079 6.31055C103.746 6.56576 103.35 6.764 102.89 6.90527L102.37 7.1582H99.2051L99.1914 5.79785H101.563C101.974 5.79785 102.315 5.72493 102.589 5.5791C102.862 5.43327 103.067 5.23503 103.204 4.98438C103.345 4.72917 103.416 4.44206 103.416 4.12305C103.416 3.77669 103.348 3.47591 103.211 3.2207C103.079 2.96094 102.874 2.7627 102.596 2.62598C102.318 2.4847 101.965 2.41406 101.536 2.41406H99.7314V11H98.0156V1.04688ZM103.696 11L101.358 6.5293L103.156 6.52246L105.528 10.9111V11H103.696ZM109.916 1.04688V11H108.2V1.04688H109.916ZM121.235 5.75V6.29688C121.235 7.04883 121.137 7.72331 120.941 8.32031C120.745 8.91732 120.465 9.42546 120.101 9.84473C119.741 10.264 119.308 10.5853 118.802 10.8086C118.296 11.0273 117.735 11.1367 117.12 11.1367C116.509 11.1367 115.951 11.0273 115.445 10.8086C114.944 10.5853 114.509 10.264 114.14 9.84473C113.771 9.42546 113.483 8.91732 113.278 8.32031C113.078 7.72331 112.978 7.04883 112.978 6.29688V5.75C112.978 4.99805 113.078 4.32585 113.278 3.7334C113.479 3.13639 113.761 2.62826 114.126 2.20898C114.495 1.78516 114.93 1.46387 115.432 1.24512C115.938 1.02181 116.496 0.910156 117.106 0.910156C117.722 0.910156 118.282 1.02181 118.788 1.24512C119.294 1.46387 119.729 1.78516 120.094 2.20898C120.458 2.62826 120.739 3.13639 120.935 3.7334C121.135 4.32585 121.235 4.99805 121.235 5.75ZM119.52 6.29688V5.73633C119.52 5.18034 119.465 4.69043 119.355 4.2666C119.251 3.83822 119.093 3.48047 118.884 3.19336C118.679 2.90169 118.426 2.68294 118.125 2.53711C117.824 2.38672 117.485 2.31152 117.106 2.31152C116.728 2.31152 116.391 2.38672 116.095 2.53711C115.799 2.68294 115.546 2.90169 115.336 3.19336C115.131 3.48047 114.974 3.83822 114.864 4.2666C114.755 4.69043 114.7 5.18034 114.7 5.73633V6.29688C114.7 6.85286 114.755 7.34505 114.864 7.77344C114.974 8.20182 115.133 8.56413 115.343 8.86035C115.557 9.15202 115.812 9.37305 116.108 9.52344C116.405 9.66927 116.742 9.74219 117.12 9.74219C117.503 9.74219 117.842 9.66927 118.139 9.52344C118.435 9.37305 118.686 9.15202 118.891 8.86035C119.096 8.56413 119.251 8.20182 119.355 7.77344C119.465 7.34505 119.52 6.85286 119.52 6.29688ZM129.786 1.04688H131.495V7.69824C131.495 8.45475 131.331 9.08822 131.003 9.59863C130.675 10.109 130.228 10.4941 129.663 10.7539C129.103 11.0091 128.476 11.1367 127.783 11.1367C127.068 11.1367 126.43 11.0091 125.869 10.7539C125.309 10.4941 124.867 10.109 124.543 9.59863C124.224 9.08822 124.064 8.45475 124.064 7.69824V1.04688H125.773V7.69824C125.773 8.17676 125.855 8.57096 126.02 8.88086C126.184 9.1862 126.416 9.41178 126.717 9.55762C127.018 9.70345 127.373 9.77637 127.783 9.77637C128.193 9.77637 128.547 9.70345 128.843 9.55762C129.144 9.41178 129.376 9.1862 129.54 8.88086C129.704 8.57096 129.786 8.17676 129.786 7.69824V1.04688ZM139.848 8.43652C139.848 8.23145 139.816 8.04915 139.752 7.88965C139.693 7.73014 139.586 7.58431 139.431 7.45215C139.276 7.31999 139.057 7.19238 138.774 7.06934C138.496 6.94173 138.141 6.81185 137.708 6.67969C137.234 6.53385 136.797 6.37207 136.396 6.19434C135.999 6.01204 135.653 5.80241 135.356 5.56543C135.06 5.32389 134.83 5.04818 134.666 4.73828C134.502 4.42383 134.42 4.06152 134.42 3.65137C134.42 3.24577 134.504 2.87663 134.673 2.54395C134.846 2.21126 135.09 1.92415 135.404 1.68262C135.723 1.43652 136.099 1.2474 136.532 1.11523C136.965 0.978516 137.444 0.910156 137.968 0.910156C138.706 0.910156 139.342 1.04688 139.875 1.32031C140.413 1.59375 140.825 1.96061 141.112 2.4209C141.404 2.88118 141.55 3.38932 141.55 3.94531H139.848C139.848 3.61719 139.777 3.3278 139.636 3.07715C139.499 2.82194 139.289 2.62142 139.007 2.47559C138.729 2.32975 138.376 2.25684 137.947 2.25684C137.542 2.25684 137.204 2.31836 136.936 2.44141C136.667 2.56445 136.466 2.73079 136.334 2.94043C136.202 3.15007 136.136 3.38704 136.136 3.65137C136.136 3.83822 136.179 4.00911 136.266 4.16406C136.352 4.31445 136.484 4.45573 136.662 4.58789C136.84 4.71549 137.063 4.83626 137.332 4.9502C137.601 5.06413 137.918 5.1735 138.282 5.27832C138.834 5.44238 139.314 5.62467 139.725 5.8252C140.135 6.02116 140.477 6.24447 140.75 6.49512C141.023 6.74577 141.229 7.0306 141.365 7.34961C141.502 7.66406 141.57 8.02181 141.57 8.42285C141.57 8.84212 141.486 9.22038 141.317 9.55762C141.149 9.8903 140.907 10.1751 140.593 10.4121C140.283 10.6445 139.909 10.8245 139.472 10.9521C139.039 11.0752 138.556 11.1367 138.022 11.1367C137.544 11.1367 137.072 11.0729 136.607 10.9453C136.147 10.8177 135.728 10.624 135.35 10.3643C134.971 10.0999 134.671 9.77181 134.447 9.37988C134.224 8.9834 134.112 8.52083 134.112 7.99219H135.828C135.828 8.31576 135.883 8.59147 135.992 8.81934C136.106 9.0472 136.263 9.23405 136.464 9.37988C136.664 9.52116 136.897 9.62598 137.161 9.69434C137.43 9.7627 137.717 9.79688 138.022 9.79688C138.424 9.79688 138.758 9.73991 139.027 9.62598C139.301 9.51204 139.506 9.35254 139.643 9.14746C139.779 8.94238 139.848 8.7054 139.848 8.43652ZM151.569 8.76465L153.552 1.04688H154.591L154.475 3.03613L152.355 11H151.275L151.569 8.76465ZM150.086 1.04688L151.692 8.70312L151.836 11H150.688L148.384 1.04688H150.086ZM156.84 8.68262L158.426 1.04688H160.135L157.831 11H156.683L156.84 8.68262ZM154.994 1.04688L156.956 8.78516L157.243 11H156.163L154.078 3.03613L153.969 1.04688H154.994ZM169.171 9.63965V11H163.887V9.63965H169.171ZM164.372 1.04688V11H162.656V1.04688H164.372ZM168.48 5.20312V6.54297H163.887V5.20312H168.48ZM169.137 1.04688V2.41406H163.887V1.04688H169.137ZM175.555 6.50195H173.019L173.005 5.25098H175.22C175.593 5.25098 175.91 5.19629 176.17 5.08691C176.434 4.97298 176.635 4.8112 176.771 4.60156C176.908 4.38737 176.977 4.12988 176.977 3.8291C176.977 3.49642 176.913 3.22526 176.785 3.01562C176.658 2.80599 176.462 2.65332 176.197 2.55762C175.938 2.46191 175.605 2.41406 175.199 2.41406H173.538V11H171.822V1.04688H175.199C175.746 1.04688 176.234 1.09928 176.662 1.2041C177.095 1.30892 177.462 1.47298 177.763 1.69629C178.068 1.91504 178.298 2.19303 178.453 2.53027C178.613 2.86751 178.692 3.26855 178.692 3.7334C178.692 4.14355 178.594 4.51953 178.398 4.86133C178.202 5.19857 177.913 5.47428 177.53 5.68848C177.147 5.90267 176.671 6.03027 176.102 6.07129L175.555 6.50195ZM175.479 11H172.479L173.251 9.63965H175.479C175.867 9.63965 176.19 9.57585 176.45 9.44824C176.71 9.31608 176.904 9.13607 177.031 8.9082C177.163 8.67578 177.229 8.40462 177.229 8.09473C177.229 7.77116 177.173 7.49089 177.059 7.25391C176.945 7.01237 176.765 6.8278 176.519 6.7002C176.272 6.56803 175.951 6.50195 175.555 6.50195H173.627L173.641 5.25098H176.149L176.539 5.72266C177.086 5.74089 177.535 5.86165 177.886 6.08496C178.241 6.30827 178.506 6.59766 178.679 6.95312C178.852 7.30859 178.938 7.69141 178.938 8.10156C178.938 8.73503 178.799 9.26595 178.521 9.69434C178.248 10.1227 177.854 10.4486 177.339 10.6719C176.824 10.8906 176.204 11 175.479 11ZM183.593 5.27832H184.577C184.96 5.27832 185.277 5.21224 185.527 5.08008C185.783 4.94792 185.972 4.76562 186.095 4.5332C186.218 4.30078 186.279 4.03418 186.279 3.7334C186.279 3.41895 186.222 3.15007 186.108 2.92676C185.999 2.69889 185.83 2.52344 185.603 2.40039C185.379 2.27734 185.094 2.21582 184.748 2.21582C184.456 2.21582 184.192 2.27507 183.955 2.39355C183.723 2.50749 183.538 2.67155 183.401 2.88574C183.265 3.09538 183.196 3.34603 183.196 3.6377H181.542C181.542 3.10905 181.681 2.63965 181.959 2.22949C182.237 1.81934 182.615 1.49805 183.094 1.26562C183.577 1.02865 184.119 0.910156 184.721 0.910156C185.363 0.910156 185.924 1.01725 186.402 1.23145C186.885 1.44108 187.261 1.75553 187.53 2.1748C187.799 2.59408 187.934 3.11361 187.934 3.7334C187.934 4.01595 187.868 4.30306 187.735 4.59473C187.603 4.88639 187.407 5.15299 187.147 5.39453C186.888 5.63151 186.564 5.8252 186.177 5.97559C185.789 6.12142 185.34 6.19434 184.83 6.19434H183.593V5.27832ZM183.593 6.56348V5.66113H184.83C185.413 5.66113 185.91 5.72949 186.32 5.86621C186.735 6.00293 187.072 6.19206 187.332 6.43359C187.592 6.67057 187.781 6.94173 187.899 7.24707C188.022 7.55241 188.084 7.87598 188.084 8.21777C188.084 8.68262 188 9.09733 187.831 9.46191C187.667 9.82194 187.432 10.1273 187.127 10.3779C186.822 10.6286 186.464 10.8177 186.054 10.9453C185.648 11.0729 185.206 11.1367 184.728 11.1367C184.299 11.1367 183.889 11.0775 183.497 10.959C183.105 10.8405 182.754 10.665 182.444 10.4326C182.134 10.1956 181.888 9.90169 181.706 9.55078C181.528 9.19531 181.439 8.78516 181.439 8.32031H183.087C183.087 8.61654 183.155 8.87858 183.292 9.10645C183.433 9.32975 183.629 9.50521 183.88 9.63281C184.135 9.76042 184.427 9.82422 184.755 9.82422C185.101 9.82422 185.4 9.7627 185.65 9.63965C185.901 9.5166 186.092 9.33431 186.225 9.09277C186.361 8.85124 186.43 8.55957 186.43 8.21777C186.43 7.8304 186.354 7.51595 186.204 7.27441C186.054 7.03288 185.84 6.85514 185.562 6.74121C185.284 6.62272 184.955 6.56348 184.577 6.56348H183.593ZM191.029 10.1797C191.029 9.92448 191.116 9.71029 191.289 9.53711C191.462 9.35938 191.697 9.27051 191.993 9.27051C192.294 9.27051 192.529 9.35938 192.697 9.53711C192.87 9.71029 192.957 9.92448 192.957 10.1797C192.957 10.4349 192.87 10.6491 192.697 10.8223C192.529 10.9954 192.294 11.082 191.993 11.082C191.697 11.082 191.462 10.9954 191.289 10.8223C191.116 10.6491 191.029 10.4349 191.029 10.1797ZM202.499 5.18945V6.81641C202.499 7.5957 202.422 8.26107 202.267 8.8125C202.116 9.35938 201.897 9.80371 201.61 10.1455C201.323 10.4873 200.979 10.738 200.578 10.8975C200.182 11.057 199.737 11.1367 199.245 11.1367C198.853 11.1367 198.489 11.0866 198.151 10.9863C197.819 10.8861 197.518 10.7288 197.249 10.5146C196.98 10.3005 196.75 10.0247 196.559 9.6875C196.372 9.3457 196.226 8.93783 196.121 8.46387C196.021 7.98991 195.971 7.44076 195.971 6.81641V5.18945C195.971 4.4056 196.048 3.74479 196.203 3.20703C196.358 2.66471 196.579 2.22493 196.866 1.8877C197.153 1.5459 197.495 1.29753 197.892 1.14258C198.293 0.98763 198.739 0.910156 199.231 0.910156C199.628 0.910156 199.993 0.960286 200.325 1.06055C200.662 1.15625 200.963 1.30892 201.228 1.51855C201.496 1.72819 201.724 2.00163 201.911 2.33887C202.103 2.67155 202.248 3.07487 202.349 3.54883C202.449 4.01823 202.499 4.5651 202.499 5.18945ZM200.852 7.04883V4.94336C200.852 4.54688 200.829 4.19824 200.783 3.89746C200.738 3.59212 200.669 3.33464 200.578 3.125C200.492 2.91081 200.382 2.73763 200.25 2.60547C200.118 2.46875 199.967 2.37077 199.799 2.31152C199.63 2.24772 199.441 2.21582 199.231 2.21582C198.976 2.21582 198.748 2.26595 198.548 2.36621C198.347 2.46191 198.179 2.61686 198.042 2.83105C197.905 3.04525 197.8 3.3278 197.728 3.67871C197.659 4.02507 197.625 4.44661 197.625 4.94336V7.04883C197.625 7.44987 197.648 7.80306 197.693 8.1084C197.739 8.41374 197.807 8.67578 197.898 8.89453C197.99 9.10872 198.099 9.28646 198.227 9.42773C198.359 9.56445 198.509 9.66471 198.678 9.72852C198.851 9.79232 199.04 9.82422 199.245 9.82422C199.505 9.82422 199.735 9.77409 199.936 9.67383C200.136 9.57357 200.305 9.41406 200.441 9.19531C200.578 8.97201 200.681 8.68262 200.749 8.32715C200.817 7.97168 200.852 7.54557 200.852 7.04883ZM215.8 1.04688H217.509V7.69824C217.509 8.45475 217.345 9.08822 217.017 9.59863C216.688 10.109 216.242 10.4941 215.677 10.7539C215.116 11.0091 214.49 11.1367 213.797 11.1367C213.081 11.1367 212.443 11.0091 211.883 10.7539C211.322 10.4941 210.88 10.109 210.557 9.59863C210.238 9.08822 210.078 8.45475 210.078 7.69824V1.04688H211.787V7.69824C211.787 8.17676 211.869 8.57096 212.033 8.88086C212.197 9.1862 212.43 9.41178 212.73 9.55762C213.031 9.70345 213.387 9.77637 213.797 9.77637C214.207 9.77637 214.56 9.70345 214.856 9.55762C215.157 9.41178 215.39 9.1862 215.554 8.88086C215.718 8.57096 215.8 8.17676 215.8 7.69824V1.04688ZM225.861 8.43652C225.861 8.23145 225.829 8.04915 225.766 7.88965C225.706 7.73014 225.599 7.58431 225.444 7.45215C225.289 7.31999 225.071 7.19238 224.788 7.06934C224.51 6.94173 224.155 6.81185 223.722 6.67969C223.248 6.53385 222.81 6.37207 222.409 6.19434C222.013 6.01204 221.666 5.80241 221.37 5.56543C221.074 5.32389 220.844 5.04818 220.68 4.73828C220.516 4.42383 220.434 4.06152 220.434 3.65137C220.434 3.24577 220.518 2.87663 220.687 2.54395C220.86 2.21126 221.104 1.92415 221.418 1.68262C221.737 1.43652 222.113 1.2474 222.546 1.11523C222.979 0.978516 223.457 0.910156 223.981 0.910156C224.72 0.910156 225.355 1.04688 225.889 1.32031C226.426 1.59375 226.839 1.96061 227.126 2.4209C227.418 2.88118 227.563 3.38932 227.563 3.94531H225.861C225.861 3.61719 225.791 3.3278 225.649 3.07715C225.513 2.82194 225.303 2.62142 225.021 2.47559C224.743 2.32975 224.389 2.25684 223.961 2.25684C223.555 2.25684 223.218 2.31836 222.949 2.44141C222.68 2.56445 222.48 2.73079 222.348 2.94043C222.215 3.15007 222.149 3.38704 222.149 3.65137C222.149 3.83822 222.193 4.00911 222.279 4.16406C222.366 4.31445 222.498 4.45573 222.676 4.58789C222.854 4.71549 223.077 4.83626 223.346 4.9502C223.615 5.06413 223.931 5.1735 224.296 5.27832C224.847 5.44238 225.328 5.62467 225.738 5.8252C226.148 6.02116 226.49 6.24447 226.764 6.49512C227.037 6.74577 227.242 7.0306 227.379 7.34961C227.516 7.66406 227.584 8.02181 227.584 8.42285C227.584 8.84212 227.5 9.22038 227.331 9.55762C227.162 9.8903 226.921 10.1751 226.606 10.4121C226.297 10.6445 225.923 10.8245 225.485 10.9521C225.052 11.0752 224.569 11.1367 224.036 11.1367C223.558 11.1367 223.086 11.0729 222.621 10.9453C222.161 10.8177 221.742 10.624 221.363 10.3643C220.985 10.0999 220.684 9.77181 220.461 9.37988C220.238 8.9834 220.126 8.52083 220.126 7.99219H221.842C221.842 8.31576 221.896 8.59147 222.006 8.81934C222.12 9.0472 222.277 9.23405 222.478 9.37988C222.678 9.52116 222.91 9.62598 223.175 9.69434C223.444 9.7627 223.731 9.79688 224.036 9.79688C224.437 9.79688 224.772 9.73991 225.041 9.62598C225.314 9.51204 225.52 9.35254 225.656 9.14746C225.793 8.94238 225.861 8.7054 225.861 8.43652ZM236.866 9.63965V11H231.582V9.63965H236.866ZM232.067 1.04688V11H230.352V1.04688H232.067ZM236.176 5.20312V6.54297H231.582V5.20312H236.176ZM236.832 1.04688V2.41406H231.582V1.04688H236.832ZM242.669 6.0918V7.4043H239.053V6.0918H242.669ZM251.404 7.75977H253.113C253.059 8.41146 252.876 8.99251 252.566 9.50293C252.257 10.0088 251.821 10.4076 251.261 10.6992C250.7 10.9909 250.019 11.1367 249.217 11.1367C248.602 11.1367 248.048 11.0273 247.556 10.8086C247.063 10.5853 246.642 10.2708 246.291 9.86523C245.94 9.45508 245.671 8.96061 245.484 8.38184C245.302 7.80306 245.211 7.15592 245.211 6.44043V5.61328C245.211 4.89779 245.304 4.25065 245.491 3.67188C245.683 3.0931 245.956 2.59863 246.312 2.18848C246.667 1.77376 247.093 1.45703 247.59 1.23828C248.091 1.01953 248.654 0.910156 249.278 0.910156C250.071 0.910156 250.741 1.05599 251.288 1.34766C251.835 1.63932 252.259 2.04264 252.56 2.55762C252.865 3.07259 253.052 3.66276 253.12 4.32812H251.411C251.366 3.89974 251.265 3.53288 251.11 3.22754C250.96 2.9222 250.737 2.68978 250.44 2.53027C250.144 2.36621 249.757 2.28418 249.278 2.28418C248.886 2.28418 248.545 2.3571 248.253 2.50293C247.961 2.64876 247.717 2.86296 247.521 3.14551C247.326 3.42806 247.177 3.77669 247.077 4.19141C246.981 4.60156 246.934 5.07096 246.934 5.59961V6.44043C246.934 6.94173 246.977 7.39746 247.063 7.80762C247.155 8.21322 247.291 8.56185 247.474 8.85352C247.66 9.14518 247.897 9.37077 248.185 9.53027C248.472 9.68978 248.816 9.76953 249.217 9.76953C249.704 9.76953 250.099 9.69206 250.399 9.53711C250.705 9.38216 250.935 9.15658 251.09 8.86035C251.249 8.55957 251.354 8.19271 251.404 7.75977ZM259.798 2.37305L256.824 11H255.026L258.772 1.04688H259.921L259.798 2.37305ZM262.286 11L259.306 2.37305L259.176 1.04688H260.331L264.091 11H262.286ZM262.143 7.30859V8.66895H256.729V7.30859H262.143ZM271.691 8.43652C271.691 8.23145 271.66 8.04915 271.596 7.88965C271.536 7.73014 271.429 7.58431 271.274 7.45215C271.119 7.31999 270.901 7.19238 270.618 7.06934C270.34 6.94173 269.985 6.81185 269.552 6.67969C269.078 6.53385 268.64 6.37207 268.239 6.19434C267.843 6.01204 267.496 5.80241 267.2 5.56543C266.904 5.32389 266.674 5.04818 266.51 4.73828C266.346 4.42383 266.264 4.06152 266.264 3.65137C266.264 3.24577 266.348 2.87663 266.517 2.54395C266.69 2.21126 266.934 1.92415 267.248 1.68262C267.567 1.43652 267.943 1.2474 268.376 1.11523C268.809 0.978516 269.287 0.910156 269.812 0.910156C270.55 0.910156 271.186 1.04688 271.719 1.32031C272.257 1.59375 272.669 1.96061 272.956 2.4209C273.248 2.88118 273.394 3.38932 273.394 3.94531H271.691C271.691 3.61719 271.621 3.3278 271.479 3.07715C271.343 2.82194 271.133 2.62142 270.851 2.47559C270.573 2.32975 270.219 2.25684 269.791 2.25684C269.385 2.25684 269.048 2.31836 268.779 2.44141C268.51 2.56445 268.31 2.73079 268.178 2.94043C268.046 3.15007 267.979 3.38704 267.979 3.65137C267.979 3.83822 268.023 4.00911 268.109 4.16406C268.196 4.31445 268.328 4.45573 268.506 4.58789C268.684 4.71549 268.907 4.83626 269.176 4.9502C269.445 5.06413 269.761 5.1735 270.126 5.27832C270.677 5.44238 271.158 5.62467 271.568 5.8252C271.979 6.02116 272.32 6.24447 272.594 6.49512C272.867 6.74577 273.072 7.0306 273.209 7.34961C273.346 7.66406 273.414 8.02181 273.414 8.42285C273.414 8.84212 273.33 9.22038 273.161 9.55762C272.993 9.8903 272.751 10.1751 272.437 10.4121C272.127 10.6445 271.753 10.8245 271.315 10.9521C270.882 11.0752 270.399 11.1367 269.866 11.1367C269.388 11.1367 268.916 11.0729 268.451 10.9453C267.991 10.8177 267.572 10.624 267.193 10.3643C266.815 10.0999 266.514 9.77181 266.291 9.37988C266.068 8.9834 265.956 8.52083 265.956 7.99219H267.672C267.672 8.31576 267.727 8.59147 267.836 8.81934C267.95 9.0472 268.107 9.23405 268.308 9.37988C268.508 9.52116 268.741 9.62598 269.005 9.69434C269.274 9.7627 269.561 9.79688 269.866 9.79688C270.267 9.79688 270.602 9.73991 270.871 9.62598C271.145 9.51204 271.35 9.35254 271.486 9.14746C271.623 8.94238 271.691 8.7054 271.691 8.43652ZM282.696 9.63965V11H277.412V9.63965H282.696ZM277.897 1.04688V11H276.182V1.04688H277.897ZM282.006 5.20312V6.54297H277.412V5.20312H282.006ZM282.662 1.04688V2.41406H277.412V1.04688H282.662ZM290.584 8.43652C290.584 8.23145 290.552 8.04915 290.488 7.88965C290.429 7.73014 290.322 7.58431 290.167 7.45215C290.012 7.31999 289.793 7.19238 289.511 7.06934C289.233 6.94173 288.877 6.81185 288.444 6.67969C287.97 6.53385 287.533 6.37207 287.132 6.19434C286.735 6.01204 286.389 5.80241 286.093 5.56543C285.797 5.32389 285.566 5.04818 285.402 4.73828C285.238 4.42383 285.156 4.06152 285.156 3.65137C285.156 3.24577 285.241 2.87663 285.409 2.54395C285.582 2.21126 285.826 1.92415 286.141 1.68262C286.46 1.43652 286.836 1.2474 287.269 1.11523C287.701 0.978516 288.18 0.910156 288.704 0.910156C289.442 0.910156 290.078 1.04688 290.611 1.32031C291.149 1.59375 291.562 1.96061 291.849 2.4209C292.14 2.88118 292.286 3.38932 292.286 3.94531H290.584C290.584 3.61719 290.513 3.3278 290.372 3.07715C290.235 2.82194 290.026 2.62142 289.743 2.47559C289.465 2.32975 289.112 2.25684 288.684 2.25684C288.278 2.25684 287.941 2.31836 287.672 2.44141C287.403 2.56445 287.202 2.73079 287.07 2.94043C286.938 3.15007 286.872 3.38704 286.872 3.65137C286.872 3.83822 286.915 4.00911 287.002 4.16406C287.089 4.31445 287.221 4.45573 287.398 4.58789C287.576 4.71549 287.799 4.83626 288.068 4.9502C288.337 5.06413 288.654 5.1735 289.019 5.27832C289.57 5.44238 290.051 5.62467 290.461 5.8252C290.871 6.02116 291.213 6.24447 291.486 6.49512C291.76 6.74577 291.965 7.0306 292.102 7.34961C292.238 7.66406 292.307 8.02181 292.307 8.42285C292.307 8.84212 292.222 9.22038 292.054 9.55762C291.885 9.8903 291.644 10.1751 291.329 10.4121C291.019 10.6445 290.646 10.8245 290.208 10.9521C289.775 11.0752 289.292 11.1367 288.759 11.1367C288.28 11.1367 287.809 11.0729 287.344 10.9453C286.883 10.8177 286.464 10.624 286.086 10.3643C285.708 10.0999 285.407 9.77181 285.184 9.37988C284.96 8.9834 284.849 8.52083 284.849 7.99219H286.564C286.564 8.31576 286.619 8.59147 286.729 8.81934C286.842 9.0472 287 9.23405 287.2 9.37988C287.401 9.52116 287.633 9.62598 287.897 9.69434C288.166 9.7627 288.453 9.79688 288.759 9.79688C289.16 9.79688 289.495 9.73991 289.764 9.62598C290.037 9.51204 290.242 9.35254 290.379 9.14746C290.516 8.94238 290.584 8.7054 290.584 8.43652Z" fill="white"/>
</svg>
