<svg width="36" height="36" viewBox="0 0 36 36" fill="none" xmlns="http://www.w3.org/2000/svg">
<path d="M3.85718 10.2857C3.85718 9.57563 4.43281 9 5.14289 9H30.8572C31.5673 9 32.1429 9.57563 32.1429 10.2857V25.7143C32.1429 26.4244 31.5673 27 30.8572 27H10.9286C10.5736 27 10.2857 26.7122 10.2857 26.3571C10.2857 26.0021 10.5736 25.7143 10.9286 25.7143H30.2143C30.5694 25.7143 30.8572 25.4265 30.8572 25.0714V10.9286C30.8572 10.5735 30.5694 10.2857 30.2143 10.2857H5.78575C5.43071 10.2857 5.14289 10.5735 5.14289 10.9286V25.0714C5.14289 25.4265 5.43071 25.7143 5.78575 25.7143H7.07148C7.42652 25.7143 7.71434 26.0021 7.71434 26.3571C7.71434 26.7122 7.42652 27 7.07148 27H5.14289C4.43281 27 3.85718 26.4244 3.85718 25.7143V10.2857Z" fill="#000520"/>
<path fill-rule="evenodd" clip-rule="evenodd" d="M7.71432 14.1429C7.71432 13.7878 8.00214 13.5 8.35718 13.5H16.0715C16.4265 13.5 16.7143 13.7878 16.7143 14.1429V14.4067L16.7168 14.4092L16.7143 14.4117V21.5909L16.7168 21.5935L16.7143 21.596V21.8571C16.7143 22.2122 16.4265 22.5 16.0715 22.5H15.8103L15.8077 22.5026L15.8051 22.5H8.62603L8.62344 22.5026L8.62085 22.5H8.35718C8.00214 22.5 7.71432 22.2122 7.71432 21.8571V14.1429ZM9.90911 14.7857H14.522L12.2156 17.0922L9.90911 14.7857ZM9.00003 15.6949L11.3064 18.0013L9.00003 20.3077V15.6949ZM12.2156 18.9105L9.91174 21.2143H14.5194L12.2156 18.9105ZM15.4286 15.6974L13.1247 18.0013L15.4286 20.3052V15.6974Z" fill="#000520"/>
<path d="M20.5714 13.5H28.2857V14.7857H20.5714V13.5Z" fill="#000520"/>
<path d="M28.2857 17.3571H20.5714V18.6429H28.2857V17.3571Z" fill="#000520"/>
<path d="M20.5714 21.2143H28.2857V22.5H20.5714V21.2143Z" fill="#000520"/>
<path d="M19.2857 14.7857C19.6408 14.7857 19.9286 14.4979 19.9286 14.1429C19.9286 13.7878 19.6408 13.5 19.2857 13.5C18.9307 13.5 18.6429 13.7878 18.6429 14.1429C18.6429 14.4979 18.9307 14.7857 19.2857 14.7857Z" fill="#000520"/>
<path d="M19.9286 18C19.9286 18.355 19.6408 18.6429 19.2857 18.6429C18.9307 18.6429 18.6429 18.355 18.6429 18C18.6429 17.645 18.9307 17.3571 19.2857 17.3571C19.6408 17.3571 19.9286 17.645 19.9286 18Z" fill="#000520"/>
<path d="M19.2857 22.5C19.6408 22.5 19.9286 22.2122 19.9286 21.8571C19.9286 21.5021 19.6408 21.2143 19.2857 21.2143C18.9307 21.2143 18.6429 21.5021 18.6429 21.8571C18.6429 22.2122 18.9307 22.5 19.2857 22.5Z" fill="#000520"/>
</svg>
