<svg width="24" height="24" viewBox="0 0 24 24" fill="none" xmlns="http://www.w3.org/2000/svg">
<path d="M2.57153 6.85714C2.57153 6.38376 2.95529 6 3.42868 6H20.5715C21.0449 6 21.4287 6.38376 21.4287 6.85714V17.1429C21.4287 17.6162 21.0449 18 20.5715 18H7.28582C7.04913 18 6.85725 17.8081 6.85725 17.5714C6.85725 17.3347 7.04913 17.1429 7.28582 17.1429H20.143C20.3797 17.1429 20.5715 16.951 20.5715 16.7143V7.28571C20.5715 7.04902 20.3797 6.85714 20.143 6.85714H3.85725C3.62055 6.85714 3.42868 7.04902 3.42868 7.28571V16.7143C3.42868 16.951 3.62055 17.1429 3.85725 17.1429H4.7144C4.9511 17.1429 5.14297 17.3347 5.14297 17.5714C5.14297 17.8081 4.9511 18 4.7144 18H3.42868C2.95529 18 2.57153 17.6162 2.57153 17.1429V6.85714Z" fill="white"/>
<path fill-rule="evenodd" clip-rule="evenodd" d="M5.14296 9.42857C5.14296 9.19188 5.33484 9 5.57153 9H10.7144C10.9511 9 11.143 9.19188 11.143 9.42857V9.60446L11.1446 9.60613L11.143 9.60781V14.3939L11.1446 14.3956L11.143 14.3973V14.5714C11.143 14.8081 10.9511 15 10.7144 15H10.5403L10.5386 15.0017L10.5368 15H5.75077L5.74904 15.0017L5.74731 15H5.57153C5.33484 15 5.14296 14.8081 5.14296 14.5714V9.42857ZM6.60616 9.85714H9.68144L8.1438 11.3948L6.60616 9.85714ZM6.0001 10.4633L7.53771 12.0009L6.0001 13.5385V10.4633ZM8.1438 12.607L6.60791 14.1429H9.67969L8.1438 12.607ZM10.2858 10.4649L8.74989 12.0009L10.2858 13.5368V10.4649Z" fill="white"/>
<path d="M13.7144 9H18.8572V9.85714H13.7144V9Z" fill="white"/>
<path d="M18.8572 11.5714H13.7144V12.4286H18.8572V11.5714Z" fill="white"/>
<path d="M13.7144 14.1429H18.8572V15H13.7144V14.1429Z" fill="white"/>
<path d="M12.8572 9.85714C13.0939 9.85714 13.2858 9.66527 13.2858 9.42857C13.2858 9.19188 13.0939 9 12.8572 9C12.6205 9 12.4287 9.19188 12.4287 9.42857C12.4287 9.66527 12.6205 9.85714 12.8572 9.85714Z" fill="white"/>
<path d="M13.2858 12C13.2858 12.2367 13.0939 12.4286 12.8572 12.4286C12.6205 12.4286 12.4287 12.2367 12.4287 12C12.4287 11.7633 12.6205 11.5714 12.8572 11.5714C13.0939 11.5714 13.2858 11.7633 13.2858 12Z" fill="white"/>
<path d="M12.8572 15C13.0939 15 13.2858 14.8081 13.2858 14.5714C13.2858 14.3347 13.0939 14.1429 12.8572 14.1429C12.6205 14.1429 12.4287 14.3347 12.4287 14.5714C12.4287 14.8081 12.6205 15 12.8572 15Z" fill="white"/>
</svg>
