<svg width="56" height="60" viewBox="0 0 56 60" fill="none" xmlns="http://www.w3.org/2000/svg">
<g filter="url(#filter0_d_370_2110)">
<path fill-rule="evenodd" clip-rule="evenodd" d="M32.1051 39.0177C32.0571 39.485 32.017 39.8758 32 40H24C23.983 39.8759 23.9429 39.4853 23.895 39.0182C23.8565 38.6432 23.8129 38.2187 23.7722 37.8431C23.7136 37.3026 23.2229 36.9456 22.687 37.0372C22.1344 37.1317 21.7705 37.6622 21.8481 38.2174C22 39.3045 22 40 22 40C20.8954 40 20 40.8954 20 42V44C20 45.1046 20.8954 46 22 46V48C22 49.1046 22.8954 50 24 50H32C33.1046 50 34 49.1046 34 48V46C35.1046 46 36 45.1046 36 44V42C36 40.8954 35.1046 40 34 40C34 40 34 35.5 36.5 31.5C37.1661 30.4343 37.8676 29.598 38.5385 28.7983C40.3856 26.5965 42 24.672 42 19C42 11.268 35.732 6 28 6C20.268 6 14 11.268 14 19C14 24.672 15.6144 26.5965 17.4615 28.7983C18.1324 29.598 18.8339 30.4343 19.5 31.5C19.7272 31.8635 19.9337 32.2311 20.1215 32.5991C20.3718 33.0896 20.9546 33.3252 21.4609 33.1088C21.9704 32.8912 22.2087 32.2994 21.9606 31.8041C21.7326 31.3489 21.4787 30.8924 21.196 30.44C20.4557 29.2555 19.6789 28.3296 19.0177 27.5414L18.9938 27.5129C18.0584 26.3979 17.3775 25.5698 16.8734 24.4058C16.376 23.2569 16 21.6445 16 19C16 12.563 21.1721 8 28 8C34.8279 8 40 12.563 40 19C40 21.6445 39.624 23.2569 39.1266 24.4058C38.6225 25.5698 37.9416 26.3979 37.0062 27.5129L36.9823 27.5414C36.3211 28.3296 35.5443 29.2555 34.804 30.44C33.3822 32.7149 32.6902 35.0956 32.3485 36.8723C32.2987 37.1314 32.1896 38.1936 32.1051 39.0177ZM24 47C24 46.4477 24.4477 46 25 46H31C31.5523 46 32 46.4477 32 47C32 47.5523 31.5523 48 31 48H25C24.4477 48 24 47.5523 24 47ZM34 43C34 43.5523 33.5523 44 33 44H23C22.4477 44 22 43.5523 22 43C22 42.4477 22.4477 42 23 42H33C33.5523 42 34 42.4477 34 43Z" fill="#83F8FF"/>
</g>
<g filter="url(#filter1_d_370_2110)">
<path d="M32.9307 19.5445C32.5336 16.9652 30.4772 15 28 15C25.2386 15 23 17.4421 23 20.4545C23 23.467 27 27 28 27C28.5599 27 30.06 25.8926 31.2722 24.3892C31.5848 24.0015 31.4552 23.437 31.0248 23.1863C30.6197 22.9503 30.1029 23.0853 29.8159 23.456C29.1187 24.3568 28.3135 25 28 25C27.4 25 25 22.6447 25 20.6364C25 18.6281 26.3431 17 28 17C29.3454 17 30.484 18.0736 30.8645 19.5526C31.011 20.1221 31.5049 20.5905 32.0905 20.5372C32.6056 20.4904 33.0094 20.0557 32.9307 19.5445Z" fill="#83F8FF"/>
</g>
<defs>
<filter id="filter0_d_370_2110" x="7" y="0" width="44" height="60" filterUnits="userSpaceOnUse" color-interpolation-filters="sRGB">
<feFlood flood-opacity="0" result="BackgroundImageFix"/>
<feColorMatrix in="SourceAlpha" type="matrix" values="0 0 0 0 0 0 0 0 0 0 0 0 0 0 0 0 0 0 127 0" result="hardAlpha"/>
<feOffset dx="1" dy="2"/>
<feGaussianBlur stdDeviation="4"/>
<feComposite in2="hardAlpha" operator="out"/>
<feColorMatrix type="matrix" values="0 0 0 0 0.513726 0 0 0 0 0.972549 0 0 0 0 1 0 0 0 1 0"/>
<feBlend mode="normal" in2="BackgroundImageFix" result="effect1_dropShadow_370_2110"/>
<feBlend mode="normal" in="SourceGraphic" in2="effect1_dropShadow_370_2110" result="shape"/>
</filter>
<filter id="filter1_d_370_2110" x="16" y="9" width="25.9407" height="28" filterUnits="userSpaceOnUse" color-interpolation-filters="sRGB">
<feFlood flood-opacity="0" result="BackgroundImageFix"/>
<feColorMatrix in="SourceAlpha" type="matrix" values="0 0 0 0 0 0 0 0 0 0 0 0 0 0 0 0 0 0 127 0" result="hardAlpha"/>
<feOffset dx="1" dy="2"/>
<feGaussianBlur stdDeviation="4"/>
<feComposite in2="hardAlpha" operator="out"/>
<feColorMatrix type="matrix" values="0 0 0 0 0.513726 0 0 0 0 0.972549 0 0 0 0 1 0 0 0 1 0"/>
<feBlend mode="normal" in2="BackgroundImageFix" result="effect1_dropShadow_370_2110"/>
<feBlend mode="normal" in="SourceGraphic" in2="effect1_dropShadow_370_2110" result="shape"/>
</filter>
</defs>
</svg>
