<svg width="56" height="56" viewBox="0 0 56 56" fill="none" xmlns="http://www.w3.org/2000/svg">
<path d="M12.3956 9C9.96798 9 8 11.0314 8 13.5373V36.2239C8 38.7298 9.96798 40 12.3956 40H27.4506L30.7473 47L36.901 40H43.6043C46.032 40 47.9999 38.7298 47.9999 36.2239V13.5373C47.9999 11.0314 46.032 9 43.6043 9H22.6343C22.0079 9 21.5 9.50786 21.5 10.1343C21.5 10.7608 22.0079 11.2687 22.6343 11.2687H43.6043C44.8182 11.2687 45.8021 12.2844 45.8021 13.5373V36.2239C45.8021 37.4768 44.8182 38 43.6043 38H36.4066L31.2968 43.597L28.5495 38H12.3956C11.1818 38 10.1978 37.4768 10.1978 36.2239V13.5373C10.1978 12.2844 11.1818 11.2687 12.3956 11.2687H16.3657C16.9921 11.2687 17.5 10.7608 17.5 10.1343C17.5 9.50786 16.9921 9 16.3657 9H12.3956Z" fill="white"/>
</svg>
