<svg width="36" height="36" viewBox="0 0 36 36" fill="none" xmlns="http://www.w3.org/2000/svg">
<circle cx="18" cy="18" r="18" fill="#C3C8CB"/>
<path d="M13.2891 11.1797C13.2891 12.3835 12.3132 13.3594 11.1094 13.3594C9.90557 13.3594 8.92969 12.3835 8.92969 11.1797C8.92969 9.97588 9.90557 9 11.1094 9C12.3132 9 13.2891 9.97588 13.2891 11.1797Z" fill="white"/>
<path d="M13.0078 14.9062V27H9.21094V14.9062H13.0078Z" fill="white"/>
<path d="M19.0547 14.9062H15.2578V27H19.0547V20.2721C19.1874 19.3973 19.639 18.0401 20.918 17.9648C22.3523 17.8805 22.8867 18.668 22.957 19.0547C23.0391 19.2773 23.2031 19.8914 23.2031 20.5664V27H27V19.8984H26.9727C27.0351 17.9988 26.432 14.6953 22.9219 14.6953C20.2192 14.6953 19.3241 15.6719 19.0547 16.5228V14.9062Z" fill="white"/>
</svg>
