<svg width="257" height="256" viewBox="0 0 257 256" fill="none" xmlns="http://www.w3.org/2000/svg">
<path d="M62 31C62 48.1208 48.1208 62 31 62C13.8792 62 0 48.1208 0 31C0 13.8792 13.8792 0 31 0C48.1208 0 62 13.8792 62 31Z" fill="white"/>
<path d="M58 84V256H4V84H58Z" fill="white"/>
<path d="M144 84H90V256H144V160.314C145.887 147.873 152.31 128.57 170.5 127.5C190.9 126.3 198.5 137.5 199.5 143C200.667 146.167 203 154.9 203 164.5V256H257V155H256.612C257.499 127.983 248.922 81 199 81C160.562 81 147.832 94.8886 144 106.991V84Z" fill="white"/>
</svg>
