<svg width="38" height="20" viewBox="0 0 38 20" fill="none" xmlns="http://www.w3.org/2000/svg">
<path d="M11.074 19.1781C11.7759 20.2468 13.3353 20.2468 14.0372 19.1781L18.6561 12.1459H16.5411L12.8519 17.7627C12.7116 17.9764 12.3997 17.9764 12.2593 17.7627L2.12967 2.34014C1.97372 2.1027 2.14303 1.78616 2.42599 1.78616H12.4292V1.63381e-06L1.77862 0C0.363838 0 -0.482754 1.58272 0.297001 2.76991L11.074 19.1781Z" fill="#E3E3E3"/>
<path d="M26.9248 0.821628C26.2228 -0.246977 24.6635 -0.246977 23.9616 0.821628L19.3389 7.85909H21.454L25.1469 2.23726C25.2872 2.02354 25.5991 2.02354 25.7395 2.23726L35.8701 17.6598C36.0261 17.8973 35.8568 18.2138 35.5738 18.2138H24.1477V20H36.2214C37.6362 20 38.4828 18.4172 37.703 17.23L26.9248 0.821628Z" fill="#E3E3E3"/>
<path d="M11.074 19.1781C11.7759 20.2468 13.3353 20.2468 14.0372 19.1781L18.6561 12.1459H16.5411L12.8519 17.7627C12.7116 17.9764 12.3997 17.9764 12.2593 17.7627L2.12967 2.34014C1.97372 2.1027 2.14303 1.78616 2.42599 1.78616H12.4292V1.63381e-06L1.77862 0C0.363838 0 -0.482754 1.58272 0.297001 2.76991L11.074 19.1781Z" fill="#2790DD"/>
</svg>
