<svg width="36" height="36" viewBox="0 0 36 36" fill="none" xmlns="http://www.w3.org/2000/svg">
<path fill-rule="evenodd" clip-rule="evenodd" d="M10.5542 12.5179L17.3571 6.20723V13.6098C16.6081 13.8745 16.0714 14.5889 16.0714 15.4286C16.0714 16.4937 16.9349 17.3572 18 17.3572C19.0651 17.3572 19.9286 16.4937 19.9286 15.4286C19.9286 14.5889 19.3919 13.8745 18.6429 13.6098V6.20723L25.4458 12.5179L20.0307 24.4286H15.9693L14.4805 21.1541C14.3341 20.8319 13.9547 20.6887 13.6319 20.8337C13.307 20.9797 13.1627 21.362 13.3101 21.6862L14.5569 24.4286H14.1429C13.4328 24.4286 12.8571 25.0042 12.8571 25.7143V30.8572C12.8571 31.5673 13.4328 32.1429 14.1429 32.1429H21.8571C22.5672 32.1429 23.1429 31.5673 23.1429 30.8572V25.7143C23.1429 25.0042 22.5672 24.4286 21.8571 24.4286H21.4431L27 12.2059L18 3.85718L9 12.2059L11.6164 17.9607C11.7673 18.2928 12.1639 18.4328 12.4899 18.2693C12.7987 18.1143 12.9298 17.7431 12.7868 17.4286L10.5542 12.5179ZM14.1429 25.7143V30.8572H21.8571V25.7143H14.1429ZM18.6429 15.4286C18.6429 15.7836 18.355 16.0715 18 16.0715C17.645 16.0715 17.3571 15.7836 17.3571 15.4286C17.3571 15.0736 17.645 14.7857 18 14.7857C18.355 14.7857 18.6429 15.0736 18.6429 15.4286Z" fill="#000520"/>
</svg>
