<svg width="24" height="24" viewBox="0 0 24 24" fill="none" xmlns="http://www.w3.org/2000/svg">
<path fill-rule="evenodd" clip-rule="evenodd" d="M7.03613 8.3452L11.5714 4.13811V9.07314C11.0721 9.24964 10.7143 9.72589 10.7143 10.2857C10.7143 10.9958 11.2899 11.5714 12 11.5714C12.7101 11.5714 13.2857 10.9958 13.2857 10.2857C13.2857 9.72589 12.9279 9.24964 12.4286 9.07314V4.13811L16.9639 8.3452L13.3538 16.2857H10.6462L9.6537 14.1027C9.55604 13.8879 9.30315 13.7924 9.08793 13.8891C8.87134 13.9864 8.77514 14.2413 8.87341 14.4574L9.70461 16.2857H9.42857C8.95518 16.2857 8.57143 16.6695 8.57143 17.1428V20.5714C8.57143 21.0448 8.95518 21.4286 9.42857 21.4286H14.5714C15.0448 21.4286 15.4286 21.0448 15.4286 20.5714V17.1428C15.4286 16.6695 15.0448 16.2857 14.5714 16.2857H14.2954L18 8.1372L12 2.57141L6 8.1372L7.74426 11.9738C7.84489 12.1951 8.10929 12.2885 8.32661 12.1795C8.53245 12.0762 8.61986 11.8287 8.52454 11.619L7.03613 8.3452ZM9.42857 17.1428V20.5714H14.5714V17.1428H9.42857ZM12.4286 10.2857C12.4286 10.5224 12.2367 10.7143 12 10.7143C11.7633 10.7143 11.5714 10.5224 11.5714 10.2857C11.5714 10.049 11.7633 9.85713 12 9.85713C12.2367 9.85713 12.4286 10.049 12.4286 10.2857Z" fill="white"/>
</svg>
