<svg width="1440" height="128" viewBox="0 0 1440 128" fill="none" xmlns="http://www.w3.org/2000/svg">
<rect width="1440" height="128" fill="#010627"/>
<path d="M1243.73 61.864L1243.84 64.744V79H1239.81V52.504H1240.31L1255.86 69.856L1255.72 66.832V52.54H1259.75V79H1259.21L1243.73 61.864ZM1272.93 79.36C1270.96 79.36 1269.31 78.976 1267.99 78.208C1266.67 77.416 1265.7 76.372 1265.08 75.076C1264.45 73.756 1264.14 72.316 1264.14 70.756C1264.14 69.004 1264.5 67.468 1265.22 66.148C1265.97 64.828 1266.99 63.82 1268.28 63.124C1269.58 62.404 1271.04 62.044 1272.67 62.044C1275.22 62.044 1277.1 62.752 1278.33 64.168C1279.57 65.56 1280.2 67.528 1280.2 70.072C1280.2 70.72 1280.16 71.392 1280.09 72.088H1268.21C1268.47 73.552 1268.99 74.608 1269.76 75.256C1270.55 75.904 1271.64 76.228 1273.03 76.228C1274.19 76.228 1275.13 76.132 1275.88 75.94C1276.62 75.748 1277.31 75.484 1277.93 75.148L1279.12 77.92C1278.52 78.304 1277.7 78.64 1276.67 78.928C1275.64 79.216 1274.39 79.36 1272.93 79.36ZM1276.42 69.388C1276.44 67.9 1276.12 66.856 1275.45 66.256C1274.77 65.632 1273.81 65.32 1272.57 65.32C1270.05 65.32 1268.59 66.676 1268.21 69.388H1276.42ZM1288.31 70.432L1282.51 62.476H1287.12L1290.5 67.588L1293.71 62.476H1298.42L1292.59 70.216L1298.93 79H1294.46L1290.54 73.168L1286.79 79H1282.11L1288.31 70.432ZM1303.36 65.644H1300.45V62.476H1303.36V55.744L1307.29 54.88V62.476H1311.1V65.644H1307.29V79H1303.36V65.644Z" fill="white"/>
<path fill-rule="evenodd" clip-rule="evenodd" d="M1349.89 75.2853L1359.3 65.7249C1360.23 64.772 1360.23 63.2271 1359.3 62.2743L1349.89 52.7147C1348.96 51.7618 1347.44 51.7618 1346.5 52.7147C1345.56 53.6675 1345.56 55.2124 1346.5 56.1653L1351.81 61.5596H1338.44C1337.09 61.5596 1336 62.652 1336 63.9996C1336 65.3472 1337.09 66.4396 1338.44 66.4396H1351.81L1346.5 71.8346C1345.56 72.7875 1345.56 74.3324 1346.5 75.2853C1347.44 76.2382 1348.96 76.2382 1349.89 75.2853Z" fill="white"/>
</svg>
