<svg width="1116" height="200" viewBox="0 0 1116 200" fill="none" xmlns="http://www.w3.org/2000/svg">
<path fill-rule="evenodd" clip-rule="evenodd" d="M380.388 61.7317C385.413 73.8642 388 86.8678 388 100L387.995 100C387.995 110.506 390.065 120.91 394.085 130.616C398.106 140.323 403.999 149.143 411.428 156.572C418.857 164.001 427.677 169.894 437.384 173.915C447.09 177.935 457.494 180.005 468 180.005C478.506 180.005 488.91 177.935 498.616 173.915C508.323 169.894 517.143 164.001 524.572 156.572C532.001 149.143 537.894 140.323 541.915 130.616C545.935 120.91 548.005 110.506 548.005 100L548 100C548 86.8678 550.587 73.8642 555.612 61.7317C560.638 49.5991 568.003 38.5752 577.289 29.2893C586.575 20.0035 597.599 12.6375 609.732 7.61205C621.864 2.58658 634.868 0 648 0C661.132 0 674.136 2.58658 686.268 7.61205C698.401 12.6375 709.425 20.0035 718.711 29.2893C727.997 38.5752 735.362 49.5991 740.388 61.7317C745.413 73.8642 748 86.8678 748 100L747.995 100C747.995 110.506 750.065 120.91 754.085 130.616C758.106 140.323 763.999 149.143 771.428 156.572C778.857 164.001 787.677 169.894 797.384 173.915C807.09 177.935 817.494 180.005 828 180.005C838.506 180.005 848.91 177.935 858.616 173.915C868.323 169.894 877.143 164.001 884.572 156.572C892.001 149.143 897.894 140.323 901.915 130.616C905.935 120.91 908.005 110.506 908.005 100L908 100C908 86.8678 910.587 73.8642 915.612 61.7317C920.638 49.5991 928.003 38.5752 937.289 29.2893C946.575 20.0035 957.599 12.6375 969.732 7.61205C981.864 2.58658 994.868 0 1008 0C1021.13 0 1034.14 2.58658 1046.27 7.61205C1058.4 12.6375 1069.42 20.0035 1078.71 29.2893C1088 38.5752 1095.36 49.5991 1100.39 61.7317C1103.39 68.9856 1105.53 76.5509 1106.75 84.2689C1112.27 87.3448 1116 93.2368 1116 100C1116 109.941 1107.94 118 1098 118C1088.06 118 1080 109.941 1080 100C1080 94.3113 1082.64 89.2389 1086.76 85.9403C1085.75 80.2764 1084.13 74.7245 1081.91 69.3836C1077.89 59.677 1072 50.8574 1064.57 43.4283C1057.14 35.9991 1048.32 30.1061 1038.62 26.0854C1028.91 22.0648 1018.51 19.9955 1008 19.9955C997.494 19.9955 987.09 22.0648 977.384 26.0855C967.677 30.1061 958.857 35.9991 951.428 43.4283C943.999 50.8574 938.106 59.677 934.085 69.3836C930.065 79.0902 927.995 89.4937 927.995 100L928 100C928 113.132 925.413 126.136 920.388 138.268C915.362 150.401 907.997 161.425 898.711 170.711C889.425 179.997 878.401 187.362 866.268 192.388C854.136 197.413 841.132 200 828 200C814.868 200 801.864 197.413 789.732 192.388C777.599 187.362 766.575 179.997 757.289 170.711C748.003 161.425 740.638 150.401 735.612 138.268C730.587 126.136 728 113.132 728 100L728.005 100C728.005 89.4937 725.935 79.0902 721.915 69.3836C717.894 59.677 712.001 50.8574 704.572 43.4283C697.143 35.9991 688.323 30.1061 678.616 26.0854C668.91 22.0648 658.506 19.9955 648 19.9955C637.494 19.9955 627.09 22.0648 617.384 26.0855C607.677 30.1061 598.857 35.9991 591.428 43.4283C583.999 50.8574 578.106 59.677 574.085 69.3836C570.065 79.0902 567.995 89.4937 567.995 100L568 100C568 113.132 565.413 126.136 560.388 138.268C555.362 150.401 547.997 161.425 538.711 170.711C529.425 179.997 518.401 187.362 506.268 192.388C494.136 197.413 481.132 200 468 200C454.868 200 441.864 197.413 429.732 192.388C417.599 187.362 406.575 179.997 397.289 170.711C388.003 161.425 380.638 150.401 375.612 138.268C370.587 126.136 368 113.132 368 100L368.005 100C368.005 89.4937 365.935 79.0902 361.915 69.3836C357.894 59.677 352.001 50.8574 344.572 43.4283C337.143 35.9991 328.323 30.1061 318.616 26.0854C308.91 22.0648 298.506 19.9955 288 19.9955C277.494 19.9955 267.09 22.0648 257.384 26.0855C247.677 30.1061 238.857 35.9991 231.428 43.4283C223.999 50.8574 218.106 59.677 214.085 69.3836C210.065 79.0902 207.995 89.4937 207.995 100L208 100C208 113.132 205.413 126.136 200.388 138.268C195.362 150.401 187.997 161.425 178.711 170.711C169.425 179.997 158.401 187.362 146.268 192.388C134.136 197.413 121.132 200 108 200C94.8678 200 81.8642 197.413 69.7317 192.388C57.5991 187.362 46.5752 179.997 37.2893 170.711C28.0035 161.425 20.6375 150.401 15.612 138.268C12.6074 131.014 10.4745 123.449 9.24509 115.731C3.73001 112.655 0 106.763 0 100C0 90.0589 8.05887 82 18 82C27.9411 82 36 90.0589 36 100C36 105.689 33.361 110.761 29.2405 114.06C30.2516 119.724 31.8732 125.275 34.0854 130.616C38.1061 140.323 43.9991 149.143 51.4282 156.572C58.8574 164.001 67.677 169.894 77.3836 173.915C87.0902 177.935 97.4937 180.005 108 180.005C118.506 180.005 128.91 177.935 138.616 173.915C148.323 169.894 157.143 164.001 164.572 156.572C172.001 149.143 177.894 140.323 181.915 130.616C185.935 120.91 188.005 110.506 188.005 100L188 100C188 86.8678 190.587 73.8642 195.612 61.7317C200.638 49.5991 208.003 38.5752 217.289 29.2893C226.575 20.0035 237.599 12.6375 249.732 7.61205C261.864 2.58658 274.868 0 288 0C301.132 0 314.136 2.58658 326.268 7.61205C338.401 12.6375 349.425 20.0035 358.711 29.2893C367.997 38.5752 375.362 49.5991 380.388 61.7317Z" fill="#032D52"/>
</svg>
