<svg width="60" height="60" viewBox="0 0 60 60" fill="none" xmlns="http://www.w3.org/2000/svg">
<path fill-rule="evenodd" clip-rule="evenodd" d="M30 60C46.5685 60 60 46.5685 60 30C60 13.4315 46.5685 0 30 0C13.4315 0 0 13.4315 0 30C0 46.5685 13.4315 60 30 60ZM19.0195 17.3846C19.0195 16.0676 20.0872 15 21.4041 15H38.5948C39.9118 15 40.9795 16.0676 40.9795 17.3846C40.9795 18.7016 39.9118 19.7692 38.5948 19.7692H21.4042C20.0872 19.7692 19.0195 18.7016 19.0195 17.3846ZM18.7147 32.195L28.2751 22.8523C29.228 21.921 30.7729 21.921 31.7258 22.8523L41.2854 32.195C42.2383 33.1262 42.2383 34.6361 41.2854 35.5673C40.3325 36.4986 38.7876 36.4986 37.8347 35.5673L32.4404 30.2954V43.56C32.4404 44.9076 31.348 46 30.0004 46C28.6529 46 27.5604 44.9076 27.5604 43.56V30.2954L22.1654 35.5673C21.2125 36.4986 19.6676 36.4986 18.7147 35.5673C17.7618 34.6361 17.7618 33.1262 18.7147 32.195Z" fill="white"/>
</svg>
