<svg width="36" height="36" viewBox="0 0 36 36" fill="none" xmlns="http://www.w3.org/2000/svg">
<path d="M7.96857 5.78577C6.40795 5.78577 5.14282 7.09168 5.14282 8.70261V23.2868C5.14282 24.8978 6.40795 25.7143 7.96857 25.7143H17.6468L19.7661 30.2143L23.7221 25.7143H28.0313C29.5919 25.7143 30.8571 24.8978 30.8571 23.2868V8.70261C30.8571 7.09168 29.5919 5.78577 28.0313 5.78577H14.5506C14.1479 5.78577 13.8214 6.11225 13.8214 6.51498C13.8214 6.91771 14.1479 7.24419 14.5506 7.24419H28.0313C28.8116 7.24419 29.4442 7.89715 29.4442 8.70261V23.2868C29.4442 24.0923 28.8116 24.4286 28.0313 24.4286H23.4042L20.1193 28.0267L18.3532 24.4286H7.96857C7.18826 24.4286 6.5557 24.0923 6.5557 23.2868V8.70261C6.5557 7.89715 7.18826 7.24419 7.96857 7.24419H10.5208C10.9235 7.24419 11.25 6.91771 11.25 6.51498C11.25 6.11225 10.9235 5.78577 10.5208 5.78577H7.96857Z" fill="#000520"/>
</svg>
