<svg width="60" height="56" viewBox="0 0 60 56" fill="none" xmlns="http://www.w3.org/2000/svg">
<g filter="url(#filter0_d_375_3013)">
<path d="M7 16C7 14.8954 7.89543 14 9 14H49C50.1046 14 51 14.8954 51 16V40C51 41.1046 50.1046 42 49 42H18C17.4477 42 17 41.5523 17 41C17 40.4477 17.4477 40 18 40H48C48.5523 40 49 39.5523 49 39V17C49 16.4477 48.5523 16 48 16H10C9.44772 16 9 16.4477 9 17V39C9 39.5523 9.44771 40 10 40H12C12.5523 40 13 40.4477 13 41C13 41.5523 12.5523 42 12 42H9C7.89543 42 7 41.1046 7 40V16Z" fill="#83F8FF"/>
</g>
<g filter="url(#filter1_d_375_3013)">
<path fill-rule="evenodd" clip-rule="evenodd" d="M13 22C13 21.4477 13.4477 21 14 21H26C26.5523 21 27 21.4477 27 22V22.4104L27.0039 22.4143L27 22.4182V33.5859L27.0039 33.5898L27 33.5938V34C27 34.5523 26.5523 35 26 35H25.5938L25.5897 35.004L25.5857 35H14.4182L14.4142 35.004L14.4102 35H14C13.4477 35 13 34.5523 13 34V22ZM16.4141 23H23.5898L20.002 26.5878L16.4141 23ZM15 24.4143L18.5877 28.002L15 31.5898V24.4143ZM20.002 29.4163L16.4182 33H23.5857L20.002 29.4163ZM25 24.4182L21.4162 28.002L25 31.5859V24.4182Z" fill="#83F8FF"/>
<path d="M33 21H45V23H33V21Z" fill="#83F8FF"/>
<path d="M45 27H33V29H45V27Z" fill="#83F8FF"/>
<path d="M33 33H45V35H33V33Z" fill="#83F8FF"/>
<path d="M31 23C31.5523 23 32 22.5523 32 22C32 21.4477 31.5523 21 31 21C30.4477 21 30 21.4477 30 22C30 22.5523 30.4477 23 31 23Z" fill="#83F8FF"/>
<path d="M32 28C32 28.5523 31.5523 29 31 29C30.4477 29 30 28.5523 30 28C30 27.4477 30.4477 27 31 27C31.5523 27 32 27.4477 32 28Z" fill="#83F8FF"/>
<path d="M31 35C31.5523 35 32 34.5523 32 34C32 33.4477 31.5523 33 31 33C30.4477 33 30 33.4477 30 34C30 34.5523 30.4477 35 31 35Z" fill="#83F8FF"/>
</g>
<defs>
<filter id="filter0_d_375_3013" x="0" y="8" width="60" height="44" filterUnits="userSpaceOnUse" color-interpolation-filters="sRGB">
<feFlood flood-opacity="0" result="BackgroundImageFix"/>
<feColorMatrix in="SourceAlpha" type="matrix" values="0 0 0 0 0 0 0 0 0 0 0 0 0 0 0 0 0 0 127 0" result="hardAlpha"/>
<feOffset dx="1" dy="2"/>
<feGaussianBlur stdDeviation="4"/>
<feComposite in2="hardAlpha" operator="out"/>
<feColorMatrix type="matrix" values="0 0 0 0 0.513726 0 0 0 0 0.972549 0 0 0 0 1 0 0 0 1 0"/>
<feBlend mode="normal" in2="BackgroundImageFix" result="effect1_dropShadow_375_3013"/>
<feBlend mode="normal" in="SourceGraphic" in2="effect1_dropShadow_375_3013" result="shape"/>
</filter>
<filter id="filter1_d_375_3013" x="6" y="15" width="48" height="30.0039" filterUnits="userSpaceOnUse" color-interpolation-filters="sRGB">
<feFlood flood-opacity="0" result="BackgroundImageFix"/>
<feColorMatrix in="SourceAlpha" type="matrix" values="0 0 0 0 0 0 0 0 0 0 0 0 0 0 0 0 0 0 127 0" result="hardAlpha"/>
<feOffset dx="1" dy="2"/>
<feGaussianBlur stdDeviation="4"/>
<feComposite in2="hardAlpha" operator="out"/>
<feColorMatrix type="matrix" values="0 0 0 0 0.513726 0 0 0 0 0.972549 0 0 0 0 1 0 0 0 1 0"/>
<feBlend mode="normal" in2="BackgroundImageFix" result="effect1_dropShadow_375_3013"/>
<feBlend mode="normal" in="SourceGraphic" in2="effect1_dropShadow_375_3013" result="shape"/>
</filter>
</defs>
</svg>
