<svg width="56" height="56" viewBox="0 0 56 56" fill="none" xmlns="http://www.w3.org/2000/svg">
<path d="M6 16C6 14.8954 6.89543 14 8 14H48C49.1046 14 50 14.8954 50 16V40C50 41.1046 49.1046 42 48 42H17C16.4477 42 16 41.5523 16 41C16 40.4477 16.4477 40 17 40H47C47.5523 40 48 39.5523 48 39V17C48 16.4477 47.5523 16 47 16H9C8.44772 16 8 16.4477 8 17V39C8 39.5523 8.44771 40 9 40H11C11.5523 40 12 40.4477 12 41C12 41.5523 11.5523 42 11 42H8C6.89543 42 6 41.1046 6 40V16Z" fill="white"/>
<path fill-rule="evenodd" clip-rule="evenodd" d="M12 22C12 21.4477 12.4477 21 13 21H25C25.5523 21 26 21.4477 26 22V22.4104L26.0039 22.4143L26 22.4182V33.5859L26.0039 33.5898L26 33.5938V34C26 34.5523 25.5523 35 25 35H24.5938L24.5897 35.004L24.5857 35H13.4182L13.4142 35.004L13.4102 35H13C12.4477 35 12 34.5523 12 34V22ZM15.4141 23H22.5898L19.002 26.5878L15.4141 23ZM14 24.4143L17.5877 28.002L14 31.5898V24.4143ZM19.002 29.4163L15.4182 33H22.5857L19.002 29.4163ZM24 24.4182L20.4162 28.002L24 31.5859V24.4182Z" fill="white"/>
<path d="M32 21H44V23H32V21Z" fill="white"/>
<path d="M44 27H32V29H44V27Z" fill="white"/>
<path d="M32 33H44V35H32V33Z" fill="white"/>
<path d="M30 23C30.5523 23 31 22.5523 31 22C31 21.4477 30.5523 21 30 21C29.4477 21 29 21.4477 29 22C29 22.5523 29.4477 23 30 23Z" fill="white"/>
<path d="M31 28C31 28.5523 30.5523 29 30 29C29.4477 29 29 28.5523 29 28C29 27.4477 29.4477 27 30 27C30.5523 27 31 27.4477 31 28Z" fill="white"/>
<path d="M30 35C30.5523 35 31 34.5523 31 34C31 33.4477 30.5523 33 30 33C29.4477 33 29 33.4477 29 34C29 34.5523 29.4477 35 30 35Z" fill="white"/>
</svg>
